<svg xmlns="http://www.w3.org/2000/svg" xmlns:xlink="http://www.w3.org/1999/xlink" width="33" height="29" viewBox="0 0 33 29"><defs><path id="hhyxa" d="M994 35V19h16v16zm8-3a5 5 0 1 0 0-10 5 5 0 0 0 0 10z"/><path id="hhyxb" d="M990.76 44.47a3.53 3.53 0 0 1-3.52 3.53 3.53 3.53 0 0 1 0-7.05c1.95 0 3.52 1.6 3.52 3.52zm-3.52-.93a.94.94 0 0 0-.95.97c0 .54.41.96.95.96.55 0 .96-.42.96-.96a.94.94 0 0 0-.96-.97zm13.6.93c0 1.93-1.6 3.53-3.51 3.53a3.53 3.53 0 0 1 0-7.05c1.95 0 3.51 1.6 3.51 3.52zm-2.55.04a.94.94 0 0 0-.96-.97.94.94 0 0 0-.96.97c0 .54.42.96.96.96s.96-.42.96-.96zm5.71-18.14l-2.97 10.93a2.36 2.36 0 0 1-2.3 1.76h-12.86a2.37 2.37 0 0 1-2.33-1.8l-2.9-11.7h-2.36a1.28 1.28 0 0 1 0-2.56h2.49c1.11 0 2.07.74 2.33 1.8l.38 1.57zm-19.88 2.56L986 36.5h12.6l2.05-7.57z"/><path id="hhyxc" d="M997 27a5 5 0 1 1 10 0 5 5 0 0 1-10 0z"/><clipPath id="hhyxd"><use fill="#fff" xlink:href="#hhyxa"/></clipPath></defs><g><g transform="translate(-977 -19)"><use fill="#fff" xlink:href="#hhyxb"/></g><g transform="translate(-977 -19)"><use fill="#ff870a" xlink:href="#hhyxc"/><use fill="#fff" fill-opacity="0" stroke="#280082" stroke-miterlimit="50" stroke-width="6" clip-path="url(&quot;#hhyxd&quot;)" xlink:href="#hhyxc"/></g></g></svg>