<svg xmlns="http://www.w3.org/2000/svg" xmlns:xlink="http://www.w3.org/1999/xlink" width="20" height="20" viewBox="0 0 20 20"><defs><path id="hzysa" d="M993.97 47.51l-.21.38 5.77 5.83-1.82 1.81-5.77-5.82-.38.26a8.26 8.26 0 0 1-4.43 1.34c-2.25 0-4.16-.8-5.75-2.4a7.92 7.92 0 0 1-2.38-5.78c0-2.25.8-4.16 2.38-5.75a7.83 7.83 0 0 1 5.75-2.38c2.24 0 4.16.8 5.74 2.38a7.83 7.83 0 0 1 2.38 5.75c0 1.57-.42 3.03-1.28 4.38zm-2.3-8.93a6.19 6.19 0 0 0-4.54-1.87c-1.79 0-3.3.63-4.55 1.87a6.19 6.19 0 0 0-1.87 4.55c0 1.78.62 3.3 1.87 4.54a6.19 6.19 0 0 0 4.55 1.88c1.78 0 3.3-.63 4.54-1.88a6.22 6.22 0 0 0 1.93-4.54c0-1.75-.65-3.26-1.93-4.55z"/></defs><g><g transform="translate(-979 -35)"><use fill="#fff" xlink:href="#hzysa"/></g></g></svg>