<?xml version="1.0" standalone="no"?>
<!DOCTYPE svg PUBLIC "-//W3C//DTD SVG 1.1//EN" "http://www.w3.org/Graphics/SVG/1.1/DTD/svg11.dtd" >
<svg xmlns="http://www.w3.org/2000/svg" xmlns:xlink="http://www.w3.org/1999/xlink" version="1.1">
<metadata>
Created by FontForge 20170731 at Wed May 25 09:58:01 2016
 By ,,,
Copyright (c) 2009 Darden Studio. Conceived with Christian Schwartz for Landor Associates; designed by Joshua Darden, with design and production assistance by Jesse Ragan, Thomas Jockin, Noam Berg, &#38; Scott Kellum.
</metadata>
<defs>
<font id="OmnesPro-Black" horiz-adv-x="750" >
  <font-face 
    font-family="Omnes Pro"
    font-weight="900"
    font-stretch="normal"
    units-per-em="1000"
    panose-1="2 0 6 6 5 0 0 2 0 4"
    ascent="800"
    descent="-200"
    x-height="502"
    cap-height="652"
    bbox="-116.251 -233 1111 1096"
    underline-thickness="20"
    underline-position="-173"
    unicode-range="U+0020-FB02"
  />
<missing-glyph horiz-adv-x="500" 
 />
    <glyph glyph-name="fi" unicode="fi" horiz-adv-x="756" 
d="M94 329q-93 0 -93 83v12q0 78 93 78h4v4q0 118 54 164t151 46q79 0 118.5 -29.5t39.5 -73.5q0 -22 -10 -44.5t-20.5 -34.5t-12.5 -10q-24 22 -56 22q-40 0 -40 -36v-8h24q93 0 93 -83v-12q0 -78 -93 -78h-14v-221q0 -62 -27 -87.5t-78 -25.5h-24q-105 0 -105 113v221h-4z
M590 -5q-51 0 -79 25.5t-28 87.5v291q0 113 105 113h24q51 0 78 -25.5t27 -87.5v-291q0 -113 -103 -113h-24zM602 538q-57 0 -90.5 28.5t-33.5 77.5q0 48 32.5 77t87.5 29q57 0 90.5 -28.5t33.5 -77.5q0 -48 -32.5 -77t-87.5 -29z" />
    <glyph glyph-name="fl" unicode="fl" horiz-adv-x="756" 
d="M94 329q-93 0 -93 83v12q0 78 93 78h4v4q0 118 54 164t151 46q79 0 118.5 -29.5t39.5 -73.5q0 -22 -10 -44.5t-20.5 -34.5t-12.5 -10q-24 22 -56 22q-40 0 -40 -36v-8h24q93 0 93 -83v-12q0 -78 -93 -78h-14v-221q0 -62 -27 -87.5t-78 -25.5h-24q-105 0 -105 113v221h-4z
M590 -5q-51 0 -79 25.5t-28 87.5v577q0 4 12.5 10.5t34.5 11.5t44 5q27 0 50.5 -8t45.5 -26.5t34.5 -54t12.5 -85.5v-430q0 -113 -103 -113h-24z" />
    <glyph glyph-name=".notdef" horiz-adv-x="500" 
 />
    <glyph glyph-name=".null" horiz-adv-x="0" 
 />
    <glyph glyph-name="nonmarkingreturn" horiz-adv-x="333" 
 />
    <glyph glyph-name="space" unicode=" " horiz-adv-x="170" 
 />
    <glyph glyph-name="exclam" unicode="!" horiz-adv-x="314" 
d="M144 228q-21 0 -34.5 17t-24.5 55l-61 212q-19 65 15 107.5t103 42.5h25q72 0 107 -42t16 -108l-61 -212q-11 -38 -25 -55t-37 -17h-23zM142 -9q-94 0 -94 93v19q0 93 94 93h27q50 0 73 -22.5t23 -70.5v-19q0 -93 -96 -93h-27z" />
    <glyph glyph-name="quotedbl" unicode="&#x22;" horiz-adv-x="519" 
d="M369 310q-44 0 -54 50l-42 196q-10 48 16.5 74.5t91.5 26.5q67 0 93 -26.5t16 -74.5l-42 -196q-10 -50 -54 -50h-25zM124 310q-44 0 -54 50l-42 196q-10 48 16.5 74.5t91.5 26.5q67 0 93 -26.5t16 -74.5l-42 -196q-10 -50 -54 -50h-25z" />
    <glyph glyph-name="numbersign" unicode="#" horiz-adv-x="713" 
d="M96 114q-91 0 -91 68v29q0 67 91 67h57l29 91h-6q-91 0 -91 69v29q0 66 91 66h58l39 124q3 9 20 9q30 0 63 -25.5t33 -66.5q0 -14 -6 -34l-2 -7h82l40 124q3 9 20 9q30 0 63 -25.5t33 -66.5q0 -14 -6 -34l-2 -7h6q91 0 91 -66v-29q0 -69 -91 -69h-58l-29 -91h7
q91 0 91 -67v-29q0 -68 -91 -68h-58l-39 -123q-3 -9 -20 -9q-30 0 -63 25.5t-33 66.5q0 14 6 34l2 6h-83l-39 -123q-3 -9 -20 -9q-30 0 -63 25.5t-33 66.5q0 14 6 34l2 6h-6zM329 369l-29 -91h83l29 91h-83z" />
    <glyph glyph-name="dollar" unicode="$" horiz-adv-x="585" 
d="M298 -105q-51 0 -78 29t-27 84v6q-168 20 -168 124q0 27 16 53.5t32 40.5t19 11q33 -22 85.5 -39.5t93.5 -17.5q34 0 46 5t12 19q0 3 -1 5.5t-4 4.5t-5.5 4t-8 3.5t-9.5 3t-11.5 3l-12.5 2.5t-14.5 3t-15.5 3q-24 5 -42.5 10t-45 14.5t-46 23.5t-38 33t-28 47.5
t-9.5 62.5q0 74 39.5 123.5t115.5 69.5v13q0 55 27 84t78 29h4q105 0 105 -113v-5q144 -21 144 -117q0 -29 -17 -57.5t-34.5 -43t-20.5 -11.5q-81 59 -161 59q-33 0 -45 -5.5t-12 -19.5q0 -3 1.5 -5.5t4.5 -5t6.5 -4.5t9 -3.5t10.5 -3t13 -3t14 -2.5t15.5 -3t16.5 -3
q213 -40 213 -186q0 -156 -158 -197v-15q0 -113 -105 -113h-4z" />
    <glyph glyph-name="percent" unicode="%" horiz-adv-x="746" 
d="M178 331q-79 0 -126 42.5t-47 117.5v6q0 75 47 117.5t126 42.5q78 0 124.5 -42.5t46.5 -117.5v-6q0 -75 -46.5 -117.5t-124.5 -42.5zM155 -15q-5 -5 -27 1t-43.5 23.5t-21.5 40.5q0 21 23 47l505 560q5 5 27 -1t43 -23t21 -40t-22 -48zM570 -15q-79 0 -126 42.5
t-47 117.5v6q0 75 47 117.5t126 42.5q78 0 124.5 -42.5t46.5 -117.5v-6q0 -75 -46.5 -117.5t-124.5 -42.5zM178 434q40 0 40 51v18q0 52 -40 52q-41 0 -41 -52v-18q0 -51 41 -51zM570 88q40 0 40 51v18q0 52 -40 52q-41 0 -41 -52v-18q0 -51 41 -51z" />
    <glyph glyph-name="ampersand" unicode="&#x26;" horiz-adv-x="731" 
d="M272 -15q-124 0 -191.5 50.5t-67.5 145.5q0 57 35 102t96 69q-64 53 -64 125q0 85 66 135t179 50q98 0 156.5 -45.5t58.5 -122.5q0 -50 -34.5 -88.5t-92.5 -55.5l71 -58q9 20 20 60q24 90 107 90q30 0 56 -14.5t37.5 -28.5t10.5 -17q-26 -98 -103 -197l117 -94
q2 -2 -11.5 -26.5t-45 -49.5t-69.5 -25q-70 0 -124 63q-91 -68 -207 -68zM296 140q32 0 66 23l-123 104q-28 -23 -28 -58q0 -32 23 -50.5t62 -18.5zM282 470q0 -34 40 -63q42 19 42 65q0 20 -11.5 32.5t-28.5 12.5q-19 0 -30.5 -13t-11.5 -34z" />
    <glyph glyph-name="quotesingle" unicode="'" horiz-adv-x="274" 
d="M124 310q-44 0 -54 50l-42 196q-10 48 16.5 74.5t91.5 26.5q67 0 93 -26.5t16 -74.5l-42 -196q-10 -50 -54 -50h-25z" />
    <glyph glyph-name="parenleft" unicode="(" horiz-adv-x="471" 
d="M350 -198q-129 0 -227 129t-98 301t98 301t227 129q53 0 83 -27.5t30 -75.5q0 -19 -9.5 -36.5t-18.5 -25.5t-14 -10q-164 -46 -164 -255t164 -255q5 -2 14 -10t18.5 -25.5t9.5 -36.5q0 -48 -30 -75.5t-83 -27.5z" />
    <glyph glyph-name="parenright" unicode=")" horiz-adv-x="471" 
d="M121 -198q-53 0 -83 27.5t-30 75.5q0 19 9.5 36.5t18.5 25.5t14 10q164 46 164 255t-164 255q-5 2 -14 10t-18.5 25.5t-9.5 36.5q0 48 30 75.5t83 27.5q129 0 227 -129t98 -301t-98 -301t-227 -129z" />
    <glyph glyph-name="asterisk" unicode="*" horiz-adv-x="452" 
d="M94 260l-4 2q-45 23 -17 80l31 64l-54 30q-29 16 -35 31.5t2 41.5l1 4q7 28 21.5 37t48.5 4l67 -10l12 62q6 32 20 43t40 11h4q27 0 41 -11t20 -43l10 -62l65 10q34 5 49.5 -5t21.5 -36l1 -4q8 -25 2 -41t-35 -32l-55 -30l32 -64q25 -50 -18 -80l-3 -2q-42 -28 -80 8
l-54 51l-54 -51q-16 -15 -30.5 -19t-23.5 -1t-26 12z" />
    <glyph glyph-name="plus" unicode="+" horiz-adv-x="533" 
d="M96 166q-44 0 -67.5 21.5t-23.5 56.5v9q0 34 24 55.5t67 21.5h83v88q0 44 21.5 67.5t56.5 23.5h19q34 0 55.5 -24t21.5 -67v-88h84q44 0 67.5 -21.5t23.5 -55.5v-9q0 -35 -23.5 -56.5t-67.5 -21.5h-84v-89q0 -44 -21.5 -67.5t-55.5 -23.5h-19q-35 0 -56.5 23.5
t-21.5 67.5v89h-83z" />
    <glyph glyph-name="comma" unicode="," horiz-adv-x="275" 
d="M125 -85q-25 -20 -53.5 -20t-49.5 21t-15 52l26 135q10 51 30 72t72 21h26q89 0 89 -93v-9q0 -56 -52 -107z" />
    <glyph glyph-name="hyphen" unicode="-" horiz-adv-x="503" 
d="M116 141q-43 0 -67 26t-24 62v39q0 35 24 61t67 26h271q43 0 67 -26t24 -61v-39q0 -36 -24 -62t-67 -26h-271z" />
    <glyph glyph-name="period" unicode="." horiz-adv-x="275" 
d="M122 -9q-94 0 -94 93v19q0 93 94 93h27q50 0 73 -22.5t23 -70.5v-19q0 -93 -96 -93h-27z" />
    <glyph glyph-name="slash" unicode="/" horiz-adv-x="402" 
d="M91 -224q-44 0 -76.5 17.5t-32.5 61.5q0 21 8 46l247 756q3 8 52 8q44 0 76.5 -17.5t32.5 -61.5q0 -21 -8 -46l-247 -756q-3 -8 -52 -8z" />
    <glyph glyph-name="zero" unicode="0" horiz-adv-x="661" 
d="M331 -15q-147 0 -230.5 83t-83.5 226v60q0 141 83.5 224.5t230.5 83.5t230 -83t83 -225v-60q0 -143 -83 -226t-230 -83zM331 180q35 0 51 21.5t16 68.5v109q0 48 -16 69.5t-51 21.5q-37 0 -52.5 -21t-15.5 -70v-109q0 -48 16 -69t52 -21z" />
    <glyph glyph-name="one" unicode="1" horiz-adv-x="444" 
d="M265 -10q-103 0 -103 113v284q-21 -7 -38 -7q-47 0 -78.5 32.5t-31.5 81.5q0 37 14 64.5t28.5 38t19.5 7.5q35 -18 66 -18q33 0 58 18.5t35 52.5h60q107 0 107 -113v-441q0 -113 -107 -113h-30z" />
    <glyph glyph-name="two" unicode="2" horiz-adv-x="596" 
d="M408 252q-22 -7 -60.5 -17.5t-65 -20t-42.5 -21.5h226q62 0 88.5 -22.5t26.5 -66.5v-8q0 -48 -26.5 -71.5t-88.5 -23.5h-296q-90 0 -118 20.5t-28 94.5v44q0 118 198 205q17 7 39.5 16t34 14t24 11t17.5 12.5t5 14.5q0 22 -14 31.5t-46 9.5q-39 0 -66.5 -27.5
t-32.5 -62.5h-9q-8 -1 -22 0.5t-31 4.5t-33.5 11t-30.5 19t-22.5 29.5t-8.5 42.5q0 82 71 126.5t200 44.5q137 0 209 -56.5t72 -159.5q0 -46 -13 -79t-40 -55t-52 -34t-65 -26z" />
    <glyph glyph-name="three" unicode="3" horiz-adv-x="602" 
d="M586 189q0 -98 -78.5 -151t-226.5 -53q-122 0 -196 42t-74 112q0 34 15 58t36 34.5t42 15.5t36 4t16 -4q19 -81 122 -81q37 0 58 12t21 33q0 19 -10 26.5t-33 7.5h-8q-58 0 -85 18.5t-27 58.5v13q0 78 110 78h23q12 0 20 7.5t8 19.5q0 19 -21.5 30t-58.5 11
q-101 0 -114 -81q0 -3 -14.5 -4.5t-35.5 3t-41.5 14.5t-35 35t-14.5 60q0 71 69.5 112.5t190.5 41.5q147 0 223 -47t76 -138q0 -92 -119 -128q126 -42 126 -160z" />
    <glyph glyph-name="four" unicode="4" horiz-adv-x="646" 
d="M411 -10q-98 0 -98 113v24h-183q-58 0 -91.5 26.5t-33.5 69.5v30q1 47 34 104l127 225q26 48 63 61.5t132 13.5q93 0 132.5 -34.5t39.5 -123.5v-200h3q57 0 80 -18.5t23 -62.5v-5q0 -48 -23 -67t-80 -19h-3v-24q0 -113 -102 -113h-20zM323 501l-117 -207h117v207z" />
    <glyph glyph-name="five" unicode="5" horiz-adv-x="578" 
d="M221 457v-57q40 12 86 12q118 0 186.5 -54.5t68.5 -152.5q0 -100 -77.5 -160t-211.5 -60q-127 0 -196 35.5t-69 89.5q0 28 20 56t40.5 42.5t24.5 10.5q78 -65 172 -65q89 0 89 55q0 29 -21.5 42t-70.5 13q-57 0 -96 -29q-70 0 -105 31t-35 103v142q0 70 25.5 103t86.5 33
h288q117 0 117 -93v-5q0 -49 -28 -70.5t-89 -21.5h-205z" />
    <glyph glyph-name="six" unicode="6" horiz-adv-x="637" 
d="M371 473q-62 0 -87.5 -28.5t-26.5 -95.5q47 61 155 61q97 0 154.5 -46.5t57.5 -134.5v-5q0 -108 -80.5 -173.5t-211.5 -65.5q-144 0 -229.5 85.5t-85.5 230.5v40q0 148 88.5 234.5t243.5 86.5q120 0 185.5 -39t65.5 -111q0 -43 -28.5 -67.5t-56.5 -30t-30 -1.5
q-32 60 -114 60zM328 276q-34 0 -65 -23v-7q0 -43 18.5 -66t49.5 -23q25 0 43 15.5t18 39.5v5q0 29 -17 44t-47 15z" />
    <glyph glyph-name="seven" unicode="7" horiz-adv-x="576" 
d="M6 546v13q0 48 26 68t81 20h279q100 0 133.5 -34t33.5 -93v-13q0 -20 -5 -40.5t-16.5 -44.5t-18 -36.5t-22.5 -38.5t-17 -28l-143 -244q-50 -85 -125 -85q-36 0 -71 17.5t-53 37t-13 27.5l224 381h-186q-55 0 -81 21t-26 72z" />
    <glyph glyph-name="eight" unicode="8" horiz-adv-x="638" 
d="M317 -12q-145 0 -223 50t-78 144q0 114 133 149q-114 35 -114 142q0 86 79 139.5t207 53.5q127 0 202 -52.5t75 -140.5q0 -104 -111 -140q135 -34 135 -151q0 -92 -80.5 -143t-224.5 -51zM319 152q29 0 48 18t19 45q0 28 -18.5 45t-48.5 17q-29 0 -48 -17t-19 -45
t18.5 -45.5t48.5 -17.5zM319 381q25 0 43.5 17.5t18.5 41.5t-18 41t-44 17t-44 -17t-18 -41q0 -25 18 -42t44 -17z" />
    <glyph glyph-name="nine" unicode="9" horiz-adv-x="637" 
d="M380 292l-1 4q-46 -66 -154 -66q-98 0 -155 49.5t-57 133.5v5q0 108 80.5 175.5t211.5 67.5q144 0 229.5 -84t85.5 -230v-50q0 -150 -88 -231.5t-249 -81.5q-245 0 -245 123q0 27 6.5 48.5t15.5 33.5t19 20t17 10t9 1q69 -47 156 -47q64 0 91.5 27.5t27.5 91.5zM309 364
q32 0 65 26v10q0 42 -18 65.5t-50 23.5q-25 0 -43 -17.5t-18 -41.5v-5q0 -29 17 -45t47 -16z" />
    <glyph glyph-name="colon" unicode=":" horiz-adv-x="275" 
d="M122 254q-94 0 -94 93v19q0 93 94 93h27q50 0 73 -22.5t23 -70.5v-19q0 -48 -23 -70.5t-73 -22.5h-27zM122 -9q-94 0 -94 93v19q0 93 94 93h27q50 0 73 -22.5t23 -70.5v-19q0 -93 -96 -93h-27z" />
    <glyph glyph-name="semicolon" unicode=";" horiz-adv-x="275" 
d="M122 254q-94 0 -94 93v19q0 93 94 93h27q50 0 73 -22.5t23 -70.5v-19q0 -48 -23 -70.5t-73 -22.5h-27zM125 -85q-25 -20 -53.5 -20t-49.5 21t-15 52l26 135q10 51 30 72t72 21h26q89 0 89 -93v-9q0 -56 -52 -107z" />
    <glyph glyph-name="less" unicode="&#x3c;" horiz-adv-x="448" 
d="M264 250l77 -36q82 -39 82 -111q0 -26 -11.5 -53t-24.5 -41.5t-18 -11.5l-276 149q-29 16 -48.5 43t-19.5 59q0 34 19.5 61.5t48.5 43.5l276 151q5 2 17.5 -12t24 -40.5t11.5 -53.5q0 -75 -81 -112z" />
    <glyph glyph-name="equal" unicode="=" horiz-adv-x="533" 
d="M116 284q-43 0 -67 26t-24 62v19q0 35 24 61t67 26h301q43 0 67 -26t24 -61v-19q0 -36 -24 -62t-67 -26h-301zM116 24q-43 0 -67 26t-24 62v19q0 35 24 61t67 26h301q43 0 67 -26t24 -61v-19q0 -36 -24 -62t-67 -26h-301z" />
    <glyph glyph-name="greater" unicode="&#x3e;" horiz-adv-x="448" 
d="M25 103q0 72 82 111l76 36l-76 36q-81 37 -81 112q0 27 11.5 53.5t24 40.5t17.5 12l276 -151q29 -16 48.5 -43.5t19.5 -61.5q0 -32 -19.5 -59t-48.5 -43l-276 -149q-5 -3 -18 11.5t-24.5 41.5t-11.5 53z" />
    <glyph glyph-name="question" unicode="?" horiz-adv-x="542" 
d="M255 218q-45 0 -71.5 21.5t-26.5 61.5q0 43 24 69.5t53.5 35t53.5 19t24 23.5q0 29 -49 29q-42 0 -70 -26t-33 -63q0 -1 -16 -1.5t-38 3.5t-44.5 13.5t-38.5 33t-16 57.5q0 74 70 120.5t189 46.5q125 0 195 -52t70 -146q0 -46 -17 -79t-42 -49.5t-50.5 -27.5t-47 -23
t-26.5 -27q-14 -39 -93 -39zM239 -9q-94 0 -94 93v19q0 93 94 93h27q50 0 73 -22.5t23 -70.5v-19q0 -93 -96 -93h-27z" />
    <glyph glyph-name="at" unicode="@" horiz-adv-x="733" 
d="M314 166q-62 0 -95.5 42.5t-33.5 106.5q0 68 36 110t92 42q53 0 86 -48q19 45 74 45q13 0 24.5 -3t18 -6.5t6.5 -6.5v-142q0 -32 10 -42t30 -10q26 0 47 25.5t21 87.5q0 93 -63 158.5t-195 65.5q-118 0 -193.5 -75.5t-75.5 -191.5q0 -117 73 -192.5t191 -75.5
q113 0 186 73q17 17 33 17q14 0 25.5 -11t16.5 -22.5t4 -12.5q-102 -115 -265 -115q-151 0 -245.5 95t-94.5 244q0 148 96.5 243t248.5 95q160 0 247 -85t87 -207q0 -98 -49 -149.5t-142 -51.5q-83 0 -113 59q-8 -28 -32.5 -45t-55.5 -17zM353 269q34 0 37 28v48
q-14 19 -36 19q-19 0 -31 -13.5t-12 -35.5q0 -21 11.5 -33.5t30.5 -12.5z" />
    <glyph glyph-name="A" unicode="A" horiz-adv-x="714" 
d="M447 106l-1 2h-184l-2 -5q-41 -114 -133 -114q-46 0 -89 29t-36 47l201 521q9 32 42.5 49t110.5 17q76 0 107.5 -17t40.5 -49l212 -518q5 -11 -12.5 -29.5t-50.5 -33.5t-67 -15q-94 0 -139 116zM352 427l-54 -147h108z" />
    <glyph glyph-name="B" unicode="B" horiz-adv-x="679" 
d="M159 0q-124 0 -124 136v375q0 136 124 136h240q118 0 180 -41.5t62 -118.5q0 -107 -120 -133q141 -33 141 -164q0 -101 -69 -145.5t-228 -44.5h-206zM275 385h48q72 0 72 54q0 49 -67 49h-53v-103zM275 159h64q41 0 59 14t18 45q0 30 -18.5 42t-62.5 12h-60v-113z" />
    <glyph glyph-name="C" unicode="C" horiz-adv-x="646" 
d="M367 -15q-154 0 -249.5 95t-95.5 244q0 148 96 243t249 95q131 0 195 -53t64 -116q0 -28 -14.5 -51t-34 -35t-41 -21.5t-35.5 -9.5h-16q-30 61 -103 61q-47 0 -78 -30.5t-31 -82.5t31 -83t78 -31q73 0 103 61h16t35.5 -9.5t41 -21.5t34 -35t14.5 -51q0 -63 -64 -116
t-195 -53z" />
    <glyph glyph-name="D" unicode="D" horiz-adv-x="696" 
d="M171 0q-57 0 -96.5 39t-39.5 95v377q0 66 34.5 101t91.5 35h177q157 0 249 -86.5t92 -233.5q0 -149 -93.5 -238t-250.5 -89h-164zM277 207h50q49 0 80.5 32t31.5 88q0 54 -29.5 83.5t-79.5 29.5h-53v-233z" />
    <glyph glyph-name="E" unicode="E" horiz-adv-x="629" 
d="M159 0q-124 0 -124 134v377q0 136 124 136h330q58 0 85.5 -22.5t27.5 -70.5v-5q0 -50 -27 -71t-86 -21h-209v-43h123q61 0 87 -19.5t26 -63.5v-3q0 -47 -26.5 -68t-86.5 -21h-123v-51h213q59 0 86 -19.5t27 -66.5v-5q0 -50 -27 -73.5t-86 -23.5h-334z" />
    <glyph glyph-name="F" unicode="F" horiz-adv-x="584" 
d="M138 -4q-50 0 -76.5 38t-26.5 106v371q0 136 124 136h300q58 0 85.5 -22.5t27.5 -70.5v-5q0 -50 -27 -73.5t-86 -23.5h-184v-68h118q60 0 86.5 -21.5t26.5 -66.5v-3q0 -48 -27 -71t-86 -23h-108v-90q0 -113 -107 -113h-40z" />
    <glyph glyph-name="G" unicode="G" horiz-adv-x="735" 
d="M625 -5q-90 0 -117 83q-50 -88 -182 -88t-218 94.5t-86 239.5q0 148 100.5 243t263.5 95q124 0 192.5 -41t68.5 -116q0 -38 -29 -66t-57.5 -37.5t-33.5 -4.5q-51 56 -124 56q-57 0 -96 -39.5t-39 -102.5q0 -65 36 -103.5t89 -38.5q67 0 89 40h-21q-60 0 -86.5 17.5
t-26.5 65.5v10q0 50 26 66t87 16h171q48 0 62 -20.5t13 -75.5v-269q0 -4 -11 -9.5t-31 -10t-40 -4.5z" />
    <glyph glyph-name="H" unicode="H" horiz-adv-x="707" 
d="M138 -5q-103 0 -103 113v431q0 113 103 113h36q107 0 107 -113v-112h146v112q0 113 103 113h36q107 0 107 -113v-431q0 -113 -107 -113h-36q-103 0 -103 113v116h-146v-116q0 -113 -107 -113h-36z" />
    <glyph glyph-name="I" unicode="I" horiz-adv-x="327" 
d="M144 -5q-103 0 -103 113v431q0 113 103 113h35q107 0 107 -113v-431q0 -113 -107 -113h-35z" />
    <glyph glyph-name="J" unicode="J" horiz-adv-x="571" 
d="M245 -15q-234 0 -234 141q0 25 7.5 46.5t18 35t21.5 22.5t19 12.5t9 2.5q51 -53 119 -53q41 0 58.5 19.5t17.5 67.5v260q0 113 103 113h35q107 0 107 -113v-264q0 -290 -281 -290z" />
    <glyph glyph-name="K" unicode="K" horiz-adv-x="684" 
d="M138 -5q-103 0 -103 113v431q0 113 103 113h35q107 0 107 -113v-153l109 183q54 83 133 83q36 0 72 -19t54.5 -39.5t14.5 -29.5l-155 -235l165 -247q4 -9 -15 -29.5t-57 -39t-77 -18.5q-79 0 -134 83l-110 179v-149q0 -113 -107 -113h-35z" />
    <glyph glyph-name="L" unicode="L" horiz-adv-x="562" 
d="M159 0q-124 0 -124 134v405q0 113 103 113h35q107 0 107 -113v-328h158q113 0 113 -101v-3q0 -107 -113 -107h-279z" />
    <glyph glyph-name="M" unicode="M" horiz-adv-x="782" 
d="M130 -5q-95 0 -95 113v431q0 113 103 113h70q44 0 64.5 -11.5t34.5 -43.5l84 -220l84 220q15 34 35.5 44.5t59.5 10.5h70q107 0 107 -113v-431q0 -57 -22 -85t-73 -28h-40q-95 0 -95 113v188l-33 -131l-3.5 -10.5t-4 -10.5t-5.5 -9t-10 -8.5t-15 -6t-23 -5t-33 -1.5
q-22 0 -37.5 2.5t-24 5t-14.5 9t-7.5 10t-4.5 12.5l-4 12l-33 120v-177q0 -57 -22 -85t-73 -28h-40z" />
    <glyph glyph-name="N" unicode="N" horiz-adv-x="712" 
d="M138 -5q-103 0 -103 113v436q0 108 97 108h20q39 0 58 -10t45 -40l192 -234v171q0 113 107 113h20q103 0 103 -113v-436q0 -108 -97 -108h-20q-39 0 -58.5 10t-44.5 40l-192 229v-166q0 -113 -107 -113h-20z" />
    <glyph glyph-name="O" unicode="O" horiz-adv-x="729" 
d="M365 -15q-152 0 -250 95.5t-98 243.5q0 147 98.5 242.5t249.5 95.5t249 -95.5t98 -242.5q0 -148 -98 -243.5t-249 -95.5zM365 204q49 0 78 32t29 88t-29 88.5t-78 32.5q-51 0 -79.5 -31.5t-28.5 -89.5q0 -56 29 -88t79 -32z" />
    <glyph glyph-name="P" unicode="P" horiz-adv-x="634" 
d="M138 -5q-49 0 -76 29t-27 84v403q0 136 124 136h172q148 0 225 -62.5t77 -185.5q0 -241 -291 -241h-61v-50q0 -55 -27.5 -84t-79.5 -29h-36zM277 466v-133h52q68 0 68 66q0 67 -73 67h-47z" />
    <glyph glyph-name="Q" unicode="Q" horiz-adv-x="733" 
d="M608 -15q-46 0 -96 33q-71 -33 -145 -33q-153 0 -251.5 95.5t-98.5 243.5q0 147 99 242.5t251 95.5t250.5 -95t98.5 -243q0 -89 -52 -172l80 -89q3 -4 -12.5 -22.5t-50 -37t-73.5 -18.5zM388 317q44 36 98 7q0 53 -31 87.5t-83 34.5q-54 0 -84.5 -34.5t-30.5 -89.5
q0 -52 29.5 -85t76.5 -34q-29 69 20 110z" />
    <glyph glyph-name="R" unicode="R" horiz-adv-x="677" 
d="M520 -5q-56 0 -90 23.5t-76 81.5l-64 88h-10v-80q0 -113 -107 -113h-35q-50 0 -76.5 38t-26.5 106v372q0 136 124 136h207q282 0 282 -221q0 -137 -120 -186l131 -164q2 -3 -1.5 -12t-14.5 -20.5t-26.5 -22.5t-41 -18.5t-55.5 -7.5zM276 465v-117h60q68 0 68 58
q0 59 -69 59h-59z" />
    <glyph glyph-name="S" unicode="S" horiz-adv-x="604" 
d="M278 -15q-265 0 -265 135q0 25 17 54t35.5 45.5t22.5 13.5q35 -24 91 -43.5t99 -19.5q67 0 67 28q0 5 -2 9t-7.5 7.5t-10.5 5.5t-14.5 4.5t-17 3.5t-21 3.5t-22.5 4.5q-47 9 -82.5 22.5t-69.5 36t-52.5 59t-18.5 85.5q0 108 75 165.5t220 57.5q130 0 192.5 -35t62.5 -92
q0 -29 -19.5 -59.5t-39.5 -47t-23 -13.5q-36 27 -82.5 44.5t-87.5 17.5q-36 0 -50.5 -6.5t-14.5 -21.5q0 -6 4.5 -10.5t16 -8t21.5 -5.5t29.5 -5t32.5 -6q109 -23 168.5 -71t59.5 -130q0 -228 -314 -228z" />
    <glyph glyph-name="T" unicode="T" horiz-adv-x="631" 
d="M118 436q-113 0 -113 107v3q0 101 113 101h395q113 0 113 -101v-3q0 -107 -113 -107h-73v-328q0 -55 -28 -84t-81 -29h-35q-101 0 -101 113v328h-77z" />
    <glyph glyph-name="U" unicode="U" horiz-adv-x="692" 
d="M346 -10q-311 0 -311 303v246q0 56 28.5 84.5t79.5 28.5h30q107 0 107 -113v-248q0 -90 67 -90q34 0 49.5 21.5t15.5 68.5v248q0 56 28.5 84.5t79.5 28.5h30q107 0 107 -113v-246q0 -303 -311 -303z" />
    <glyph glyph-name="V" unicode="V" horiz-adv-x="699" 
d="M154 652q47 0 83 -31t51 -83l67 -229l66 229q16 56 51.5 85t78.5 29q37 0 74 -16.5t56.5 -36.5t14.5 -32l-205 -480q-21 -49 -53.5 -70.5t-85.5 -21.5t-84 20.5t-53 71.5l-213 480q-5 12 16 32t59.5 36.5t76.5 16.5z" />
    <glyph glyph-name="W" unicode="W" horiz-adv-x="1009" 
d="M312 -5q-56 0 -89 20t-48 72l-153 477q-2 7 13.5 26.5t54 39t86.5 19.5q43 0 81 -29t51 -99l31 -190l44 183q9 42 44.5 63.5t83.5 21.5q45 0 81 -23t44 -62l44 -183l30 194q11 65 48.5 95t83.5 30q28 0 53 -8t41.5 -19t28.5 -23.5t17 -22t4 -13.5l-146 -477
q-25 -92 -139 -92q-56 0 -91 20.5t-50 71.5l-54 199l-50 -199q-25 -92 -144 -92z" />
    <glyph glyph-name="X" unicode="X" horiz-adv-x="701" 
d="M172 650q82 0 130 -90l50 -94l51 94q23 44 58.5 66.5t73.5 22.5q39 0 78 -18.5t60 -39t17 -29.5l-171 -243l171 -242q4 -9 -17.5 -29.5t-62 -39t-79.5 -18.5q-85 0 -133 90l-51 93l-50 -93q-48 -90 -132 -90q-39 0 -78 18.5t-60 39t-17 29.5l170 242l-170 243
q-4 9 18 29.5t63.5 39.5t80.5 19z" />
    <glyph glyph-name="Y" unicode="Y" horiz-adv-x="669" 
d="M317 -5q-103 0 -103 113v141l-222 310q-2 4 1.5 14t15.5 23t30 25t47.5 20.5t65.5 8.5q68 0 114 -85l70 -127l75 127q49 86 115 86q32 0 59.5 -8.5t45 -21t29.5 -26t16 -23.5t2 -13l-219 -310v-141q0 -113 -107 -113h-35z" />
    <glyph glyph-name="Z" unicode="Z" horiz-adv-x="627" 
d="M140 0q-59 0 -88 27t-29 65v10q0 33 9 58t17.5 36t30.5 34l204 217h-144q-54 0 -80.5 22t-26.5 73v10q0 95 107 95h350q59 0 88 -27t29 -65v-10q0 -33 -8.5 -57.5t-17.5 -36.5t-31 -34l-210 -217h162q55 0 81.5 -22t26.5 -73v-10q0 -95 -108 -95h-362z" />
    <glyph glyph-name="bracketleft" unicode="[" horiz-adv-x="434" 
d="M159 -200q-124 0 -124 134v592q0 136 124 136h150q59 0 86 -20.5t27 -67.5v-5q0 -50 -27 -71t-86 -21h-59v-494h63q59 0 86 -19.5t27 -66.5v-5q0 -50 -27 -71t-86 -21h-154z" />
    <glyph glyph-name="backslash" unicode="\" horiz-adv-x="402" 
d="M310 -224q-49 0 -52 8l-247 756q-8 25 -8 46q0 44 32.5 61.5t76.5 17.5q49 0 52 -8l247 -756q8 -25 8 -46q0 -44 -32.5 -61.5t-76.5 -17.5z" />
    <glyph glyph-name="bracketright" unicode="]" horiz-adv-x="434" 
d="M121 -200q-59 0 -86 21t-27 71v5q0 47 27 66.5t86 19.5h63v494h-59q-59 0 -86 21t-27 71v5q0 47 27 67.5t86 20.5h150q124 0 124 -136v-592q0 -134 -124 -134h-154z" />
    <glyph glyph-name="asciicircum" unicode="^" horiz-adv-x="500" 
d="M148 435q-33 0 -54 20t-21 50q0 53 54 96t123 62q69 -19 123 -62t54 -96q0 -30 -21 -50t-54 -20q-34 0 -62 23t-40 60q-12 -37 -40.5 -60t-61.5 -23z" />
    <glyph glyph-name="underscore" unicode="_" horiz-adv-x="533" 
d="M96 -164q-44 0 -67.5 21.5t-23.5 56.5v9q0 34 24 55.5t67 21.5h341q44 0 67.5 -21.5t23.5 -55.5v-9q0 -35 -23.5 -56.5t-67.5 -21.5h-341z" />
    <glyph glyph-name="grave" unicode="`" horiz-adv-x="500" 
d="M135 563q-29 15 -46.5 45.5t-17.5 61.5q0 38 30.5 63.5t74.5 25.5q29 0 56 -15q46 -25 79.5 -89t23.5 -83q-6 -12 -35 -22.5t-76 -9.5t-89 23z" />
    <glyph glyph-name="a" unicode="a" horiz-adv-x="597" 
d="M181 -10q-74 0 -119.5 39.5t-45.5 104.5q0 79 77 120.5t217 41.5h24q-1 55 -59 55q-66 0 -83 -48q0 -2 -16.5 -4t-39.5 -0.5t-46 8t-39 25t-16 47.5q0 70 60 101.5t193 31.5q145 0 211 -55t66 -170v-271q0 -10 -29 -18.5t-63 -8.5q-96 0 -127 86q-22 -40 -65.5 -62.5
t-99.5 -22.5zM270 123q28 0 45 14t19 39v30h-27q-80 0 -80 -45q0 -18 12 -28t31 -10z" />
    <glyph glyph-name="b" unicode="b" horiz-adv-x="649" 
d="M405 -15q-48 0 -84.5 25t-53.5 66q-13 -81 -100 -81h-24q-51 0 -79 25.5t-28 87.5v577q0 4 12.5 10.5t34.5 11.5t44 5q27 0 50.5 -8t45.5 -26.5t34.5 -54t12.5 -85.5v-89q45 63 134 63q105 0 166 -70.5t61 -191.5q0 -118 -61.5 -191.5t-164.5 -73.5zM336 165
q34 0 54.5 23t20.5 60q0 40 -20 62t-55 22q-45 0 -66 -37v-68q0 -62 66 -62z" />
    <glyph glyph-name="c" unicode="c" horiz-adv-x="510" 
d="M288 -15q-123 0 -196.5 72.5t-73.5 191.5q0 115 75 188.5t195 73.5q58 0 101.5 -13.5t66.5 -34.5t34 -42.5t11 -42.5q0 -41 -30 -66.5t-59.5 -32t-32.5 -0.5q-20 52 -77 52q-34 0 -55.5 -23t-21.5 -59q0 -37 21.5 -60.5t55.5 -23.5q58 0 77 52q2 6 32 0.5t60 -31.5
t30 -70q0 -47 -54 -89t-159 -42z" />
    <glyph glyph-name="d" unicode="d" horiz-adv-x="649" 
d="M244 -15q-103 0 -164.5 73.5t-61.5 191.5q0 121 61 191.5t166 70.5q87 0 134 -63v236q0 4 12.5 10.5t34.5 11.5t44 5q27 0 50.5 -8t45.5 -26.5t34.5 -54t12.5 -85.5v-430q0 -113 -103 -113h-24q-92 0 -105 81q-16 -42 -52.5 -66.5t-84.5 -24.5zM313 165q66 0 66 63v69
q-22 35 -63 35q-36 0 -57 -22t-21 -62q0 -37 20.5 -60t54.5 -23z" />
    <glyph glyph-name="e" unicode="e" horiz-adv-x="574" 
d="M304 -15q-134 0 -210 68.5t-76 190.5q0 116 76.5 192t195.5 76q117 0 193 -71t76 -178v-10q-2 -54 -42 -54h-303q18 -60 99 -60q37 0 65.5 14t40.5 37q0 3 26.5 -1t53.5 -25t27 -60q0 -57 -57.5 -88t-164.5 -31zM287 368q-29 0 -48.5 -20t-21.5 -50h137q-3 70 -67 70z
" />
    <glyph glyph-name="f" unicode="f" horiz-adv-x="444" 
d="M94 329q-93 0 -93 83v12q0 78 93 78h4v4q0 118 54 164t151 46q79 0 118.5 -29.5t39.5 -73.5q0 -22 -10 -44.5t-20.5 -34.5t-12.5 -10q-24 22 -56 22q-40 0 -40 -36v-8h24q93 0 93 -83v-12q0 -78 -93 -78h-14v-221q0 -62 -27 -87.5t-78 -25.5h-24q-105 0 -105 113v221h-4z
" />
    <glyph glyph-name="g" unicode="g" horiz-adv-x="563" 
d="M275 -211q-149 0 -218 33.5t-69 101.5q0 52 41 84.5t110 40.5q-15 17 -15 44q0 21 13 38.5t34 25.5q-73 17 -112 59.5t-39 104.5q0 84 72.5 137t186.5 53q43 0 80 -9l14 31q34 72 99 72q35 0 62.5 -23.5t38.5 -47t7 -26.5l-88 -77q47 -49 47 -110q0 -80 -63 -125.5
t-178 -49.5q4 -7 20 -12t49 -12t54 -13q142 -41 142 -152q0 -76 -76.5 -122t-211.5 -46zM279 263q25 0 41 16.5t16 43.5t-16 42.5t-41 15.5t-41 -16t-16 -42q0 -27 16 -43.5t41 -16.5zM354 -79q0 17 -19 26.5t-62 18.5q-77 -8 -77 -46t83 -38q75 0 75 39z" />
    <glyph glyph-name="h" unicode="h" horiz-adv-x="626" 
d="M270 538v-117q49 91 153 91q90 0 131 -58t41 -143v-203q0 -113 -103 -113h-24q-51 0 -79 25.5t-28 87.5v164q0 52 -42 52q-49 0 -49 -54v-162q0 -113 -103 -113h-24q-51 0 -79 25.5t-28 87.5v577q0 4 12.5 10.5t34.5 11.5t44 5q27 0 50.5 -8t45.5 -26.5t34.5 -54
t12.5 -85.5z" />
    <glyph glyph-name="i" unicode="i" horiz-adv-x="312" 
d="M158 538q-57 0 -90.5 28.5t-33.5 77.5q0 48 32.5 77t87.5 29q57 0 90.5 -28.5t33.5 -77.5q0 -48 -32.5 -77t-87.5 -29zM146 -5q-51 0 -79 25.5t-28 87.5v287q0 113 105 113h24q51 0 78 -25.5t27 -87.5v-287q0 -113 -103 -113h-24z" />
    <glyph glyph-name="j" unicode="j" horiz-adv-x="312" 
d="M158 538q-57 0 -90.5 28.5t-33.5 77.5q0 48 32.5 77t87.5 29q57 0 90.5 -28.5t33.5 -77.5q0 -48 -32.5 -77t-87.5 -29zM75 -200q-151 0 -151 113q0 22 10.5 42.5t20.5 31.5t12 9q13 -18 40 -18q32 0 32 30v387q0 113 105 113h24q51 0 78 -25.5t27 -87.5v-398
q0 -94 -51.5 -145.5t-146.5 -51.5z" />
    <glyph glyph-name="k" unicode="k" horiz-adv-x="600" 
d="M143 -5q-51 0 -79 25.5t-28 87.5v577q0 4 12.5 10.5t34.5 11.5t44 5q27 0 50.5 -8t45.5 -26.5t34.5 -54t12.5 -85.5v-220l69 124q41 69 119 69q32 0 64.5 -14.5t49.5 -30.5t14 -23l-118 -187l126 -199q3 -7 -15.5 -22.5t-51 -29.5t-63.5 -14q-84 0 -125 69l-69 122v-74
q0 -113 -103 -113h-24z" />
    <glyph glyph-name="l" unicode="l" horiz-adv-x="312" 
d="M146 -5q-51 0 -79 25.5t-28 87.5v577q0 4 12.5 10.5t34.5 11.5t44 5q27 0 50.5 -8t45.5 -26.5t34.5 -54t12.5 -85.5v-430q0 -113 -103 -113h-24z" />
    <glyph glyph-name="m" unicode="m" horiz-adv-x="927" 
d="M127 508q100 0 131 -92q30 47 66 71.5t93 24.5q118 0 153 -98q30 48 66 73t94 25q90 0 128 -52t38 -134v-218q0 -113 -103 -113h-24q-51 0 -79 25.5t-28 87.5v173q0 43 -38 43q-23 0 -41 -16v-200q0 -113 -103 -113h-24q-51 0 -79 25.5t-28 87.5v173q0 43 -38 43
q-23 0 -41 -16v-200q0 -113 -103 -113h-24q-51 0 -79 25.5t-28 87.5v373q0 4 12.5 10.5t34.5 11.5t44 5z" />
    <glyph glyph-name="n" unicode="n" horiz-adv-x="626" 
d="M127 508q100 0 131 -92q64 96 165 96q90 0 131 -55t41 -136v-213q0 -113 -103 -113h-24q-51 0 -79 25.5t-28 87.5v170q0 21 -11.5 33.5t-31.5 12.5q-29 0 -48 -19v-197q0 -113 -103 -113h-24q-51 0 -79 25.5t-28 87.5v373q0 4 12.5 10.5t34.5 11.5t44 5z" />
    <glyph glyph-name="o" unicode="o" horiz-adv-x="594" 
d="M295 -15q-128 0 -202.5 71t-74.5 193q0 119 77 191t204 72t202 -71.5t75 -191.5q0 -121 -76 -192.5t-205 -71.5zM297 162q37 0 60.5 24.5t23.5 62.5q0 39 -23.5 63.5t-60.5 24.5t-60.5 -24.5t-23.5 -63.5t23 -63t61 -24z" />
    <glyph glyph-name="p" unicode="p" horiz-adv-x="649" 
d="M143 -192q-51 0 -79 25.5t-28 87.5v560q0 4 12.5 10.5t34.5 11.5t44 5q104 0 133 -96q12 45 51.5 72.5t92.5 27.5q105 0 166 -70.5t61 -191.5q0 -118 -61.5 -191.5t-164.5 -73.5q-46 0 -82 23t-53 62v-149q0 -113 -103 -113h-24zM336 165q34 0 54.5 23t20.5 60
q0 40 -20 62t-55 22q-45 0 -66 -37v-73q3 -57 66 -57z" />
    <glyph glyph-name="q" unicode="q" horiz-adv-x="649" 
d="M482 -192q-103 0 -103 113v149q-18 -39 -53.5 -62t-81.5 -23q-103 0 -164.5 73.5t-61.5 191.5q0 121 61 191.5t166 70.5q50 0 90.5 -24.5t57.5 -63.5q34 84 129 84q22 0 44 -5t34.5 -11.5t12.5 -10.5v-560q0 -62 -28 -87.5t-79 -25.5h-24zM313 165q66 0 66 63v69
q-22 35 -63 35q-36 0 -57 -22t-21 -62q0 -37 20.5 -60t54.5 -23z" />
    <glyph glyph-name="r" unicode="r" horiz-adv-x="510" 
d="M127 508q100 0 131 -92q12 42 44 69t76 27q53 0 85 -33t32 -88q0 -27 -8 -49.5t-19 -36t-22.5 -22.5t-19.5 -12.5t-9 -2.5q-32 28 -72 28q-75 0 -75 -93v-95q0 -113 -103 -113h-24q-51 0 -79 25.5t-28 87.5v373q0 4 12.5 10.5t34.5 11.5t44 5z" />
    <glyph glyph-name="s" unicode="s" horiz-adv-x="504" 
d="M238 -10q-122 0 -176.5 28t-54.5 90q0 21 12 42t24 31t14 8q28 -22 71.5 -37t88.5 -15q41 0 41 16q0 11 -49 22l-12 3q-82 18 -116 41q-62 41 -62 121t60.5 125.5t170.5 45.5q223 0 223 -121q0 -23 -13.5 -45.5t-26.5 -33.5t-16 -9q-30 26 -71 43.5t-76 17.5
q-39 0 -39 -18q0 -4 3 -7t10.5 -5.5t14.5 -4t20 -4t22 -4.5q88 -19 125 -45q59 -41 60 -115q0 -83 -62.5 -126.5t-185.5 -43.5z" />
    <glyph glyph-name="t" unicode="t" horiz-adv-x="470" 
d="M286 -15q-188 0 -188 187v157q-93 0 -93 78v12q0 83 93 83v37q0 55 27 84t78 29h19q51 0 78.5 -25.5t26.5 -87.5v-37h34q90 0 90 -78v-12q0 -83 -93 -83h-36v-131q0 -33 33 -33q28 0 48 29q2 3 14 -6t23.5 -30.5t11.5 -46.5q0 -57 -45.5 -91.5t-120.5 -34.5z" />
    <glyph glyph-name="u" unicode="u" horiz-adv-x="626" 
d="M499 -5q-99 0 -131 89q-63 -98 -165 -98q-90 0 -131 55t-41 136v218q0 113 103 113h24q51 0 79 -25.5t28 -87.5v-175q0 -21 11.5 -33.5t31.5 -12.5q29 0 48 19v202q0 113 103 113h24q51 0 79 -25.5t28 -87.5v-373q0 -4 -12.5 -10.5t-34.5 -11.5t-44 -5z" />
    <glyph glyph-name="v" unicode="v" horiz-adv-x="603" 
d="M303 238l51 171q30 101 115 101q31 0 63.5 -14.5t50 -30.5t14.5 -23l-174 -398q-12 -28 -48 -39t-71 -11q-36 0 -73 11t-49 39l-177 398q-3 6 16 22.5t52 31t63 14.5q90 0 118 -101z" />
    <glyph glyph-name="w" unicode="w" horiz-adv-x="854" 
d="M256 -6q-89 0 -111 60l-140 388q-3 7 19.5 23.5t58.5 30.5t65 14q89 0 103 -81l28 -190l49 170q9 33 40 52t69 19t67.5 -19t37.5 -52l40 -157l28 177q8 43 35 62t62 19q31 0 66.5 -14t56.5 -30.5t18 -23.5l-136 -388q-17 -60 -109 -60q-57 0 -84.5 14.5t-42.5 60.5
l-49 149l-46 -149q-13 -45 -42 -60t-83 -15z" />
    <glyph glyph-name="x" unicode="x" horiz-adv-x="586" 
d="M443 251l130 -189q4 -7 -14 -23.5t-53.5 -31.5t-72.5 -15q-77 0 -109 72l-32 63l-32 -63q-32 -72 -113 -72q-33 0 -67.5 15t-53 32t-14.5 23l129 189l-129 190q-4 6 14 23t52 32t67 15q83 0 115 -72l32 -64l32 64q32 72 112 72q34 0 69.5 -15t53.5 -32t14 -23z" />
    <glyph glyph-name="y" unicode="y" horiz-adv-x="603" 
d="M263 -185q-32 0 -64 14t-48.5 29t-13.5 22l82 160q-41 13 -52 39l-162 363q-3 6 16 22t52.5 31t64.5 15q88 0 116 -101l50 -165l50 165q30 101 115 101q31 0 63.5 -14.5t50 -30.5t14.5 -23l-213 -528q-40 -99 -121 -99z" />
    <glyph glyph-name="z" unicode="z" horiz-adv-x="520" 
d="M98 1q-39 0 -60 22.5t-21 52.5v8q0 39 7.5 55.5t30.5 39.5l146 150h-91q-86 0 -86 82v8q0 40 22 61.5t64 21.5h300q39 0 60.5 -22.5t21.5 -52.5v-8q0 -39 -7.5 -55.5t-30.5 -39.5l-152 -150h116q85 0 85 -82v-8q0 -83 -85 -83h-320z" />
    <glyph glyph-name="braceleft" unicode="{" horiz-adv-x="526" 
d="M390 -200q-94 0 -162 63t-89 208l-14 7q-69 34 -89.5 63.5t-20.5 89.5q0 59 23 90t87 63l14 7q21 145 89 208t162 63q55 0 91.5 -28.5t36.5 -74.5q0 -22 -9.5 -40t-19 -25t-13.5 -7q-69 0 -96.5 -41t-33.5 -145l-118 -70l118 -70q6 -104 33.5 -145t96.5 -41q4 0 13.5 -7
t19 -25t9.5 -40q0 -46 -36.5 -74.5t-91.5 -28.5z" />
    <glyph glyph-name="bar" unicode="|" horiz-adv-x="306" 
d="M143 -200q-51 0 -79 25.5t-28 87.5v636q0 113 105 113h24q51 0 78 -25.5t27 -87.5v-636q0 -113 -103 -113h-24z" />
    <glyph glyph-name="braceright" unicode="}" horiz-adv-x="526" 
d="M136 -200q-55 0 -91.5 28.5t-36.5 74.5q0 22 9.5 40t19 25t13.5 7q69 0 96.5 41t33.5 145l118 70l-118 70q-6 104 -33.5 145t-96.5 41q-4 0 -13.5 7t-19 25t-9.5 40q0 46 36.5 74.5t91.5 28.5q94 0 162 -63t89 -208l14 -7q63 -32 86.5 -63.5t23.5 -89.5
q0 -60 -21.5 -89.5t-88.5 -63.5l-14 -7q-21 -145 -89 -208t-162 -63z" />
    <glyph glyph-name="asciitilde" unicode="~" horiz-adv-x="499" 
d="M129 151q-32 0 -53 22t-21 53q0 55 33.5 86.5t80.5 31.5q77 0 129 -55q20 55 71 55q32 0 53 -22.5t21 -53.5q0 -55 -33.5 -86t-80.5 -31q-78 0 -129 55q-20 -55 -71 -55z" />
    <glyph glyph-name="nbspace" unicode="&#xa0;" horiz-adv-x="170" 
 />
    <glyph glyph-name="exclamdown" unicode="&#xa1;" horiz-adv-x="313" 
d="M144 452q-50 0 -73 22.5t-23 70.5v19q0 93 96 93h27q94 0 94 -93v-19q0 -93 -94 -93h-27zM146 -14q-72 0 -107 42.5t-16 107.5l61 212q11 38 25 55t37 17h23q21 0 34.5 -17t24.5 -55l61 -212q19 -65 -15 -107.5t-103 -42.5h-25z" />
    <glyph glyph-name="cent" unicode="&#xa2;" horiz-adv-x="517" 
d="M285 -105q-105 0 -105 113v20q-84 27 -132 93.5t-48 162.5q0 93 48 159t132 93v21q0 113 105 113h4q51 0 78 -25.5t27 -87.5v-14q56 -13 90 -45q33 -35 33 -75q0 -38 -29.5 -63t-59 -32t-32.5 -1q-18 26 -37.5 37t-50.5 11q-38 0 -63 -26t-25 -65q0 -40 25 -66.5
t63 -26.5q55 0 88 47q3 6 32.5 -1t59 -32t29.5 -63q0 -40 -33 -75q-31 -31 -90 -45v-14q0 -62 -27 -87.5t-78 -25.5h-4z" />
    <glyph glyph-name="sterling" unicode="&#xa3;" horiz-adv-x="641" 
d="M121 0q-56 0 -80 20t-24 67v10q0 41 21 61t68 22l9 51q-30 2 -49 21.5t-19 49.5v19q0 30 21 50t53 20h23l10 55q19 108 85 162t168 54q100 0 158.5 -36.5t58.5 -106.5q0 -24 -7 -43.5t-18 -30.5t-24.5 -18.5t-27 -11t-24.5 -4.5t-18 -1l-7 1q-11 67 -79 67q-58 0 -70 -64
l-4 -23h90q32 0 53 -20t21 -50v-19q0 -31 -21 -51t-53 -20h-119l-9 -51h215q55 0 79.5 -19.5t24.5 -63.5v-10q0 -47 -24 -67t-80 -20h-401z" />
    <glyph glyph-name="currency" unicode="&#xa4;" horiz-adv-x="637" 
d="M85 245h-4q-35 0 -54.5 20.5t-19.5 50.5v19q0 28 19.5 49t54.5 21h4q13 120 96.5 188t213.5 68q72 0 125.5 -20t77.5 -45q30 -30 29 -74q0 -34 -25.5 -62.5t-51 -40.5t-30.5 -7q-28 28 -53 40t-61 12q-73 0 -85 -59h93q35 0 54.5 -20.5t19.5 -49.5v-19q0 -30 -19 -50.5
t-55 -20.5h-93q11 -63 85 -63q36 0 61 12t53 40q5 5 30.5 -7t51 -40.5t25.5 -62.5q1 -44 -29 -74q-24 -25 -77.5 -45t-125.5 -20q-131 0 -214.5 69t-95.5 191z" />
    <glyph glyph-name="yen" unicode="&#xa5;" horiz-adv-x="669" 
d="M113 177q-39 0 -60 22.5t-21 55.5v21q0 32 21.5 54.5t59.5 22.5h62l-133 201q-2 4 0 14.5t11 25.5t23.5 28t41.5 22.5t61 9.5q82 0 117 -85l41 -111l44 111q39 87 120 87q29 0 53 -9.5t38 -23.5t23.5 -29t12 -26t0.5 -14l-132 -201h61q39 0 60 -22.5t21 -54.5v-21
q0 -33 -21 -55.5t-60 -22.5h-108v-74q0 -57 -23 -85t-74 -28h-35q-49 0 -71 28t-22 85v74h-111z" />
    <glyph glyph-name="section" unicode="&#xa7;" horiz-adv-x="628" 
d="M289 -208q-251 0 -251 126q0 22 14.5 44.5t29.5 34t19 8.5q30 -21 92 -37.5t100 -16.5q31 0 42.5 5.5t11.5 19.5q0 16 -83 35q-2 1 -4 1.5t-4 0.5q-39 9 -63.5 15.5t-61.5 22t-59 33t-38.5 46.5t-16.5 65q0 94 113 136q-80 43 -80 128q0 94 70 148t199 54
q131 0 184.5 -35t53.5 -85q0 -26 -16.5 -50t-33 -36t-19.5 -9q-78 59 -153 59q-31 0 -42.5 -5.5t-11.5 -19.5q0 -3 2 -6t6 -5.5t8.5 -4.5t12 -4.5t14 -4.5t17 -4.5t18 -4t20.5 -4.5t21 -5q43 -11 74 -22.5t65.5 -31.5t53 -51t18.5 -71q0 -92 -110 -136q77 -41 77 -128
q0 -94 -76 -149.5t-213 -55.5zM414 218q0 15 -9 26t-31 19t-39 12t-52 11q-7 1 -10 2q-59 -13 -59 -55q0 -7 2.5 -13.5t8 -11.5t12 -9t17 -7.5t19 -6t22.5 -5.5t24 -5t27 -5t27 -5q41 13 41 53z" />
    <glyph glyph-name="dieresis" unicode="&#xa8;" horiz-adv-x="500" 
d="M375 538q-49 0 -76.5 26.5t-27.5 74.5q0 47 27 74t73 27q48 0 75.5 -26.5t27.5 -74.5q0 -47 -27 -74t-72 -27zM129 538q-48 0 -75.5 26.5t-27.5 74.5q0 47 27 74t72 27q49 0 76.5 -26.5t27.5 -74.5q0 -47 -27 -74t-73 -27z" />
    <glyph glyph-name="copyright" unicode="&#xa9;" horiz-adv-x="733" 
d="M367 -15q-151 0 -245.5 95t-94.5 244q0 148 94.5 243t245.5 95t245 -94.5t94 -243.5t-94 -244t-245 -95zM367 59q118 0 190.5 74.5t72.5 190.5t-73 190t-190 74q-118 0 -191 -74t-73 -190q0 -117 73 -191t191 -74zM377 136q-84 0 -137.5 52.5t-53.5 134.5q0 81 53.5 133
t137.5 52q79 0 119 -40q18 -18 17 -45q0 -21 -15.5 -38t-31 -24.5t-18.5 -4.5q-29 29 -64 29q-25 0 -42 -17.5t-17 -44.5q0 -28 17 -45.5t42 -17.5q36 0 64 28q3 3 18.5 -4t31 -24.5t15.5 -38.5q1 -27 -17 -45q-40 -40 -119 -40z" />
    <glyph glyph-name="ordfeminine" unicode="&#xaa;" horiz-adv-x="465" 
d="M146 240q-66 0 -101.5 30t-35.5 84q0 123 244 124v4q0 18 -15 28t-39 10q-25 0 -50 -11t-38 -24q-4 -4 -24 -0.5t-40.5 21t-20.5 48.5q0 50 52 79t140 29q118 0 170 -48t52 -156v-193q0 -3 -9.5 -8t-27 -9t-35.5 -4q-71 0 -99 54q-45 -58 -123 -58zM218 -10q-84 0 -84 84
v17q0 84 84 84h25q45 0 65.5 -20t20.5 -64v-17q0 -84 -86 -84h-25zM213 340q39 0 40 42v32q-35 0 -55 -11.5t-20 -30.5q0 -14 10 -23t25 -9z" />
    <glyph glyph-name="guillemotleft" unicode="&#xab;" horiz-adv-x="565" 
d="M546 136v-5q0 -38 -22 -61t-63 -23h-3q-42 0 -89 46.5t-74 93.5t-27 61t27 61t74 93.5t89 46.5h3q42 0 63.5 -22.5t21.5 -61.5v-5q0 -36 -39 -68.5t-73 -43.5q36 -14 74 -45t38 -67zM278 147v-4q0 -34 -19.5 -55t-56.5 -21h-3q-38 0 -82.5 41.5t-71 84.5t-26.5 55
t26.5 55t71 84.5t82.5 41.5h3q37 0 56.5 -20.5t19.5 -55.5v-4q0 -33 -34.5 -62t-65.5 -39q33 -13 66.5 -41t33.5 -60z" />
    <glyph glyph-name="registered" unicode="&#xae;" horiz-adv-x="733" 
d="M367 -15q-151 0 -245.5 95t-94.5 244q0 148 94.5 243t245.5 95t245 -94.5t94 -243.5t-94 -244t-245 -95zM367 59q118 0 190.5 74.5t72.5 190.5t-73 190t-190 74q-118 0 -191 -74t-73 -190q0 -117 73 -191t191 -74zM468 138q-48 0 -74 51l-35 59h-20v-44q0 -62 -59 -62
h-19q-27 0 -42 21t-15 58v208q0 74 69 74h108q161 0 161 -121q0 -70 -59 -99l64 -100q3 -5 -8 -15.5t-31.5 -20t-39.5 -9.5zM337 403v-64h33q37 0 37 32t-39 32h-31z" />
    <glyph glyph-name="macron" unicode="&#xaf;" horiz-adv-x="500" 
d="M129 538q-42 0 -66.5 21t-24.5 57v9q0 35 25 56t66 21h242q42 0 66.5 -21t24.5 -56v-9q0 -36 -24 -57t-67 -21h-242z" />
    <glyph glyph-name="degree" unicode="&#xb0;" horiz-adv-x="364" 
d="M183 331q-79 0 -126 42.5t-47 117.5v6q0 75 47 117.5t126 42.5q78 0 124.5 -42.5t46.5 -117.5v-6q0 -75 -46.5 -117.5t-124.5 -42.5zM183 434q40 0 40 51v18q0 52 -40 52q-41 0 -41 -52v-18q0 -51 41 -51z" />
    <glyph glyph-name="plusminus" unicode="&#xb1;" horiz-adv-x="600" 
d="M129 333q-44 0 -67.5 21.5t-23.5 56.5v9q0 34 24 55.5t67 21.5h83v68q0 44 21.5 67.5t56.5 23.5h19q34 0 55.5 -24t21.5 -67v-68h84q44 0 67.5 -21.5t23.5 -55.5v-9q0 -35 -23.5 -56.5t-67.5 -21.5h-84v-39q0 -44 -21.5 -67.5t-55.5 -23.5h-19q-35 0 -56.5 23.5
t-21.5 67.5v39h-83zM119 0q-44 0 -67.5 21.5t-23.5 56.5v9q0 34 24 55.5t67 21.5h361q44 0 67.5 -21.5t23.5 -55.5v-9q0 -35 -23.5 -56.5t-67.5 -21.5h-361z" />
    <glyph glyph-name="twosuperior" unicode="&#xb2;" horiz-adv-x="336" 
d="M232 426q-13 -5 -45 -13t-44 -15h114q69 0 69 -54v-1q0 -30 -16.5 -43.5t-52.5 -13.5h-155q-53 0 -70 13t-17 55v27q0 45 24 65.5t85 46.5q14 6 35 13t27.5 11t6.5 10q0 10 -7.5 17.5t-21.5 7.5q-21 0 -35.5 -17t-17.5 -39q0 -3 -23.5 -1t-47 18t-23.5 47q0 47 40.5 71.5
t114.5 24.5q72 0 113 -33t41 -90q0 -49 -24.5 -71t-69.5 -36z" />
    <glyph glyph-name="threesuperior" unicode="&#xb3;" horiz-adv-x="336" 
d="M328 391q0 -114 -168 -114q-70 0 -112 23t-42 63q0 20 9 35t21.5 21t25.5 8.5t22 2t10 -1.5q10 -46 61 -46q18 0 28.5 6.5t10.5 16.5q0 13 -16 13h-2q-35 0 -50 11t-15 35v8q0 47 64 47h10q9 0 9 10q0 9 -11 15.5t-30 6.5q-52 0 -58 -48q0 -2 -8.5 -2.5t-21 2t-25 8.5
t-21 21t-8.5 36q0 42 39.5 65t108.5 23q166 0 166 -104q0 -55 -63 -73q66 -23 66 -88z" />
    <glyph glyph-name="acute" unicode="&#xb4;" horiz-adv-x="500" 
d="M163 572q-10 19 23.5 83t79.5 89q30 15 56 15q44 0 74.5 -25.5t30.5 -63.5q0 -31 -17.5 -61.5t-46.5 -45.5q-42 -22 -89 -23t-76 9.5t-35 22.5z" />
    <glyph glyph-name="paragraph" unicode="&#xb6;" horiz-adv-x="629" 
d="M523 -10q-51 0 -51 57v554q0 56 51 56h18q53 0 53 -56v-554q0 -57 -53 -57h-18zM353 -10q-53 0 -53 57v219h-56q-115 0 -176.5 49t-61.5 144q0 198 237 198h107q72 0 72 -68v-542q0 -57 -52 -57h-17z" />
    <glyph glyph-name="periodcentered" unicode="&#xb7;" horiz-adv-x="275" 
d="M122 146q-94 0 -94 93v19q0 93 94 93h27q50 0 73 -22.5t23 -70.5v-19q0 -93 -96 -93h-27z" />
    <glyph glyph-name="cedilla" unicode="&#xb8;" horiz-adv-x="500" 
d="M247 -220q-25 -13 -53.5 -13t-49.5 13.5t-15 32.5l26 87q10 33 30 46.5t72 13.5h26q89 0 89 -60v-6q0 -35 -52 -68z" />
    <glyph glyph-name="onesuperior" unicode="&#xb9;" horiz-adv-x="336" 
d="M87 285q-68 0 -68 58v1q0 61 68 61h30v91q-18 -8 -35 -8q-27 0 -46.5 19t-19.5 48q0 22 9.5 39.5t19 24t12.5 5.5q22 -10 33 -10q39 0 51 39h44q65 0 65 -68v-180h10q68 0 68 -61v-1q0 -58 -68 -58h-173z" />
    <glyph glyph-name="ordmasculine" unicode="&#xba;" horiz-adv-x="475" 
d="M236 240q-100 0 -161 59.5t-61 151.5q0 90 63 150.5t162 60.5q100 0 161 -60t61 -151q0 -92 -62.5 -151.5t-162.5 -59.5zM223 -10q-84 0 -84 84v17q0 84 84 84h25q45 0 65.5 -20t20.5 -64v-17q0 -84 -86 -84h-25zM238 386q26 0 45 19t19 46q0 28 -18.5 47.5t-45.5 19.5
t-45.5 -19.5t-18.5 -47.5t18 -46.5t46 -18.5z" />
    <glyph glyph-name="guillemotright" unicode="&#xbb;" horiz-adv-x="565" 
d="M19 136q0 36 38 67t74 45q-34 11 -73 43.5t-39 68.5v5q0 39 21.5 61.5t63.5 22.5h3q42 0 89 -46.5t74 -93.5t27 -61t-27 -61t-74 -93.5t-89 -46.5h-3q-41 0 -63 23t-22 61v5zM287 147q0 32 33.5 60t66.5 41q-31 10 -65.5 39t-34.5 62v4q0 35 19.5 55.5t56.5 20.5h3
q38 0 82.5 -41.5t71 -84.5t26.5 -55t-26.5 -55t-71 -84.5t-82.5 -41.5h-3q-37 0 -56.5 21t-19.5 55v4z" />
    <glyph glyph-name="onequarter" unicode="&#xbc;" horiz-adv-x="792" 
d="M672 -6q-59 0 -59 68v6h-88q-35 0 -55 16t-20 41v17q1 18 20 61l55 121q14 29 36 36.5t81 7.5q55 0 77.5 -20.5t22.5 -74.5v-103q28 -1 40 -12.5t12 -35.5v-3q0 -26 -12 -38t-40 -13v-6q0 -68 -62 -68h-8zM87 285q-68 0 -68 58v1q0 61 68 61h30v91q-18 -8 -35 -8
q-27 0 -46.5 19t-19.5 48q0 22 9.5 39.5t19 24t12.5 5.5q22 -10 33 -10q39 0 51 39h44q65 0 65 -68v-180h10q68 0 68 -61v-1q0 -58 -68 -58h-173zM127 18q-1 -22 13.5 -37.5t29.5 -17t21 0.5q186 238 267 338l198 238q20 23 22 48q1 22 -13.5 37.5t-29 16.5t-20.5 -2
q-187 -238 -268 -338l-197 -236q-22 -27 -23 -48zM622 288l-60 -120h60v120z" />
    <glyph glyph-name="onehalf" unicode="&#xbd;" horiz-adv-x="792" 
d="M688 141q-13 -5 -45 -13t-44 -15h114q69 0 69 -54v-1q0 -30 -16.5 -43.5t-52.5 -13.5h-155q-53 0 -70 13t-17 55v27q0 45 24 65.5t85 46.5q14 6 35 13t27.5 11t6.5 10q0 10 -7.5 17.5t-21.5 7.5q-21 0 -35.5 -17t-17.5 -39q0 -3 -23.5 -1t-47 18t-23.5 47q0 47 40.5 71.5
t114.5 24.5q72 0 113 -33t41 -90q0 -49 -24.5 -71t-69.5 -36zM87 285q-68 0 -68 58v1q0 61 68 61h30v91q-18 -8 -35 -8q-27 0 -46.5 19t-19.5 48q0 22 9.5 39.5t19 24t12.5 5.5q22 -10 33 -10q39 0 51 39h44q65 0 65 -68v-180h10q68 0 68 -61v-1q0 -58 -68 -58h-173zM107 18
q-1 -22 13.5 -37.5t29.5 -17t21 0.5q186 238 267 338l198 238q20 23 22 48q1 22 -13.5 37.5t-29 16.5t-20.5 -2q-187 -238 -268 -338l-197 -236q-22 -27 -23 -48z" />
    <glyph glyph-name="threequarters" unicode="&#xbe;" horiz-adv-x="792" 
d="M328 391q0 -114 -168 -114q-70 0 -112 23t-42 63q0 20 9 35t21.5 21t25.5 8.5t22 2t10 -1.5q10 -46 61 -46q18 0 28.5 6.5t10.5 16.5q0 13 -16 13h-2q-35 0 -50 11t-15 35v8q0 47 64 47h10q9 0 9 10q0 9 -11 15.5t-30 6.5q-52 0 -58 -48q0 -2 -8.5 -2.5t-21 2t-25 8.5
t-21 21t-8.5 36q0 42 39.5 65t108.5 23q166 0 166 -104q0 -55 -63 -73q66 -23 66 -88zM672 -6q-59 0 -59 68v6h-88q-35 0 -55 16t-20 41v17q1 18 20 61l55 121q14 29 36 36.5t81 7.5q55 0 77.5 -20.5t22.5 -74.5v-103q28 -1 40 -12.5t12 -35.5v-3q0 -26 -12 -38t-40 -13v-6
q0 -68 -62 -68h-8zM127 18q1 21 23 48q116 136 197 236l268 338q6 3 20.5 2t29 -16.5t13.5 -37.5q-2 -25 -22 -48q-117 -138 -198 -238l-267 -338q-6 -2 -21 -0.5t-29.5 17t-13.5 37.5zM622 288l-60 -120h60v120z" />
    <glyph glyph-name="questiondown" unicode="&#xbf;" horiz-adv-x="542" 
d="M276 452q-50 0 -73 22.5t-23 70.5v19q0 93 96 93h27q94 0 94 -93v-19q0 -93 -94 -93h-27zM276 -13q-125 0 -195 52t-70 146q0 46 17 79t42 49.5t50.5 27.5t47 23t26.5 27q13 39 93 39q45 0 71.5 -21.5t26.5 -61.5q0 -43 -24 -69.5t-53.5 -35t-53.5 -19t-24 -23.5
q0 -29 49 -29q42 0 70 26t33 63q0 1 16 1.5t38.5 -3.5t44.5 -13.5t38 -33t16 -57.5q0 -74 -70 -120.5t-189 -46.5z" />
    <glyph glyph-name="Agrave" unicode="&#xc0;" horiz-adv-x="714" 
d="M447 106l-1 2h-184l-2 -5q-41 -114 -133 -114q-46 0 -89 29t-36 47l201 521q9 32 42.5 49t110.5 17q76 0 107.5 -17t40.5 -49l212 -518q5 -11 -12.5 -29.5t-50.5 -33.5t-67 -15q-94 0 -139 116zM242 713q-29 15 -46.5 45.5t-17.5 61.5q0 38 30.5 63.5t74.5 25.5
q29 0 56 -15q46 -25 79.5 -89t23.5 -83q-6 -12 -35 -22.5t-76 -9.5t-89 23zM352 427l-54 -147h108z" />
    <glyph glyph-name="Aacute" unicode="&#xc1;" horiz-adv-x="714" 
d="M447 106l-1 2h-184l-2 -5q-41 -114 -133 -114q-46 0 -89 29t-36 47l201 521q9 32 42.5 49t110.5 17q76 0 107.5 -17t40.5 -49l212 -518q5 -11 -12.5 -29.5t-50.5 -33.5t-67 -15q-94 0 -139 116zM352 427l-54 -147h108zM270 722q-10 19 23.5 83t79.5 89q30 15 56 15
q44 0 74.5 -25.5t30.5 -63.5q0 -31 -17.5 -61.5t-46.5 -45.5q-42 -22 -89 -23t-76 9.5t-35 22.5z" />
    <glyph glyph-name="Acircumflex" unicode="&#xc2;" horiz-adv-x="714" 
d="M447 106l-1 2h-184l-2 -5q-41 -114 -133 -114q-46 0 -89 29t-36 47l201 521q9 32 42.5 49t110.5 17q76 0 107.5 -17t40.5 -49l212 -518q5 -11 -12.5 -29.5t-50.5 -33.5t-67 -15q-94 0 -139 116zM352 427l-54 -147h108zM255 688q-33 0 -54 20t-21 50q0 53 54 96t123 62
q69 -19 123 -62t54 -96q0 -30 -21 -50t-54 -20q-34 0 -62 23t-40 60q-12 -37 -40.5 -60t-61.5 -23z" />
    <glyph glyph-name="Atilde" unicode="&#xc3;" horiz-adv-x="714" 
d="M447 106l-1 2h-184l-2 -5q-41 -114 -133 -114q-46 0 -89 29t-36 47l201 521q9 32 42.5 49t110.5 17q76 0 107.5 -17t40.5 -49l212 -518q5 -11 -12.5 -29.5t-50.5 -33.5t-67 -15q-94 0 -139 116zM352 427l-54 -147h108zM237 688q-32 0 -53 22t-21 53q0 55 33.5 86.5
t80.5 31.5q77 0 129 -55q20 55 71 55q32 0 53 -22.5t21 -53.5q0 -55 -33.5 -86t-80.5 -31q-78 0 -129 55q-20 -55 -71 -55z" />
    <glyph glyph-name="Adieresis" unicode="&#xc4;" horiz-adv-x="714" 
d="M447 106l-1 2h-184l-2 -5q-41 -114 -133 -114q-46 0 -89 29t-36 47l201 521q9 32 42.5 49t110.5 17q76 0 107.5 -17t40.5 -49l212 -518q5 -11 -12.5 -29.5t-50.5 -33.5t-67 -15q-94 0 -139 116zM352 427l-54 -147h108zM482 688q-49 0 -76.5 26.5t-27.5 74.5q0 47 27 74
t73 27q48 0 75.5 -26.5t27.5 -74.5q0 -47 -27 -74t-72 -27zM236 688q-48 0 -75.5 26.5t-27.5 74.5q0 47 27 74t72 27q49 0 76.5 -26.5t27.5 -74.5q0 -47 -27 -74t-73 -27z" />
    <glyph glyph-name="Aring" unicode="&#xc5;" horiz-adv-x="714" 
d="M493 726q0 -59 -44 -92q42 -18 55 -48l212 -518q5 -11 -12.5 -29.5t-50.5 -33.5t-67 -15q-94 0 -139 116l-1 2h-184l-2 -5q-41 -114 -133 -114q-46 0 -89 29t-36 47l201 521q11 31 57 50q-39 33 -39 90q0 56 39 92.5t98 36.5t97 -36.5t38 -92.5zM352 427l-54 -147h108z
M357 686q16 0 27.5 12t11.5 28q0 17 -11.5 29t-27.5 12t-27.5 -12t-11.5 -29t11.5 -28.5t27.5 -11.5z" />
    <glyph glyph-name="AE" unicode="&#xc6;" horiz-adv-x="912" 
d="M447 106l-1 2h-184l-2 -5q-40 -114 -132 -114q-49 0 -91 28.5t-35 47.5l195 506q12 39 46.5 57.5t112.5 18.5h416q58 0 85.5 -22.5t27.5 -70.5v-5q0 -50 -27 -71t-86 -21h-225l17 -43h122q61 0 87 -19.5t26 -63.5v-3q0 -47 -26.5 -68t-86.5 -21h-49l20 -51h119
q59 0 86 -19.5t27 -66.5v-5q0 -50 -27 -73.5t-86 -23.5h-166q-67 0 -102.5 20.5t-60.5 85.5zM352 427l-54 -147h108z" />
    <glyph glyph-name="Ccedilla" unicode="&#xc7;" horiz-adv-x="646" 
d="M367 -15q-154 0 -249.5 95t-95.5 244q0 148 96 243t249 95q131 0 195 -53t64 -116q0 -28 -14.5 -51t-34 -35t-41 -21.5t-35.5 -9.5h-16q-30 61 -103 61q-47 0 -78 -30.5t-31 -82.5t31 -83t78 -31q73 0 103 61h16t35.5 -9.5t41 -21.5t34 -35t14.5 -51q0 -63 -64 -116
t-195 -53zM347 -220q-25 -13 -53.5 -13t-49.5 13.5t-15 32.5l26 87q10 33 30 46.5t72 13.5h26q89 0 89 -60v-6q0 -35 -52 -68z" />
    <glyph glyph-name="Egrave" unicode="&#xc8;" horiz-adv-x="629" 
d="M159 0q-124 0 -124 134v377q0 136 124 136h330q58 0 85.5 -22.5t27.5 -70.5v-5q0 -50 -27 -71t-86 -21h-209v-43h123q61 0 87 -19.5t26 -63.5v-3q0 -47 -26.5 -68t-86.5 -21h-123v-51h213q59 0 86 -19.5t27 -66.5v-5q0 -50 -27 -73.5t-86 -23.5h-334zM232 713
q-29 15 -46.5 45.5t-17.5 61.5q0 38 30.5 63.5t74.5 25.5q29 0 56 -15q46 -25 79.5 -89t23.5 -83q-6 -12 -35 -22.5t-76 -9.5t-89 23z" />
    <glyph glyph-name="Eacute" unicode="&#xc9;" horiz-adv-x="629" 
d="M159 0q-124 0 -124 134v377q0 136 124 136h330q58 0 85.5 -22.5t27.5 -70.5v-5q0 -50 -27 -71t-86 -21h-209v-43h123q61 0 87 -19.5t26 -63.5v-3q0 -47 -26.5 -68t-86.5 -21h-123v-51h213q59 0 86 -19.5t27 -66.5v-5q0 -50 -27 -73.5t-86 -23.5h-334zM220 722
q-10 19 23.5 83t79.5 89q30 15 56 15q44 0 74.5 -25.5t30.5 -63.5q0 -31 -17.5 -61.5t-46.5 -45.5q-42 -22 -89 -23t-76 9.5t-35 22.5z" />
    <glyph glyph-name="Ecircumflex" unicode="&#xca;" horiz-adv-x="629" 
d="M159 0q-124 0 -124 134v377q0 136 124 136h330q58 0 85.5 -22.5t27.5 -70.5v-5q0 -50 -27 -71t-86 -21h-209v-43h123q61 0 87 -19.5t26 -63.5v-3q0 -47 -26.5 -68t-86.5 -21h-123v-51h213q59 0 86 -19.5t27 -66.5v-5q0 -50 -27 -73.5t-86 -23.5h-334zM225 688
q-33 0 -54 20t-21 50q0 53 54 96t123 62q69 -19 123 -62t54 -96q0 -30 -21 -50t-54 -20q-34 0 -62 23t-40 60q-12 -37 -40.5 -60t-61.5 -23z" />
    <glyph glyph-name="Edieresis" unicode="&#xcb;" horiz-adv-x="629" 
d="M159 0q-124 0 -124 134v377q0 136 124 136h330q58 0 85.5 -22.5t27.5 -70.5v-5q0 -50 -27 -71t-86 -21h-209v-43h123q61 0 87 -19.5t26 -63.5v-3q0 -47 -26.5 -68t-86.5 -21h-123v-51h213q59 0 86 -19.5t27 -66.5v-5q0 -50 -27 -73.5t-86 -23.5h-334zM452 688
q-49 0 -76.5 26.5t-27.5 74.5q0 47 27 74t73 27q48 0 75.5 -26.5t27.5 -74.5q0 -47 -27 -74t-72 -27zM206 688q-48 0 -75.5 26.5t-27.5 74.5q0 47 27 74t72 27q49 0 76.5 -26.5t27.5 -74.5q0 -47 -27 -74t-73 -27z" />
    <glyph glyph-name="Igrave" unicode="&#xcc;" horiz-adv-x="327" 
d="M144 -5q-103 0 -103 113v431q0 113 103 113h35q107 0 107 -113v-431q0 -113 -107 -113h-35zM64 713q-29 15 -46.5 45.5t-17.5 61.5q0 38 30.5 63.5t74.5 25.5q29 0 56 -15q46 -25 79.5 -89t23.5 -83q-6 -12 -35 -22.5t-76 -9.5t-89 23z" />
    <glyph glyph-name="Iacute" unicode="&#xcd;" horiz-adv-x="327" 
d="M144 -5q-103 0 -103 113v431q0 113 103 113h35q107 0 107 -113v-431q0 -113 -107 -113h-35zM52 722q-10 19 23.5 83t79.5 89q30 15 56 15q44 0 74.5 -25.5t30.5 -63.5q0 -31 -17.5 -61.5t-46.5 -45.5q-42 -22 -89 -23t-76 9.5t-35 22.5z" />
    <glyph glyph-name="Icircumflex" unicode="&#xce;" horiz-adv-x="327" 
d="M144 -5q-103 0 -103 113v431q0 113 103 113h35q107 0 107 -113v-431q0 -113 -107 -113h-35zM57 688q-33 0 -54 20t-21 50q0 53 54 96t123 62q69 -19 123 -62t54 -96q0 -30 -21 -50t-54 -20q-34 0 -62 23t-40 60q-12 -37 -40.5 -60t-61.5 -23z" />
    <glyph glyph-name="Idieresis" unicode="&#xcf;" horiz-adv-x="327" 
d="M144 -5q-103 0 -103 113v431q0 113 103 113h35q107 0 107 -113v-431q0 -113 -107 -113h-35zM284 688q-49 0 -76.5 26.5t-27.5 74.5q0 47 27 74t73 27q48 0 75.5 -26.5t27.5 -74.5q0 -47 -27 -74t-72 -27zM38 688q-48 0 -75.5 26.5t-27.5 74.5q0 47 27 74t72 27
q49 0 76.5 -26.5t27.5 -74.5q0 -47 -27 -74t-73 -27z" />
    <glyph glyph-name="Eth" unicode="&#xd0;" horiz-adv-x="736" 
d="M73 245q-35 0 -54.5 20.5t-19.5 50.5v19q0 28 19.5 49t54.5 21h2v106q0 66 34.5 101t91.5 35h177q157 0 249 -86.5t92 -233.5q0 -149 -93.5 -238t-250.5 -89h-164q-57 0 -96.5 39t-39.5 95v111h-2zM317 207h50q49 0 80.5 32t31.5 88q0 54 -29.5 83.5t-79.5 29.5h-53v-35
h17q35 0 54.5 -20.5t19.5 -49.5v-19q0 -30 -19 -50.5t-55 -20.5h-17v-38z" />
    <glyph glyph-name="Ntilde" unicode="&#xd1;" horiz-adv-x="712" 
d="M138 -5q-103 0 -103 113v436q0 108 97 108h20q39 0 58 -10t45 -40l192 -234v171q0 113 107 113h20q103 0 103 -113v-436q0 -108 -97 -108h-20q-39 0 -58.5 10t-44.5 40l-192 229v-166q0 -113 -107 -113h-20zM236 688q-32 0 -53 22t-21 53q0 55 33.5 86.5t80.5 31.5
q77 0 129 -55q20 55 71 55q32 0 53 -22.5t21 -53.5q0 -55 -33.5 -86t-80.5 -31q-78 0 -129 55q-20 -55 -71 -55z" />
    <glyph glyph-name="Ograve" unicode="&#xd2;" horiz-adv-x="729" 
d="M365 -15q-152 0 -250 95.5t-98 243.5q0 147 98.5 242.5t249.5 95.5t249 -95.5t98 -242.5q0 -148 -98 -243.5t-249 -95.5zM365 204q49 0 78 32t29 88t-29 88.5t-78 32.5q-51 0 -79.5 -31.5t-28.5 -89.5q0 -56 29 -88t79 -32zM251 713q-29 15 -46.5 45.5t-17.5 61.5
q0 38 30.5 63.5t74.5 25.5q29 0 56 -15q46 -25 79.5 -89t23.5 -83q-6 -12 -35 -22.5t-76 -9.5t-89 23z" />
    <glyph glyph-name="Oacute" unicode="&#xd3;" horiz-adv-x="729" 
d="M365 -15q-152 0 -250 95.5t-98 243.5q0 147 98.5 242.5t249.5 95.5t249 -95.5t98 -242.5q0 -148 -98 -243.5t-249 -95.5zM365 204q49 0 78 32t29 88t-29 88.5t-78 32.5q-51 0 -79.5 -31.5t-28.5 -89.5q0 -56 29 -88t79 -32zM259 722q-10 19 23.5 83t79.5 89q30 15 56 15
q44 0 74.5 -25.5t30.5 -63.5q0 -31 -17.5 -61.5t-46.5 -45.5q-42 -22 -89 -23t-76 9.5t-35 22.5z" />
    <glyph glyph-name="Ocircumflex" unicode="&#xd4;" horiz-adv-x="729" 
d="M365 -15q-152 0 -250 95.5t-98 243.5q0 147 98.5 242.5t249.5 95.5t249 -95.5t98 -242.5q0 -148 -98 -243.5t-249 -95.5zM264 688q-33 0 -54 20t-21 50q0 53 54 96t123 62q69 -19 123 -62t54 -96q0 -30 -21 -50t-54 -20q-34 0 -62 23t-40 60q-12 -37 -40.5 -60t-61.5 -23
zM365 204q49 0 78 32t29 88t-29 88.5t-78 32.5q-51 0 -79.5 -31.5t-28.5 -89.5q0 -56 29 -88t79 -32z" />
    <glyph glyph-name="Otilde" unicode="&#xd5;" horiz-adv-x="729" 
d="M365 -15q-152 0 -250 95.5t-98 243.5q0 147 98.5 242.5t249.5 95.5t249 -95.5t98 -242.5q0 -148 -98 -243.5t-249 -95.5zM365 204q49 0 78 32t29 88t-29 88.5t-78 32.5q-51 0 -79.5 -31.5t-28.5 -89.5q0 -56 29 -88t79 -32zM246 688q-32 0 -53 22t-21 53q0 55 33.5 86.5
t80.5 31.5q77 0 129 -55q20 55 71 55q32 0 53 -22.5t21 -53.5q0 -55 -33.5 -86t-80.5 -31q-78 0 -129 55q-20 -55 -71 -55z" />
    <glyph glyph-name="Odieresis" unicode="&#xd6;" horiz-adv-x="729" 
d="M365 -15q-152 0 -250 95.5t-98 243.5q0 147 98.5 242.5t249.5 95.5t249 -95.5t98 -242.5q0 -148 -98 -243.5t-249 -95.5zM365 204q49 0 78 32t29 88t-29 88.5t-78 32.5q-51 0 -79.5 -31.5t-28.5 -89.5q0 -56 29 -88t79 -32zM491 688q-49 0 -76.5 26.5t-27.5 74.5
q0 47 27 74t73 27q48 0 75.5 -26.5t27.5 -74.5q0 -47 -27 -74t-72 -27zM245 688q-48 0 -75.5 26.5t-27.5 74.5q0 47 27 74t72 27q49 0 76.5 -26.5t27.5 -74.5q0 -47 -27 -74t-73 -27z" />
    <glyph glyph-name="multiply" unicode="&#xd7;" horiz-adv-x="573" 
d="M79 25l-14 14q-25 23 -24 56t33 63l95 89l-95 89q-32 30 -33 63.5t23 55.5l13 14q22 26 56 24.5t64 -34.5l89 -95l89 95q30 33 64 34.5t56 -24.5l13 -14q24 -22 23 -55.5t-33 -63.5l-95 -89l95 -89q32 -30 33 -63t-24 -56l-14 -14q-20 -24 -54 -23t-64 33l-89 95l-89 -95
q-30 -32 -64 -33t-54 23z" />
    <glyph glyph-name="Oslash" unicode="&#xd8;" horiz-adv-x="729" 
d="M120 -45q-5 -5 -27 1t-43.5 23.5t-21.5 40.5q0 21 23 47l39 43q-71 90 -71 214q0 147 98 242.5t250 95.5q101 0 180 -45l63 70q5 5 27 -1t43 -23.5t21 -40.5q0 -22 -22 -47l-35 -39q70 -91 70 -212q0 -148 -97.5 -243.5t-249.5 -95.5q-102 0 -181 44zM229 324
q0 -30 7 -52l173 192q-26 6 -42 6q-64 0 -101 -39t-37 -107zM367 179q62 0 100 40t38 105q0 22 -7 50l-172 -190q16 -5 41 -5z" />
    <glyph glyph-name="Ugrave" unicode="&#xd9;" horiz-adv-x="692" 
d="M346 -10q-311 0 -311 303v246q0 56 28.5 84.5t79.5 28.5h30q107 0 107 -113v-248q0 -90 67 -90q34 0 49.5 21.5t15.5 68.5v248q0 56 28.5 84.5t79.5 28.5h30q107 0 107 -113v-246q0 -303 -311 -303zM231 713q-29 15 -46.5 45.5t-17.5 61.5q0 38 30.5 63.5t74.5 25.5
q29 0 56 -15q46 -25 79.5 -89t23.5 -83q-6 -12 -35 -22.5t-76 -9.5t-89 23z" />
    <glyph glyph-name="Uacute" unicode="&#xda;" horiz-adv-x="692" 
d="M346 -10q-311 0 -311 303v246q0 56 28.5 84.5t79.5 28.5h30q107 0 107 -113v-248q0 -90 67 -90q34 0 49.5 21.5t15.5 68.5v248q0 56 28.5 84.5t79.5 28.5h30q107 0 107 -113v-246q0 -303 -311 -303zM259 722q-10 19 23.5 83t79.5 89q30 15 56 15q44 0 74.5 -25.5
t30.5 -63.5q0 -31 -17.5 -61.5t-46.5 -45.5q-42 -22 -89 -23t-76 9.5t-35 22.5z" />
    <glyph glyph-name="Ucircumflex" unicode="&#xdb;" horiz-adv-x="692" 
d="M346 -10q-311 0 -311 303v246q0 56 28.5 84.5t79.5 28.5h30q107 0 107 -113v-248q0 -90 67 -90q34 0 49.5 21.5t15.5 68.5v248q0 56 28.5 84.5t79.5 28.5h30q107 0 107 -113v-246q0 -303 -311 -303zM244 688q-33 0 -54 20t-21 50q0 53 54 96t123 62q69 -19 123 -62
t54 -96q0 -30 -21 -50t-54 -20q-34 0 -62 23t-40 60q-12 -37 -40.5 -60t-61.5 -23z" />
    <glyph glyph-name="Udieresis" unicode="&#xdc;" horiz-adv-x="692" 
d="M346 -10q-311 0 -311 303v246q0 56 28.5 84.5t79.5 28.5h30q107 0 107 -113v-248q0 -90 67 -90q34 0 49.5 21.5t15.5 68.5v248q0 56 28.5 84.5t79.5 28.5h30q107 0 107 -113v-246q0 -303 -311 -303zM471 688q-49 0 -76.5 26.5t-27.5 74.5q0 47 27 74t73 27
q48 0 75.5 -26.5t27.5 -74.5q0 -47 -27 -74t-72 -27zM225 688q-48 0 -75.5 26.5t-27.5 74.5q0 47 27 74t72 27q49 0 76.5 -26.5t27.5 -74.5q0 -47 -27 -74t-73 -27z" />
    <glyph glyph-name="Yacute" unicode="&#xdd;" horiz-adv-x="669" 
d="M317 -5q-103 0 -103 113v141l-222 310q-2 4 1.5 14t15.5 23t30 25t47.5 20.5t65.5 8.5q68 0 114 -85l70 -127l75 127q49 86 115 86q32 0 59.5 -8.5t45 -21t29.5 -26t16 -23.5t2 -13l-219 -310v-141q0 -113 -107 -113h-35zM247 722q-10 19 23.5 83t79.5 89q30 15 56 15
q44 0 74.5 -25.5t30.5 -63.5q0 -31 -17.5 -61.5t-46.5 -45.5q-42 -22 -89 -23t-76 9.5t-35 22.5z" />
    <glyph glyph-name="Thorn" unicode="&#xde;" horiz-adv-x="645" 
d="M138 -5q-103 0 -103 113v431q0 113 103 113h35q95 0 106 -92h47q302 0 302 -238q0 -231 -291 -231h-58q-8 -96 -106 -96h-35zM329 379h-49v-113h49q68 0 68 56q0 31 -16 44t-52 13z" />
    <glyph glyph-name="germandbls" unicode="&#xdf;" horiz-adv-x="658" 
d="M611 532q0 -101 -88 -129q61 -29 96 -82t35 -118q0 -99 -55 -158.5t-147 -59.5q-159 0 -159 109q0 20 11 41.5t21.5 32.5t12.5 10q21 -16 51 -16q19 0 32.5 11t13.5 28q0 12 -4 21t-14.5 16.5t-19.5 11.5l-27 12q-21 9 -33.5 17.5t-24.5 30t-12 52.5q0 23 9 43.5t17 30
t10 9.5q25 0 39 13.5t14 37.5t-15.5 37.5t-40.5 13.5q-63 0 -63 -82v-362q0 -54 -27.5 -83.5t-77.5 -29.5h-24q-48 0 -76.5 31t-28.5 82v337q0 148 69.5 211t230.5 63q131 0 203 -49t72 -133z" />
    <glyph glyph-name="agrave" unicode="&#xe0;" horiz-adv-x="597" 
d="M181 -10q-74 0 -119.5 39.5t-45.5 104.5q0 79 77 120.5t217 41.5h24q-1 55 -59 55q-66 0 -83 -48q0 -2 -16.5 -4t-39.5 -0.5t-46 8t-39 25t-16 47.5q0 70 60 101.5t193 31.5q145 0 211 -55t66 -170v-271q0 -10 -29 -18.5t-63 -8.5q-96 0 -127 86q-22 -40 -65.5 -62.5
t-99.5 -22.5zM270 123q28 0 45 14t19 39v30h-27q-80 0 -80 -45q0 -18 12 -28t31 -10zM195 563q-29 15 -46.5 45.5t-17.5 61.5q0 38 30.5 63.5t74.5 25.5q29 0 56 -15q46 -25 79.5 -89t23.5 -83q-6 -12 -35 -22.5t-76 -9.5t-89 23z" />
    <glyph glyph-name="aacute" unicode="&#xe1;" horiz-adv-x="597" 
d="M181 -10q-74 0 -119.5 39.5t-45.5 104.5q0 79 77 120.5t217 41.5h24q-1 55 -59 55q-66 0 -83 -48q0 -2 -16.5 -4t-39.5 -0.5t-46 8t-39 25t-16 47.5q0 70 60 101.5t193 31.5q145 0 211 -55t66 -170v-271q0 -10 -29 -18.5t-63 -8.5q-96 0 -127 86q-22 -40 -65.5 -62.5
t-99.5 -22.5zM270 123q28 0 45 14t19 39v30h-27q-80 0 -80 -45q0 -18 12 -28t31 -10zM203 572q-10 19 23.5 83t79.5 89q30 15 56 15q44 0 74.5 -25.5t30.5 -63.5q0 -31 -17.5 -61.5t-46.5 -45.5q-42 -22 -89 -23t-76 9.5t-35 22.5z" />
    <glyph glyph-name="acircumflex" unicode="&#xe2;" horiz-adv-x="597" 
d="M181 -10q-74 0 -119.5 39.5t-45.5 104.5q0 79 77 120.5t217 41.5h24q-1 55 -59 55q-66 0 -83 -48q0 -2 -16.5 -4t-39.5 -0.5t-46 8t-39 25t-16 47.5q0 70 60 101.5t193 31.5q145 0 211 -55t66 -170v-271q0 -10 -29 -18.5t-63 -8.5q-96 0 -127 86q-22 -40 -65.5 -62.5
t-99.5 -22.5zM198 538q-33 0 -54 20t-21 50q0 53 54 96t123 62q69 -19 123 -62t54 -96q0 -30 -21 -50t-54 -20q-34 0 -62 23t-40 60q-12 -37 -40.5 -60t-61.5 -23zM270 123q29 0 46.5 16t17.5 43v24h-27q-80 0 -80 -45q0 -18 12 -28t31 -10z" />
    <glyph glyph-name="atilde" unicode="&#xe3;" horiz-adv-x="597" 
d="M181 -10q-74 0 -119.5 39.5t-45.5 104.5q0 79 77 120.5t217 41.5h24q-1 55 -59 55q-66 0 -83 -48q0 -2 -16.5 -4t-39.5 -0.5t-46 8t-39 25t-16 47.5q0 70 60 101.5t193 31.5q145 0 211 -55t66 -170v-271q0 -10 -29 -18.5t-63 -8.5q-96 0 -127 86q-22 -40 -65.5 -62.5
t-99.5 -22.5zM270 123q28 0 45 14t19 39v30h-27q-80 0 -80 -45q0 -18 12 -28t31 -10zM170 538q-32 0 -53 22t-21 53q0 55 33.5 86.5t80.5 31.5q77 0 129 -55q20 55 71 55q32 0 53 -22.5t21 -53.5q0 -55 -33.5 -86t-80.5 -31q-78 0 -129 55q-20 -55 -71 -55z" />
    <glyph glyph-name="adieresis" unicode="&#xe4;" horiz-adv-x="597" 
d="M181 -10q-74 0 -119.5 39.5t-45.5 104.5q0 79 77 120.5t217 41.5h24q-1 55 -59 55q-66 0 -83 -48q0 -2 -16.5 -4t-39.5 -0.5t-46 8t-39 25t-16 47.5q0 70 60 101.5t193 31.5q145 0 211 -55t66 -170v-271q0 -10 -29 -18.5t-63 -8.5q-96 0 -127 86q-22 -40 -65.5 -62.5
t-99.5 -22.5zM270 123q28 0 45 14t19 39v30h-27q-80 0 -80 -45q0 -18 12 -28t31 -10zM415 538q-49 0 -76.5 26.5t-27.5 74.5q0 47 27 74t73 27q48 0 75.5 -26.5t27.5 -74.5q0 -47 -27 -74t-72 -27zM169 538q-48 0 -75.5 26.5t-27.5 74.5q0 47 27 74t72 27q49 0 76.5 -26.5
t27.5 -74.5q0 -47 -27 -74t-73 -27z" />
    <glyph glyph-name="aring" unicode="&#xe5;" horiz-adv-x="597" 
d="M181 -10q-74 0 -119.5 39.5t-45.5 104.5q0 79 77 120.5t217 41.5h24q-1 55 -59 55q-66 0 -83 -48q0 -2 -16.5 -4t-39.5 -0.5t-46 8t-39 25t-16 47.5q0 70 60 101.5t193 31.5q145 0 211 -55t66 -170v-271q0 -10 -29 -18.5t-63 -8.5q-96 0 -127 86q-22 -40 -65.5 -62.5
t-99.5 -22.5zM289 538q-61 0 -98 36.5t-37 92.5t38 92.5t99 36.5t98 -36.5t37 -92.5t-38 -92.5t-99 -36.5zM270 123q28 0 45 14t19 39v30h-27q-80 0 -80 -45q0 -18 12 -28t31 -10zM290 627q16 0 27.5 11.5t11.5 28.5t-11.5 29t-27.5 12t-27.5 -12t-11.5 -29t11 -28.5
t28 -11.5z" />
    <glyph glyph-name="ae" unicode="&#xe6;" horiz-adv-x="874" 
d="M186 -10q-75 0 -122.5 39.5t-47.5 104.5q0 79 77 120.5t217 41.5h24q-1 55 -59 55q-66 0 -83 -48q0 -2 -16.5 -4t-39.5 -0.5t-46 8t-39 25t-16 47.5q0 69 55.5 101t173.5 32q116 0 174 -46q61 46 152 46q117 0 193 -71t76 -178v-10q-2 -54 -42 -54h-304q16 -60 98 -60
q38 0 67 14t41 37q0 3 26.5 -1t53.5 -25t27 -60q0 -57 -57.5 -88t-164.5 -31q-160 0 -221 97q-26 -41 -78.5 -66.5t-118.5 -25.5zM587 368q-29 0 -48.5 -20t-21.5 -50h137q-3 70 -67 70zM270 123q29 0 46.5 16t17.5 43v25h-27q-80 0 -80 -46q0 -18 12 -28t31 -10z" />
    <glyph glyph-name="ccedilla" unicode="&#xe7;" horiz-adv-x="510" 
d="M288 -15q-123 0 -196.5 72.5t-73.5 191.5q0 115 75 188.5t195 73.5q58 0 101.5 -13.5t66.5 -34.5t34 -42.5t11 -42.5q0 -41 -30 -66.5t-59.5 -32t-32.5 -0.5q-20 52 -77 52q-34 0 -55.5 -23t-21.5 -59q0 -37 21.5 -60.5t55.5 -23.5q58 0 77 52q2 6 32 0.5t60 -31.5
t30 -70q0 -47 -54 -89t-159 -42zM272 -220q-25 -13 -53.5 -13t-49.5 13.5t-15 32.5l26 87q10 33 30 46.5t72 13.5h26q89 0 89 -60v-6q0 -35 -52 -68z" />
    <glyph glyph-name="egrave" unicode="&#xe8;" horiz-adv-x="574" 
d="M304 -15q-134 0 -210 68.5t-76 190.5q0 116 76.5 192t195.5 76q117 0 193 -71t76 -178v-10q-2 -54 -42 -54h-303q18 -60 99 -60q37 0 65.5 14t40.5 37q0 3 26.5 -1t53.5 -25t27 -60q0 -57 -57.5 -88t-164.5 -31zM174 563q-29 15 -46.5 45.5t-17.5 61.5q0 38 30.5 63.5
t74.5 25.5q29 0 56 -15q46 -25 79.5 -89t23.5 -83q-6 -12 -35 -22.5t-76 -9.5t-89 23zM287 368q-29 0 -48.5 -20t-21.5 -50h137q-3 70 -67 70z" />
    <glyph glyph-name="eacute" unicode="&#xe9;" horiz-adv-x="574" 
d="M304 -15q-134 0 -210 68.5t-76 190.5q0 116 76.5 192t195.5 76q117 0 193 -71t76 -178v-10q-2 -54 -42 -54h-303q18 -60 99 -60q37 0 65.5 14t40.5 37q0 3 26.5 -1t53.5 -25t27 -60q0 -57 -57.5 -88t-164.5 -31zM287 368q-29 0 -48.5 -20t-21.5 -50h137q-3 70 -67 70z
M192 572q-10 19 23.5 83t79.5 89q30 15 56 15q44 0 74.5 -25.5t30.5 -63.5q0 -31 -17.5 -61.5t-46.5 -45.5q-42 -22 -89 -23t-76 9.5t-35 22.5z" />
    <glyph glyph-name="ecircumflex" unicode="&#xea;" horiz-adv-x="574" 
d="M304 -15q-134 0 -210 68.5t-76 190.5q0 116 76.5 192t195.5 76q117 0 193 -71t76 -178v-10q-2 -54 -42 -54h-303q18 -60 99 -60q37 0 65.5 14t40.5 37q0 3 26.5 -1t53.5 -25t27 -60q0 -57 -57.5 -88t-164.5 -31zM187 538q-33 0 -54 20t-21 50q0 53 54 96t123 62
q69 -19 123 -62t54 -96q0 -30 -21 -50t-54 -20q-34 0 -62 23t-40 60q-12 -37 -40.5 -60t-61.5 -23zM287 368q-29 0 -48.5 -20t-21.5 -50h137q-3 70 -67 70z" />
    <glyph glyph-name="edieresis" unicode="&#xeb;" horiz-adv-x="574" 
d="M304 -15q-134 0 -210 68.5t-76 190.5q0 116 76.5 192t195.5 76q117 0 193 -71t76 -178v-10q-2 -54 -42 -54h-303q18 -60 99 -60q37 0 65.5 14t40.5 37q0 3 26.5 -1t53.5 -25t27 -60q0 -57 -57.5 -88t-164.5 -31zM168 538q-48 0 -75.5 26.5t-27.5 74.5q0 47 27 74t72 27
q49 0 76.5 -26.5t27.5 -74.5q0 -47 -27 -74t-73 -27zM414 538q-49 0 -76.5 26.5t-27.5 74.5q0 47 27 74t73 27q48 0 75.5 -26.5t27.5 -74.5q0 -47 -27 -74t-72 -27zM287 368q-29 0 -48.5 -20t-21.5 -50h137q-3 70 -67 70z" />
    <glyph glyph-name="igrave" unicode="&#xec;" horiz-adv-x="312" 
d="M146 -5q-51 0 -79 25.5t-28 87.5v287q0 113 105 113h24q51 0 78 -25.5t27 -87.5v-287q0 -113 -103 -113h-24zM58 563q-29 15 -46.5 45.5t-17.5 61.5q0 38 30.5 63.5t74.5 25.5q29 0 56 -15q46 -25 79.5 -89t23.5 -83q-6 -12 -35 -22.5t-76 -9.5t-89 23z" />
    <glyph glyph-name="iacute" unicode="&#xed;" horiz-adv-x="312" 
d="M146 -5q-51 0 -79 25.5t-28 87.5v287q0 113 105 113h24q51 0 78 -25.5t27 -87.5v-287q0 -113 -103 -113h-24zM46 572q-10 19 23.5 83t79.5 89q30 15 56 15q44 0 74.5 -25.5t30.5 -63.5q0 -31 -17.5 -61.5t-46.5 -45.5q-42 -22 -89 -23t-76 9.5t-35 22.5z" />
    <glyph glyph-name="icircumflex" unicode="&#xee;" horiz-adv-x="312" 
d="M146 -5q-51 0 -79 25.5t-28 87.5v287q0 113 105 113h24q51 0 78 -25.5t27 -87.5v-287q0 -113 -103 -113h-24zM51 538q-33 0 -54 20t-21 50q0 53 54 96t123 62q69 -19 123 -62t54 -96q0 -30 -21 -50t-54 -20q-34 0 -62 23t-40 60q-12 -37 -40.5 -60t-61.5 -23z" />
    <glyph glyph-name="idieresis" unicode="&#xef;" horiz-adv-x="312" 
d="M146 -5q-51 0 -79 25.5t-28 87.5v287q0 113 105 113h24q51 0 78 -25.5t27 -87.5v-287q0 -113 -103 -113h-24zM278 538q-49 0 -76.5 26.5t-27.5 74.5q0 47 27 74t73 27q48 0 75.5 -26.5t27.5 -74.5q0 -47 -27 -74t-72 -27zM32 538q-48 0 -75.5 26.5t-27.5 74.5q0 47 27 74
t72 27q49 0 76.5 -26.5t27.5 -74.5q0 -47 -27 -74t-73 -27z" />
    <glyph glyph-name="eth" unicode="&#xf0;" horiz-adv-x="641" 
d="M226 510q-36 -17 -65 -9t-39 39l-2 6q-16 51 17 80q-25 9 -44 14q-1 2 -1 13t13 28t30.5 32.5t51.5 27t76 11.5q48 0 96 -16l99 47q55 26 101 -30l5 -6q19 -23 5.5 -51.5t-50.5 -46.5l-18 -8q59 -64 91.5 -150t32.5 -172q0 -151 -87 -242.5t-229 -91.5
q-133 0 -212.5 67.5t-79.5 188.5q0 106 64.5 175t166.5 69q87 0 134 -64q-26 70 -88 121zM312 162q33 0 53.5 17.5t20.5 49.5v61q-24 42 -71 42q-33 0 -55.5 -25.5t-22.5 -60.5q0 -34 21.5 -59t53.5 -25z" />
    <glyph glyph-name="ntilde" unicode="&#xf1;" horiz-adv-x="626" 
d="M127 508q100 0 131 -92q64 96 165 96q90 0 131 -55t41 -136v-213q0 -113 -103 -113h-24q-51 0 -79 25.5t-28 87.5v170q0 21 -11.5 33.5t-31.5 12.5q-29 0 -48 -19v-197q0 -113 -103 -113h-24q-51 0 -79 25.5t-28 87.5v373q0 4 12.5 10.5t34.5 11.5t44 5zM203 538
q-32 0 -53 22t-21 53q0 55 33.5 86.5t80.5 31.5q77 0 129 -55q20 55 71 55q32 0 53 -22.5t21 -53.5q0 -55 -33.5 -86t-80.5 -31q-78 0 -129 55q-20 -55 -71 -55z" />
    <glyph glyph-name="ograve" unicode="&#xf2;" horiz-adv-x="594" 
d="M295 -15q-128 0 -202.5 71t-74.5 193q0 119 77 191t204 72t202 -71.5t75 -191.5q0 -121 -76 -192.5t-205 -71.5zM297 162q37 0 60.5 24.5t23.5 62.5q0 39 -23.5 63.5t-60.5 24.5t-60.5 -24.5t-23.5 -63.5t23 -63t61 -24zM182 563q-29 15 -46.5 45.5t-17.5 61.5
q0 38 30.5 63.5t74.5 25.5q29 0 56 -15q46 -25 79.5 -89t23.5 -83q-6 -12 -35 -22.5t-76 -9.5t-89 23z" />
    <glyph glyph-name="oacute" unicode="&#xf3;" horiz-adv-x="594" 
d="M295 -15q-128 0 -202.5 71t-74.5 193q0 119 77 191t204 72t202 -71.5t75 -191.5q0 -121 -76 -192.5t-205 -71.5zM297 162q37 0 60.5 24.5t23.5 62.5q0 39 -23.5 63.5t-60.5 24.5t-60.5 -24.5t-23.5 -63.5t23 -63t61 -24zM210 572q-10 19 23.5 83t79.5 89q30 15 56 15
q44 0 74.5 -25.5t30.5 -63.5q0 -31 -17.5 -61.5t-46.5 -45.5q-42 -22 -89 -23t-76 9.5t-35 22.5z" />
    <glyph glyph-name="ocircumflex" unicode="&#xf4;" horiz-adv-x="594" 
d="M295 -15q-128 0 -202.5 71t-74.5 193q0 119 77 191t204 72t202 -71.5t75 -191.5q0 -121 -76 -192.5t-205 -71.5zM195 538q-33 0 -54 20t-21 50q0 53 54 96t123 62q69 -19 123 -62t54 -96q0 -30 -21 -50t-54 -20q-34 0 -62 23t-40 60q-12 -37 -40.5 -60t-61.5 -23z
M297 162q37 0 60.5 24.5t23.5 62.5q0 39 -23.5 63.5t-60.5 24.5t-60.5 -24.5t-23.5 -63.5t23 -63t61 -24z" />
    <glyph glyph-name="otilde" unicode="&#xf5;" horiz-adv-x="594" 
d="M295 -15q-128 0 -202.5 71t-74.5 193q0 119 77 191t204 72t202 -71.5t75 -191.5q0 -121 -76 -192.5t-205 -71.5zM297 162q37 0 60.5 24.5t23.5 62.5q0 39 -23.5 63.5t-60.5 24.5t-60.5 -24.5t-23.5 -63.5t23 -63t61 -24zM177 538q-32 0 -53 22t-21 53q0 55 33.5 86.5
t80.5 31.5q77 0 129 -55q20 55 71 55q32 0 53 -22.5t21 -53.5q0 -55 -33.5 -86t-80.5 -31q-78 0 -129 55q-20 -55 -71 -55z" />
    <glyph glyph-name="odieresis" unicode="&#xf6;" horiz-adv-x="594" 
d="M295 -15q-128 0 -202.5 71t-74.5 193q0 119 77 191t204 72t202 -71.5t75 -191.5q0 -121 -76 -192.5t-205 -71.5zM297 162q37 0 60.5 24.5t23.5 62.5q0 39 -23.5 63.5t-60.5 24.5t-60.5 -24.5t-23.5 -63.5t23 -63t61 -24zM422 538q-49 0 -76.5 26.5t-27.5 74.5q0 47 27 74
t73 27q48 0 75.5 -26.5t27.5 -74.5q0 -47 -27 -74t-72 -27zM176 538q-48 0 -75.5 26.5t-27.5 74.5q0 47 27 74t72 27q49 0 76.5 -26.5t27.5 -74.5q0 -47 -27 -74t-73 -27z" />
    <glyph glyph-name="divide" unicode="&#xf7;" horiz-adv-x="600" 
d="M287 376q-75 0 -75 76v15q0 76 75 76h23q77 0 77 -76v-15q0 -76 -77 -76h-23zM287 -44q-75 0 -75 76v15q0 76 75 76h23q40 0 58.5 -18.5t18.5 -57.5v-15q0 -76 -77 -76h-23zM119 163q-44 0 -67.5 21.5t-23.5 59.5v9q0 37 23.5 58.5t67.5 21.5h361q45 0 68 -21.5t23 -58.5
v-9q0 -38 -23 -59.5t-68 -21.5h-361z" />
    <glyph glyph-name="oslash" unicode="&#xf8;" horiz-adv-x="594" 
d="M85 -85q-5 -5 -27 1t-43.5 24t-21.5 41q0 22 23 46l54 59q-52 69 -52 163q0 113 78.5 188t202.5 75q70 0 130 -27l92 102q5 5 27 -1t43 -23t21 -40t-22 -48l-63 -70q49 -66 49 -156q0 -115 -78 -189.5t-203 -74.5q-71 0 -125 24zM199 206l132 148q-18 5 -34 5
q-44 0 -75 -32t-31 -78q0 -17 8 -43zM297 141q43 0 74.5 32t31.5 76q0 18 -7 39l-128 -143q12 -4 29 -4z" />
    <glyph glyph-name="ugrave" unicode="&#xf9;" horiz-adv-x="626" 
d="M499 -5q-99 0 -131 89q-63 -98 -165 -98q-90 0 -131 55t-41 136v218q0 113 103 113h24q51 0 79 -25.5t28 -87.5v-175q0 -21 11.5 -33.5t31.5 -12.5q29 0 48 19v202q0 113 103 113h24q51 0 79 -25.5t28 -87.5v-373q0 -4 -12.5 -10.5t-34.5 -11.5t-44 -5zM198 563
q-29 15 -46.5 45.5t-17.5 61.5q0 38 30.5 63.5t74.5 25.5q29 0 56 -15q46 -25 79.5 -89t23.5 -83q-6 -12 -35 -22.5t-76 -9.5t-89 23z" />
    <glyph glyph-name="uacute" unicode="&#xfa;" horiz-adv-x="626" 
d="M499 -5q-99 0 -131 89q-63 -98 -165 -98q-90 0 -131 55t-41 136v218q0 113 103 113h24q51 0 79 -25.5t28 -87.5v-175q0 -21 11.5 -33.5t31.5 -12.5q29 0 48 19v202q0 113 103 113h24q51 0 79 -25.5t28 -87.5v-373q0 -4 -12.5 -10.5t-34.5 -11.5t-44 -5zM226 572
q-10 19 23.5 83t79.5 89q30 15 56 15q44 0 74.5 -25.5t30.5 -63.5q0 -31 -17.5 -61.5t-46.5 -45.5q-42 -22 -89 -23t-76 9.5t-35 22.5z" />
    <glyph glyph-name="ucircumflex" unicode="&#xfb;" horiz-adv-x="626" 
d="M499 -5q-99 0 -131 89q-63 -98 -165 -98q-90 0 -131 55t-41 136v218q0 113 103 113h24q51 0 79 -25.5t28 -87.5v-175q0 -21 11.5 -33.5t31.5 -12.5q29 0 48 19v202q0 113 103 113h24q51 0 79 -25.5t28 -87.5v-373q0 -4 -12.5 -10.5t-34.5 -11.5t-44 -5zM211 538
q-33 0 -54 20t-21 50q0 53 54 96t123 62q69 -19 123 -62t54 -96q0 -30 -21 -50t-54 -20q-34 0 -62 23t-40 60q-12 -37 -40.5 -60t-61.5 -23z" />
    <glyph glyph-name="udieresis" unicode="&#xfc;" horiz-adv-x="626" 
d="M499 -5q-99 0 -131 89q-63 -98 -165 -98q-90 0 -131 55t-41 136v218q0 113 103 113h24q51 0 79 -25.5t28 -87.5v-175q0 -21 11.5 -33.5t31.5 -12.5q29 0 48 19v202q0 113 103 113h24q51 0 79 -25.5t28 -87.5v-373q0 -4 -12.5 -10.5t-34.5 -11.5t-44 -5zM192 538
q-48 0 -75.5 26.5t-27.5 74.5q0 47 27 74t72 27q49 0 76.5 -26.5t27.5 -74.5q0 -47 -27 -74t-73 -27zM438 538q-49 0 -76.5 26.5t-27.5 74.5q0 47 27 74t73 27q48 0 75.5 -26.5t27.5 -74.5q0 -47 -27 -74t-72 -27z" />
    <glyph glyph-name="yacute" unicode="&#xfd;" horiz-adv-x="603" 
d="M263 -185q-32 0 -64 14t-48.5 29t-13.5 22l82 160q-41 13 -52 39l-162 363q-3 6 16 22t52.5 31t64.5 15q88 0 116 -101l50 -165l50 165q30 101 115 101q31 0 63.5 -14.5t50 -30.5t14.5 -23l-213 -528q-40 -99 -121 -99zM218 572q-10 19 23.5 83t79.5 89q30 15 56 15
q44 0 74.5 -25.5t30.5 -63.5q0 -31 -17.5 -61.5t-46.5 -45.5q-42 -22 -89 -23t-76 9.5t-35 22.5z" />
    <glyph glyph-name="thorn" unicode="&#xfe;" horiz-adv-x="649" 
d="M405 -15q-83 0 -135 59v-123q0 -113 -103 -113h-24q-51 0 -79 25.5t-28 87.5v764q0 4 12.5 10.5t34.5 11.5t44 5q27 0 50.5 -8t45.5 -26.5t34.5 -54t12.5 -85.5v-93q57 67 135 67q104 0 165 -71.5t61 -193.5t-60.5 -192t-165.5 -70zM336 165q34 0 54.5 23t20.5 60
q0 40 -20 62t-55 22q-45 0 -66 -37v-67q0 -63 66 -63z" />
    <glyph glyph-name="ydieresis" unicode="&#xff;" horiz-adv-x="603" 
d="M263 -185q-32 0 -64 14t-48.5 29t-13.5 22l82 160q-41 13 -52 39l-162 363q-3 6 16 22t52.5 31t64.5 15q88 0 116 -101l50 -165l50 165q30 101 115 101q31 0 63.5 -14.5t50 -30.5t14.5 -23l-213 -528q-40 -99 -121 -99zM430 538q-49 0 -76.5 26.5t-27.5 74.5q0 47 27 74
t73 27q48 0 75.5 -26.5t27.5 -74.5q0 -47 -27 -74t-72 -27zM184 538q-48 0 -75.5 26.5t-27.5 74.5q0 47 27 74t72 27q49 0 76.5 -26.5t27.5 -74.5q0 -47 -27 -74t-73 -27z" />
    <glyph glyph-name="Amacron" unicode="&#x100;" horiz-adv-x="714" 
d="M447 106l-1 2h-184l-2 -5q-41 -114 -133 -114q-46 0 -89 29t-36 47l201 521q9 32 42.5 49t110.5 17q76 0 107.5 -17t40.5 -49l212 -518q5 -11 -12.5 -29.5t-50.5 -33.5t-67 -15q-94 0 -139 116zM352 427l-54 -147h108zM236 679q-42 0 -66.5 21t-24.5 57v9q0 35 25 56
t66 21h242q42 0 66.5 -21t24.5 -56v-9q0 -36 -24 -57t-67 -21h-242z" />
    <glyph glyph-name="amacron" unicode="&#x101;" horiz-adv-x="597" 
d="M181 -10q-74 0 -119.5 39.5t-45.5 104.5q0 79 77 120.5t217 41.5h24q-1 55 -59 55q-66 0 -83 -48q0 -2 -16.5 -4t-39.5 -0.5t-46 8t-39 25t-16 47.5q0 70 60 101.5t193 31.5q145 0 211 -55t66 -170v-271q0 -10 -29 -18.5t-63 -8.5q-96 0 -127 86q-22 -40 -65.5 -62.5
t-99.5 -22.5zM185 538q-42 0 -66.5 21t-24.5 57v9q0 35 25 56t66 21h242q42 0 66.5 -21t24.5 -56v-9q0 -36 -24 -57t-67 -21h-242zM270 123q28 0 45 14t19 39v30h-27q-80 0 -80 -45q0 -18 12 -28t31 -10z" />
    <glyph glyph-name="Abreve" unicode="&#x102;" horiz-adv-x="714" 
d="M447 106l-1 2h-184l-2 -5q-41 -114 -133 -114q-46 0 -89 29t-36 47l201 521q9 32 42.5 49t110.5 17q76 0 107.5 -17t40.5 -49l212 -518q5 -11 -12.5 -29.5t-50.5 -33.5t-67 -15q-94 0 -139 116zM357 679q-77 0 -137 40.5t-60 96.5q0 29 21.5 50.5t55.5 21.5q33 0 67 -25
t53 -67q19 42 53 67t67 25q34 0 55.5 -21.5t21.5 -50.5q0 -56 -60 -96.5t-137 -40.5zM352 427l-54 -147h108z" />
    <glyph glyph-name="abreve" unicode="&#x103;" horiz-adv-x="597" 
d="M181 -10q-74 0 -119.5 39.5t-45.5 104.5q0 79 77 120.5t217 41.5h24q-1 55 -59 55q-66 0 -83 -48q0 -2 -16.5 -4t-39.5 -0.5t-46 8t-39 25t-16 47.5q0 70 60 101.5t193 31.5q145 0 211 -55t66 -170v-271q0 -10 -29 -18.5t-63 -8.5q-96 0 -127 86q-22 -40 -65.5 -62.5
t-99.5 -22.5zM270 123q28 0 45 14t19 39v30h-27q-80 0 -80 -45q0 -18 12 -28t31 -10zM304 538q-77 0 -137 40.5t-60 96.5q0 29 21.5 50.5t55.5 21.5q33 0 67 -25t53 -67q19 42 53 67t67 25q34 0 55.5 -21.5t21.5 -50.5q0 -56 -60 -96.5t-137 -40.5z" />
    <glyph glyph-name="Aogonek" unicode="&#x104;" horiz-adv-x="714" 
d="M447 106l-1 2h-184l-2 -5q-41 -114 -133 -114q-46 0 -89 29t-36 47l201 521q9 32 42.5 49t110.5 17q76 0 107.5 -17t40.5 -49l212 -518q7 -17 -27 -42q-41 -41 -55.5 -59.5t-14.5 -33.5q0 -26 26 -26q20 0 30 17q17 -3 27.5 -18.5t10.5 -35.5q0 -35 -26 -57t-78 -22
q-61 0 -95 25.5t-34 72.5q0 31 21.5 59t56.5 45q-72 14 -111 113zM352 427l-54 -147h108z" />
    <glyph glyph-name="aogonek" unicode="&#x105;" horiz-adv-x="597" 
d="M181 -10q-74 0 -119.5 39.5t-45.5 104.5q0 79 77 120.5t217 41.5h24q-1 55 -59 55q-66 0 -83 -48q0 -2 -16.5 -4t-39.5 -0.5t-46 8t-39 25t-16 47.5q0 70 60 101.5t193 31.5q145 0 211 -55t66 -170v-271q0 -5 -8 -10q-38 -38 -52 -56t-14 -33q0 -26 26 -26q20 0 30 17
q17 -3 27.5 -18.5t10.5 -35.5q0 -35 -26 -57t-78 -22q-61 0 -95 25.5t-34 72.5q0 38 32 71t78 45q-87 5 -116 86q-22 -40 -65.5 -62.5t-99.5 -22.5zM270 123q28 0 45 14t19 39v30h-27q-80 0 -80 -45q0 -18 12 -28t31 -10z" />
    <glyph glyph-name="Cacute" unicode="&#x106;" horiz-adv-x="646" 
d="M367 -15q-154 0 -249.5 95t-95.5 244q0 148 96 243t249 95q131 0 195 -53t64 -116q0 -28 -14.5 -51t-34 -35t-41 -21.5t-35.5 -9.5h-16q-30 61 -103 61q-47 0 -78 -30.5t-31 -82.5t31 -83t78 -31q73 0 103 61h16t35.5 -9.5t41 -21.5t34 -35t14.5 -51q0 -63 -64 -116
t-195 -53zM248 713q-10 19 23.5 83t79.5 89q30 15 56 15q44 0 74.5 -25.5t30.5 -63.5q0 -31 -17.5 -61.5t-46.5 -45.5q-42 -22 -89 -23t-76 9.5t-35 22.5z" />
    <glyph glyph-name="cacute" unicode="&#x107;" horiz-adv-x="510" 
d="M288 -15q-123 0 -196.5 72.5t-73.5 191.5q0 115 75 188.5t195 73.5q58 0 101.5 -13.5t66.5 -34.5t34 -42.5t11 -42.5q0 -41 -30 -66.5t-59.5 -32t-32.5 -0.5q-20 52 -77 52q-34 0 -55.5 -23t-21.5 -59q0 -37 21.5 -60.5t55.5 -23.5q58 0 77 52q2 6 32 0.5t60 -31.5
t30 -70q0 -47 -54 -89t-159 -42zM175 572q-10 19 23.5 83t79.5 89q30 15 56 15q44 0 74.5 -25.5t30.5 -63.5q0 -31 -17.5 -61.5t-46.5 -45.5q-42 -22 -89 -23t-76 9.5t-35 22.5z" />
    <glyph glyph-name="Ccircumflex" unicode="&#x108;" horiz-adv-x="646" 
d="M367 -15q-154 0 -249.5 95t-95.5 244q0 148 96 243t249 95q131 0 195 -53t64 -116q0 -28 -14.5 -51t-34 -35t-41 -21.5t-35.5 -9.5h-16q-30 61 -103 61q-47 0 -78 -30.5t-31 -82.5t31 -83t78 -31q73 0 103 61h16t35.5 -9.5t41 -21.5t34 -35t14.5 -51q0 -63 -64 -116
t-195 -53zM257 679q-33 0 -54 20t-21 50q0 53 54 96t123 62q69 -19 123 -62t54 -96q0 -30 -21 -50t-54 -20q-34 0 -62 23t-40 60q-12 -37 -40.5 -60t-61.5 -23z" />
    <glyph glyph-name="ccircumflex" unicode="&#x109;" horiz-adv-x="510" 
d="M288 -15q-123 0 -196.5 72.5t-73.5 191.5q0 115 75 188.5t195 73.5q58 0 101.5 -13.5t66.5 -34.5t34 -42.5t11 -42.5q0 -41 -30 -66.5t-59.5 -32t-32.5 -0.5q-20 52 -77 52q-34 0 -55.5 -23t-21.5 -59q0 -37 21.5 -60.5t55.5 -23.5q58 0 77 52q2 6 32 0.5t60 -31.5
t30 -70q0 -47 -54 -89t-159 -42zM183 538q-33 0 -54 20t-21 50q0 53 54 96t123 62q69 -19 123 -62t54 -96q0 -30 -21 -50t-54 -20q-34 0 -62 23t-40 60q-12 -37 -40.5 -60t-61.5 -23z" />
    <glyph glyph-name="Cdotaccent" unicode="&#x10a;" horiz-adv-x="646" 
d="M367 -15q-154 0 -249.5 95t-95.5 244q0 148 96 243t249 95q131 0 195 -53t64 -116q0 -28 -14.5 -51t-34 -35t-41 -21.5t-35.5 -9.5h-16q-30 61 -103 61q-47 0 -78 -30.5t-31 -82.5t31 -83t78 -31q73 0 103 61h16t35.5 -9.5t41 -21.5t34 -35t14.5 -51q0 -63 -64 -116
t-195 -53zM363 679q-50 0 -79.5 29t-29.5 75q0 45 30.5 74.5t80.5 29.5q49 0 79 -29.5t30 -74.5q0 -46 -30.5 -75t-80.5 -29z" />
    <glyph glyph-name="cdotaccent" unicode="&#x10b;" horiz-adv-x="510" 
d="M288 -15q-123 0 -196.5 72.5t-73.5 191.5q0 115 75 188.5t195 73.5q58 0 101.5 -13.5t66.5 -34.5t34 -42.5t11 -42.5q0 -41 -30 -66.5t-59.5 -32t-32.5 -0.5q-20 52 -77 52q-34 0 -55.5 -23t-21.5 -59q0 -37 21.5 -60.5t55.5 -23.5q58 0 77 52q2 6 32 0.5t60 -31.5
t30 -70q0 -47 -54 -89t-159 -42zM279 538q-50 0 -79.5 29t-29.5 75q0 45 30.5 74.5t80.5 29.5q49 0 79 -29.5t30 -74.5q0 -46 -30.5 -75t-80.5 -29z" />
    <glyph glyph-name="Ccaron" unicode="&#x10c;" horiz-adv-x="646" 
d="M367 -15q-154 0 -249.5 95t-95.5 244q0 148 96 243t249 95q131 0 195 -53t64 -116q0 -28 -14.5 -51t-34 -35t-41 -21.5t-35.5 -9.5h-16q-30 61 -103 61q-47 0 -78 -30.5t-31 -82.5t31 -83t78 -31q73 0 103 61h16t35.5 -9.5t41 -21.5t34 -35t14.5 -51q0 -63 -64 -116
t-195 -53zM461 897q33 0 54 -20t21 -50q0 -53 -54 -96t-123 -63q-69 20 -123 63t-54 96q0 30 21 50t54 20t61.5 -23.5t40.5 -59.5q12 36 40.5 59.5t61.5 23.5z" />
    <glyph glyph-name="ccaron" unicode="&#x10d;" horiz-adv-x="510" 
d="M288 -15q-123 0 -196.5 72.5t-73.5 191.5q0 115 75 188.5t195 73.5q58 0 101.5 -13.5t66.5 -34.5t34 -42.5t11 -42.5q0 -41 -30 -66.5t-59.5 -32t-32.5 -0.5q-20 52 -77 52q-34 0 -55.5 -23t-21.5 -59q0 -37 21.5 -60.5t55.5 -23.5q58 0 77 52q2 6 32 0.5t60 -31.5
t30 -70q0 -47 -54 -89t-159 -42zM384 756q33 0 54 -20t21 -50q0 -53 -54 -96t-123 -63q-69 20 -123 63t-54 96q0 30 21 50t54 20t61.5 -23.5t40.5 -59.5q12 36 40.5 59.5t61.5 23.5z" />
    <glyph glyph-name="Dcaron" unicode="&#x10e;" horiz-adv-x="696" 
d="M171 0q-57 0 -96.5 39t-39.5 95v377q0 66 34.5 101t91.5 35h177q157 0 249 -86.5t92 -233.5q0 -149 -93.5 -238t-250.5 -89h-164zM427 897q33 0 54 -20t21 -50q0 -53 -54 -96t-123 -63q-69 20 -123 63t-54 96q0 30 21 50t54 20t61.5 -23.5t40.5 -59.5q12 36 40.5 59.5
t61.5 23.5zM277 207h50q49 0 80.5 32t31.5 88q0 54 -29.5 83.5t-79.5 29.5h-53v-233z" />
    <glyph glyph-name="dcaron" unicode="&#x10f;" horiz-adv-x="902" 
d="M244 -15q-103 0 -164.5 73.5t-61.5 191.5q0 121 61 191.5t166 70.5q87 0 134 -63v236q0 4 12.5 10.5t34.5 11.5t44 5q27 0 50.5 -8t45.5 -26.5t34.5 -54t12.5 -85.5v-430q0 -113 -103 -113h-24q-92 0 -105 81q-16 -42 -52.5 -66.5t-84.5 -24.5zM763 425
q-25 -20 -53.5 -20t-49.5 21t-15 52l26 135q10 51 30 72t72 21h26q89 0 89 -93v-9q0 -56 -52 -107zM313 165q66 0 66 63v69q-22 35 -63 35q-36 0 -57 -22t-21 -62q0 -37 20.5 -60t54.5 -23z" />
    <glyph glyph-name="dcroat" unicode="&#x111;" horiz-adv-x="649" 
d="M244 -15q-103 0 -164.5 73.5t-61.5 191.5q0 121 61 191.5t166 70.5q87 0 134 -63v109h-50q-39 0 -39 28v15q0 29 39 29h50v55q0 4 12.5 10.5t34.5 11.5t44 5q93 0 127 -82h36q39 0 39 -29v-15q0 -28 -39 -28h-21q1 -7 1 -20v-430q0 -113 -103 -113h-24q-92 0 -105 81
q-16 -42 -52.5 -66.5t-84.5 -24.5zM313 165q66 0 66 63v69q-22 35 -63 35q-36 0 -57 -22t-21 -62q0 -37 20.5 -60t54.5 -23z" />
    <glyph glyph-name="Emacron" unicode="&#x112;" horiz-adv-x="629" 
d="M159 0q-124 0 -124 134v377q0 136 124 136h330q58 0 85.5 -22.5t27.5 -70.5v-5q0 -50 -27 -71t-86 -21h-209v-43h123q61 0 87 -19.5t26 -63.5v-3q0 -47 -26.5 -68t-86.5 -21h-123v-51h213q59 0 86 -19.5t27 -66.5v-5q0 -50 -27 -73.5t-86 -23.5h-334zM197 679
q-42 0 -66.5 21t-24.5 57v9q0 35 25 56t66 21h242q42 0 66.5 -21t24.5 -56v-9q0 -36 -24 -57t-67 -21h-242z" />
    <glyph glyph-name="emacron" unicode="&#x113;" horiz-adv-x="574" 
d="M304 -15q-134 0 -210 68.5t-76 190.5q0 116 76.5 192t195.5 76q117 0 193 -71t76 -178v-10q-2 -54 -42 -54h-303q18 -60 99 -60q37 0 65.5 14t40.5 37q0 3 26.5 -1t53.5 -25t27 -60q0 -57 -57.5 -88t-164.5 -31zM173 538q-42 0 -66.5 21t-24.5 57v9q0 35 25 56t66 21h242
q42 0 66.5 -21t24.5 -56v-9q0 -36 -24 -57t-67 -21h-242zM287 368q-29 0 -48.5 -20t-21.5 -50h137q-3 70 -67 70z" />
    <glyph glyph-name="Ebreve" unicode="&#x114;" horiz-adv-x="629" 
d="M159 0q-124 0 -124 134v377q0 136 124 136h330q58 0 85.5 -22.5t27.5 -70.5v-5q0 -50 -27 -71t-86 -21h-209v-43h123q61 0 87 -19.5t26 -63.5v-3q0 -47 -26.5 -68t-86.5 -21h-123v-51h213q59 0 86 -19.5t27 -66.5v-5q0 -50 -27 -73.5t-86 -23.5h-334zM328 679
q-77 0 -137 40.5t-60 96.5q0 29 21.5 50.5t55.5 21.5q33 0 67 -25t53 -67q19 42 53 67t67 25q34 0 55.5 -21.5t21.5 -50.5q0 -56 -60 -96.5t-137 -40.5z" />
    <glyph glyph-name="ebreve" unicode="&#x115;" horiz-adv-x="574" 
d="M304 -15q-134 0 -210 68.5t-76 190.5q0 116 76.5 192t195.5 76q117 0 193 -71t76 -178v-10q-2 -54 -42 -54h-303q18 -60 99 -60q37 0 65.5 14t40.5 37q0 3 26.5 -1t53.5 -25t27 -60q0 -57 -57.5 -88t-164.5 -31zM293 538q-77 0 -137 40.5t-60 96.5q0 29 21.5 50.5
t55.5 21.5q33 0 67 -25t53 -67q19 42 53 67t67 25q34 0 55.5 -21.5t21.5 -50.5q0 -56 -60 -96.5t-137 -40.5zM287 368q-29 0 -48.5 -20t-21.5 -50h137q-3 70 -67 70z" />
    <glyph glyph-name="Edotaccent" unicode="&#x116;" horiz-adv-x="629" 
d="M159 0q-124 0 -124 134v377q0 136 124 136h330q58 0 85.5 -22.5t27.5 -70.5v-5q0 -50 -27 -71t-86 -21h-209v-43h123q61 0 87 -19.5t26 -63.5v-3q0 -47 -26.5 -68t-86.5 -21h-123v-51h213q59 0 86 -19.5t27 -66.5v-5q0 -50 -27 -73.5t-86 -23.5h-334zM327 679
q-50 0 -79.5 29t-29.5 75q0 45 30.5 74.5t80.5 29.5q49 0 79 -29.5t30 -74.5q0 -46 -30.5 -75t-80.5 -29z" />
    <glyph glyph-name="edotaccent" unicode="&#x117;" horiz-adv-x="574" 
d="M304 -15q-134 0 -210 68.5t-76 190.5q0 116 76.5 192t195.5 76q117 0 193 -71t76 -178v-10q-2 -54 -42 -54h-303q18 -60 99 -60q37 0 65.5 14t40.5 37q0 3 26.5 -1t53.5 -25t27 -60q0 -57 -57.5 -88t-164.5 -31zM288 538q-50 0 -79.5 29t-29.5 75q0 45 30.5 74.5
t80.5 29.5q49 0 79 -29.5t30 -74.5q0 -46 -30.5 -75t-80.5 -29zM287 368q-29 0 -48.5 -20t-21.5 -50h137q-3 70 -67 70z" />
    <glyph glyph-name="Eogonek" unicode="&#x118;" horiz-adv-x="629" 
d="M159 0q-124 0 -124 134v377q0 136 124 136h330q58 0 85.5 -22.5t27.5 -70.5v-5q0 -50 -27 -71t-86 -21h-209v-43h123q61 0 87 -19.5t26 -63.5v-3q0 -47 -26.5 -68t-86.5 -21h-123v-51h213q59 0 86 -19.5t27 -66.5v-5q0 -52 -30 -76q-39 -38 -53.5 -57t-14.5 -34
q0 -26 26 -26q20 0 30 17q17 -3 27.5 -18.5t10.5 -35.5q0 -35 -26 -57t-78 -22q-61 0 -95 25.5t-34 72.5q0 36 29.5 68t73.5 46h-313z" />
    <glyph glyph-name="eogonek" unicode="&#x119;" horiz-adv-x="574" 
d="M304 -15q-134 0 -210 68.5t-76 190.5q0 116 76.5 192t195.5 76q117 0 193 -71t76 -178v-10q-2 -54 -42 -54h-303q18 -60 99 -60q37 0 65.5 14t40.5 37q0 3 26.5 -1t53.5 -25t27 -60q0 -46 -36 -74q-34 -34 -47.5 -52t-13.5 -32q0 -26 26 -26q20 0 30 17q17 -3 27.5 -18.5
t10.5 -35.5q0 -35 -26 -57t-78 -22q-61 0 -95 25.5t-34 72.5q0 46 46 84q-11 -1 -32 -1zM287 368q-29 0 -48.5 -20t-21.5 -50h137q-3 70 -67 70z" />
    <glyph glyph-name="Ecaron" unicode="&#x11a;" horiz-adv-x="629" 
d="M159 0q-124 0 -124 134v377q0 136 124 136h330q58 0 85.5 -22.5t27.5 -70.5v-5q0 -50 -27 -71t-86 -21h-209v-43h123q61 0 87 -19.5t26 -63.5v-3q0 -47 -26.5 -68t-86.5 -21h-123v-51h213q59 0 86 -19.5t27 -66.5v-5q0 -50 -27 -73.5t-86 -23.5h-334zM428 897
q33 0 54 -20t21 -50q0 -53 -54 -96t-123 -63q-69 20 -123 63t-54 96q0 30 21 50t54 20t61.5 -23.5t40.5 -59.5q12 36 40.5 59.5t61.5 23.5z" />
    <glyph glyph-name="ecaron" unicode="&#x11b;" horiz-adv-x="574" 
d="M304 -15q-134 0 -210 68.5t-76 190.5q0 116 76.5 192t195.5 76q117 0 193 -71t76 -178v-10q-2 -54 -42 -54h-303q18 -60 99 -60q37 0 65.5 14t40.5 37q0 3 26.5 -1t53.5 -25t27 -60q0 -57 -57.5 -88t-164.5 -31zM398 756q33 0 54 -20t21 -50q0 -53 -54 -96t-123 -63
q-69 20 -123 63t-54 96q0 30 21 50t54 20t61.5 -23.5t40.5 -59.5q12 36 40.5 59.5t61.5 23.5zM287 368q-29 0 -48.5 -20t-21.5 -50h137q-3 70 -67 70z" />
    <glyph glyph-name="Gcircumflex" unicode="&#x11c;" horiz-adv-x="735" 
d="M625 -5q-90 0 -117 83q-50 -88 -182 -88t-218 94.5t-86 239.5q0 148 100.5 243t263.5 95q124 0 192.5 -41t68.5 -116q0 -38 -29 -66t-57.5 -37.5t-33.5 -4.5q-51 56 -124 56q-57 0 -96 -39.5t-39 -102.5q0 -65 36 -103.5t89 -38.5q67 0 89 40h-21q-60 0 -86.5 17.5
t-26.5 65.5v10q0 50 26 66t87 16h171q48 0 62 -20.5t13 -75.5v-269q0 -4 -11 -9.5t-31 -10t-40 -4.5zM269 679q-33 0 -54 20t-21 50q0 53 54 96t123 62q69 -19 123 -62t54 -96q0 -30 -21 -50t-54 -20q-34 0 -62 23t-40 60q-12 -37 -40.5 -60t-61.5 -23z" />
    <glyph glyph-name="gcircumflex" unicode="&#x11d;" horiz-adv-x="563" 
d="M275 -211q-149 0 -218 33.5t-69 101.5q0 52 41 84.5t110 40.5q-15 17 -15 44q0 21 13 38.5t34 25.5q-73 17 -112 59.5t-39 104.5q0 84 72.5 137t186.5 53q49 0 96 -13q34 67 97 67q35 0 62.5 -23.5t38.5 -47t7 -26.5l-69 -60q28 -40 28 -87q0 -80 -63 -125.5t-178 -49.5
q4 -7 20 -12t49 -12t54 -13q142 -41 142 -152q0 -76 -76.5 -122t-211.5 -46zM179 593q-33 0 -54 20t-21 50q0 53 54 96t123 62q69 -19 123 -62t54 -96q0 -30 -21 -50t-54 -20q-34 0 -62 23t-40 60q-12 -37 -40.5 -60t-61.5 -23zM279 263q25 0 41 16.5t16 43.5t-16 42.5
t-41 15.5t-41 -16t-16 -42q0 -27 16 -43.5t41 -16.5zM354 -79q0 17 -19 26.5t-62 18.5q-77 -8 -77 -46t83 -38q75 0 75 39z" />
    <glyph glyph-name="Gbreve" unicode="&#x11e;" horiz-adv-x="735" 
d="M625 -5q-90 0 -117 83q-50 -88 -182 -88t-218 94.5t-86 239.5q0 148 100.5 243t263.5 95q124 0 192.5 -41t68.5 -116q0 -38 -29 -66t-57.5 -37.5t-33.5 -4.5q-51 56 -124 56q-57 0 -96 -39.5t-39 -102.5q0 -65 36 -103.5t89 -38.5q67 0 89 40h-21q-60 0 -86.5 17.5
t-26.5 65.5v10q0 50 26 66t87 16h171q48 0 62 -20.5t13 -75.5v-269q0 -4 -11 -9.5t-31 -10t-40 -4.5zM367 679q-77 0 -137 40.5t-60 96.5q0 29 21.5 50.5t55.5 21.5q33 0 67 -25t53 -67q19 42 53 67t67 25q34 0 55.5 -21.5t21.5 -50.5q0 -56 -60 -96.5t-137 -40.5z" />
    <glyph glyph-name="gbreve" unicode="&#x11f;" horiz-adv-x="563" 
d="M275 -211q-149 0 -218 33.5t-69 101.5q0 52 41 84.5t110 40.5q-15 17 -15 44q0 21 13 38.5t34 25.5q-73 17 -112 59.5t-39 104.5q0 84 72.5 137t186.5 53q49 0 96 -13q34 67 97 67q35 0 62.5 -23.5t38.5 -47t7 -26.5l-69 -60q28 -40 28 -87q0 -80 -63 -125.5t-178 -49.5
q4 -7 20 -12t49 -12t54 -13q142 -41 142 -152q0 -76 -76.5 -122t-211.5 -46zM281 560q-77 0 -137 40.5t-60 96.5q0 29 21.5 50.5t55.5 21.5q33 0 67 -25t53 -67q19 42 53 67t67 25q34 0 55.5 -21.5t21.5 -50.5q0 -56 -60 -96.5t-137 -40.5zM279 263q25 0 41 16.5t16 43.5
t-16 42.5t-41 15.5t-41 -16t-16 -42q0 -27 16 -43.5t41 -16.5zM354 -79q0 17 -19 26.5t-62 18.5q-77 -8 -77 -46t83 -38q75 0 75 39z" />
    <glyph glyph-name="Gdotaccent" unicode="&#x120;" horiz-adv-x="735" 
d="M625 -5q-90 0 -117 83q-50 -88 -182 -88t-218 94.5t-86 239.5q0 148 100.5 243t263.5 95q124 0 192.5 -41t68.5 -116q0 -38 -29 -66t-57.5 -37.5t-33.5 -4.5q-51 56 -124 56q-57 0 -96 -39.5t-39 -102.5q0 -65 36 -103.5t89 -38.5q67 0 89 40h-21q-60 0 -86.5 17.5
t-26.5 65.5v10q0 50 26 66t87 16h171q48 0 62 -20.5t13 -75.5v-269q0 -4 -11 -9.5t-31 -10t-40 -4.5zM370 679q-50 0 -79.5 29t-29.5 75q0 45 30.5 74.5t80.5 29.5q49 0 79 -29.5t30 -74.5q0 -46 -30.5 -75t-80.5 -29z" />
    <glyph glyph-name="gdotaccent" unicode="&#x121;" horiz-adv-x="563" 
d="M280 538q-50 0 -79.5 29t-29.5 75q0 45 30.5 74.5t80.5 29.5q49 0 79 -29.5t30 -74.5q0 -46 -30.5 -75t-80.5 -29zM275 -211q-149 0 -218 33.5t-69 101.5q0 52 41 84.5t110 40.5q-15 17 -15 44q0 21 13 38.5t34 25.5q-73 17 -112 59.5t-39 104.5q0 84 72.5 137t186.5 53
q49 0 96 -13q34 67 97 67q35 0 62.5 -23.5t38.5 -47t7 -26.5l-69 -60q28 -40 28 -87q0 -80 -63 -125.5t-178 -49.5q4 -7 20 -12t49 -12t54 -13q142 -41 142 -152q0 -76 -76.5 -122t-211.5 -46zM279 263q25 0 41 16.5t16 43.5t-16 42.5t-41 15.5t-41 -16t-16 -42
q0 -27 16 -43.5t41 -16.5zM354 -79q0 17 -19 26.5t-62 18.5q-77 -8 -77 -46t83 -38q75 0 75 39z" />
    <glyph glyph-name="Gcommaaccent" unicode="&#x122;" horiz-adv-x="735" 
d="M625 -5q-90 0 -117 83q-50 -88 -182 -88t-218 94.5t-86 239.5q0 148 100.5 243t263.5 95q124 0 192.5 -41t68.5 -116q0 -38 -29 -66t-57.5 -37.5t-33.5 -4.5q-51 56 -124 56q-57 0 -96 -39.5t-39 -102.5q0 -65 36 -103.5t89 -38.5q67 0 89 40h-21q-60 0 -86.5 17.5
t-26.5 65.5v10q0 50 26 66t87 16h171q48 0 62 -20.5t13 -75.5v-269q0 -4 -11 -9.5t-31 -10t-40 -4.5zM378 -220q-25 -13 -53.5 -13t-49.5 13.5t-15 32.5l26 87q10 33 30 46.5t72 13.5h26q89 0 89 -60v-6q0 -35 -52 -68z" />
    <glyph glyph-name="gcommaaccent" unicode="&#x123;" horiz-adv-x="563" 
d="M275 -211q-149 0 -218 33.5t-69 101.5q0 52 41 84.5t110 40.5q-15 17 -15 44q0 21 13 38.5t34 25.5q-73 17 -112 59.5t-39 104.5q0 84 72.5 137t186.5 53q49 0 96 -13q34 67 97 67q35 0 62.5 -23.5t38.5 -47t7 -26.5l-69 -60q28 -40 28 -87q0 -80 -63 -125.5t-178 -49.5
q4 -7 20 -12t49 -12t54 -13q142 -41 142 -152q0 -76 -76.5 -122t-211.5 -46zM299 732q25 13 53.5 13t49.5 -13.5t15 -32.5l-26 -87q-10 -33 -30 -46.5t-72 -13.5h-26q-89 0 -89 60v6q0 35 52 68zM279 263q25 0 41 16.5t16 43.5t-16 42.5t-41 15.5t-41 -16t-16 -42
q0 -27 16 -43.5t41 -16.5zM354 -79q0 17 -19 26.5t-62 18.5q-77 -8 -77 -46t83 -38q75 0 75 39z" />
    <glyph glyph-name="Hcircumflex" unicode="&#x124;" horiz-adv-x="707" 
d="M138 -5q-103 0 -103 113v431q0 113 103 113h36q107 0 107 -113v-112h146v112q0 113 103 113h36q107 0 107 -113v-431q0 -113 -107 -113h-36q-103 0 -103 113v116h-146v-116q0 -113 -107 -113h-36zM251 679q-33 0 -54 20t-21 50q0 53 54 96t123 62q69 -19 123 -62t54 -96
q0 -30 -21 -50t-54 -20q-34 0 -62 23t-40 60q-12 -37 -40.5 -60t-61.5 -23z" />
    <glyph glyph-name="hcircumflex" unicode="&#x125;" horiz-adv-x="626" 
d="M270 538v-117q49 91 153 91q90 0 131 -58t41 -143v-203q0 -113 -103 -113h-24q-51 0 -79 25.5t-28 87.5v164q0 52 -42 52q-49 0 -49 -54v-162q0 -113 -103 -113h-24q-51 0 -79 25.5t-28 87.5v577q0 4 12.5 10.5t34.5 11.5t44 5q27 0 50.5 -8t45.5 -26.5t34.5 -54
t12.5 -85.5zM34 709q-33 0 -54 20t-21 50q0 53 54 96t123 62q69 -19 123 -62t54 -96q0 -30 -21 -50t-54 -20q-34 0 -62 23t-40 60q-12 -37 -40.5 -60t-61.5 -23z" />
    <glyph glyph-name="Hbar" unicode="&#x126;" horiz-adv-x="707" 
d="M-4 483q-39 0 -39 29v15q0 28 39 28h39q7 97 103 97h36q99 0 106 -97h147q7 97 103 97h36q99 0 106 -97h46q39 0 39 -28v-15q0 -29 -39 -29h-45v-375q0 -113 -107 -113h-36q-103 0 -103 113v116h-146v-116q0 -113 -107 -113h-36q-103 0 -103 113v375h-39zM281 427h146v56
h-146v-56z" />
    <glyph glyph-name="hbar" unicode="&#x127;" horiz-adv-x="626" 
d="M16 558q-39 0 -39 29v15q0 28 39 28h20v55q0 4 12.5 10.5t34.5 11.5t44 5q93 0 127 -82h66q39 0 39 -28v-15q0 -29 -39 -29h-51q1 -7 1 -20v-117q49 91 153 91q90 0 131 -58t41 -143v-203q0 -113 -103 -113h-24q-51 0 -79 25.5t-28 87.5v164q0 52 -42 52q-49 0 -49 -54
v-162q0 -113 -103 -113h-24q-51 0 -79 25.5t-28 87.5v450h-20z" />
    <glyph glyph-name="imacron" unicode="&#x12b;" horiz-adv-x="312" 
d="M146 -5q-51 0 -79 25.5t-28 87.5v287q0 113 105 113h24q51 0 78 -25.5t27 -87.5v-287q0 -113 -103 -113h-24zM35 538q-42 0 -66.5 21t-24.5 57v9q0 35 25 56t66 21h242q42 0 66.5 -21t24.5 -56v-9q0 -36 -24 -57t-67 -21h-242z" />
    <glyph glyph-name="Ibreve" unicode="&#x12c;" horiz-adv-x="327" 
d="M144 -5q-103 0 -103 113v431q0 113 103 113h35q107 0 107 -113v-431q0 -113 -107 -113h-35zM163 679q-77 0 -137 40.5t-60 96.5q0 29 21.5 50.5t55.5 21.5q33 0 67 -25t53 -67q19 42 53 67t67 25q34 0 55.5 -21.5t21.5 -50.5q0 -56 -60 -96.5t-137 -40.5z" />
    <glyph glyph-name="Iogonek" unicode="&#x12e;" horiz-adv-x="327" 
d="M286 108q0 -69 -41 -96q-59 -59 -59 -82q0 -26 26 -26q20 0 30 17q17 -3 27.5 -18.5t10.5 -35.5q0 -35 -26 -57t-78 -22q-61 0 -95 25.5t-34 72.5q0 33 25 63t64 46q-95 5 -95 113v431q0 113 103 113h35q107 0 107 -113v-431z" />
    <glyph glyph-name="iogonek" unicode="&#x12f;" horiz-adv-x="312" 
d="M273 108q0 -69 -38 -96q-34 -34 -47 -51.5t-13 -31.5q0 -26 26 -26q20 0 30 17q17 -3 27.5 -18.5t10.5 -35.5q0 -35 -26 -57t-78 -22q-61 0 -95 25.5t-34 72.5q0 35 26 65.5t67 45.5q-90 7 -90 112v287q0 113 105 113h24q51 0 78 -25.5t27 -87.5v-287zM158 538
q-57 0 -90.5 28.5t-33.5 77.5q0 48 32.5 77t87.5 29q57 0 90.5 -28.5t33.5 -77.5q0 -48 -32.5 -77t-87.5 -29z" />
    <glyph glyph-name="Idotaccent" unicode="&#x130;" horiz-adv-x="327" 
d="M144 -5q-103 0 -103 113v431q0 113 103 113h35q107 0 107 -113v-431q0 -113 -107 -113h-35zM162 679q-50 0 -79.5 29t-29.5 75q0 45 30.5 74.5t80.5 29.5q49 0 79 -29.5t30 -74.5q0 -46 -30.5 -75t-80.5 -29z" />
    <glyph glyph-name="dotlessi" unicode="&#x131;" horiz-adv-x="312" 
d="M146 -5q-51 0 -79 25.5t-28 87.5v287q0 113 105 113h24q51 0 78 -25.5t27 -87.5v-287q0 -113 -103 -113h-24z" />
    <glyph glyph-name="Jcircumflex" unicode="&#x134;" horiz-adv-x="571" 
d="M245 -15q-234 0 -234 141q0 25 7.5 46.5t18 35t21.5 22.5t19 12.5t9 2.5q51 -53 119 -53q41 0 58.5 19.5t17.5 67.5v260q0 113 103 113h35q107 0 107 -113v-264q0 -290 -281 -290zM299 679q-33 0 -54 20t-21 50q0 53 54 96t123 62q69 -19 123 -62t54 -96q0 -30 -21 -50
t-54 -20q-34 0 -62 23t-40 60q-12 -37 -40.5 -60t-61.5 -23z" />
    <glyph glyph-name="jcircumflex" unicode="&#x135;" horiz-adv-x="312" 
d="M75 -200q-151 0 -151 113q0 22 10.5 42.5t20.5 31.5t12 9q13 -18 40 -18q32 0 32 30v387q0 113 105 113h24q51 0 78 -25.5t27 -87.5v-398q0 -94 -51.5 -145.5t-146.5 -51.5zM54 538q-33 0 -54 20t-21 50q0 53 54 96t123 62q69 -19 123 -62t54 -96q0 -30 -21 -50t-54 -20
q-34 0 -62 23t-40 60q-12 -37 -40.5 -60t-61.5 -23z" />
    <glyph glyph-name="Kcommaaccent" unicode="&#x136;" horiz-adv-x="684" 
d="M138 -5q-103 0 -103 113v431q0 113 103 113h35q107 0 107 -113v-153l109 183q54 83 133 83q36 0 72 -19t54.5 -39.5t14.5 -29.5l-155 -235l165 -247q4 -9 -15 -29.5t-57 -39t-77 -18.5q-79 0 -134 83l-110 179v-149q0 -113 -107 -113h-35zM311 -220q-25 -13 -53.5 -13
t-49.5 13.5t-15 32.5l26 87q10 33 30 46.5t72 13.5h26q89 0 89 -60v-6q0 -35 -52 -68z" />
    <glyph glyph-name="kcommaaccent" unicode="&#x137;" horiz-adv-x="600" 
d="M143 -5q-51 0 -79 25.5t-28 87.5v577q0 4 12.5 10.5t34.5 11.5t44 5q27 0 50.5 -8t45.5 -26.5t34.5 -54t12.5 -85.5v-220l69 124q41 69 119 69q32 0 64.5 -14.5t49.5 -30.5t14 -23l-118 -187l126 -199q3 -7 -15.5 -22.5t-51 -29.5t-63.5 -14q-84 0 -125 69l-69 122v-74
q0 -113 -103 -113h-24zM285 -220q-25 -13 -53.5 -13t-49.5 13.5t-15 32.5l26 87q10 33 30 46.5t72 13.5h26q89 0 89 -60v-6q0 -35 -52 -68z" />
    <glyph glyph-name="Lacute" unicode="&#x139;" horiz-adv-x="562" 
d="M159 0q-124 0 -124 134v405q0 113 103 113h35q107 0 107 -113v-328h158q113 0 113 -101v-3q0 -107 -113 -107h-279zM50 713q-10 19 23.5 83t79.5 89q30 15 56 15q44 0 74.5 -25.5t30.5 -63.5q0 -31 -17.5 -61.5t-46.5 -45.5q-42 -22 -89 -23t-76 9.5t-35 22.5z" />
    <glyph glyph-name="lacute" unicode="&#x13a;" horiz-adv-x="312" 
d="M146 -5q-51 0 -79 25.5t-28 87.5v577q0 4 12.5 10.5t34.5 11.5t44 5q27 0 50.5 -8t45.5 -26.5t34.5 -54t12.5 -85.5v-430q0 -113 -103 -113h-24zM53 768q-10 19 23.5 83t79.5 89q30 15 56 15q44 0 74.5 -25.5t30.5 -63.5q0 -31 -17.5 -61.5t-46.5 -45.5q-42 -22 -89 -23
t-76 9.5t-35 22.5z" />
    <glyph glyph-name="Lcommaaccent" unicode="&#x13b;" horiz-adv-x="562" 
d="M159 0q-124 0 -124 134v405q0 113 103 113h35q107 0 107 -113v-328h158q113 0 113 -101v-3q0 -107 -113 -107h-279zM269 -220q-25 -13 -53.5 -13t-49.5 13.5t-15 32.5l26 87q10 33 30 46.5t72 13.5h26q89 0 89 -60v-6q0 -35 -52 -68z" />
    <glyph glyph-name="lcommaaccent" unicode="&#x13c;" horiz-adv-x="312" 
d="M146 -5q-51 0 -79 25.5t-28 87.5v577q0 4 12.5 10.5t34.5 11.5t44 5q27 0 50.5 -8t45.5 -26.5t34.5 -54t12.5 -85.5v-430q0 -113 -103 -113h-24zM136 -220q-25 -13 -53.5 -13t-49.5 13.5t-15 32.5l26 87q10 33 30 46.5t72 13.5h26q89 0 89 -60v-6q0 -35 -52 -68z" />
    <glyph glyph-name="Lcaron" unicode="&#x13d;" horiz-adv-x="699" 
d="M159 0q-124 0 -124 134v405q0 113 103 113h35q107 0 107 -113v-328h158q113 0 113 -101v-3q0 -107 -113 -107h-279zM592 376q-25 -20 -53.5 -20t-49.5 21t-15 52l26 135q10 51 30 72t72 21h26q89 0 89 -93v-9q0 -56 -52 -107z" />
    <glyph glyph-name="lcaron" unicode="&#x13e;" horiz-adv-x="564" 
d="M146 -5q-51 0 -79 25.5t-28 87.5v577q0 4 12.5 10.5t34.5 11.5t44 5q27 0 50.5 -8t45.5 -26.5t34.5 -54t12.5 -85.5v-430q0 -113 -103 -113h-24zM428 433q-25 -20 -53.5 -20t-49.5 21t-15 52l26 135q10 51 30 72t72 21h26q89 0 89 -93v-9q0 -56 -52 -107z" />
    <glyph glyph-name="Ldot" unicode="&#x13f;" horiz-adv-x="808" 
d="M159 0q-124 0 -124 134v405q0 113 103 113h35q107 0 107 -113v-328h158q113 0 113 -101v-3q0 -107 -113 -107h-279zM660 224q-94 0 -94 93v19q0 93 94 93h27q50 0 73 -22.5t23 -70.5v-19q0 -93 -96 -93h-27z" />
    <glyph glyph-name="ldot" unicode="&#x140;" horiz-adv-x="559" 
d="M146 -5q-51 0 -79 25.5t-28 87.5v577q0 4 12.5 10.5t34.5 11.5t44 5q27 0 50.5 -8t45.5 -26.5t34.5 -54t12.5 -85.5v-430q0 -113 -103 -113h-24zM423 224q-94 0 -94 93v19q0 93 94 93h27q50 0 73 -22.5t23 -70.5v-19q0 -93 -96 -93h-27z" />
    <glyph glyph-name="Lslash" unicode="&#x141;" horiz-adv-x="602" 
d="M44 172q-5 -2 -15 10.5t-18.5 35t-8.5 44.5q0 34 14.5 56.5t58.5 41.5v179q0 113 103 113h35q107 0 107 -113v-102l104 32q6 2 16 -10.5t18 -35t8 -44.5q0 -40 -23 -66t-92 -47l-31 -10v-45h158q113 0 113 -101v-3q0 -107 -113 -107h-279q-124 0 -124 134v47z" />
    <glyph glyph-name="lslash" unicode="&#x142;" horiz-adv-x="386" 
d="M44 172q-5 -2 -15 10.5t-18.5 35t-8.5 44.5q0 34 14.5 56.5t59.5 41.5v325q0 7 24 16t58.5 10t69 -10t58.5 -53t24 -110v-105l34 11q6 2 16 -10.5t18 -35t8 -44.5q0 -34 -15.5 -57t-60.5 -42v-152q0 -113 -103 -113h-24q-51 0 -79 25.5t-28 87.5v78z" />
    <glyph glyph-name="Nacute" unicode="&#x143;" horiz-adv-x="712" 
d="M138 -5q-103 0 -103 113v436q0 108 97 108h20q39 0 58 -10t45 -40l192 -234v171q0 113 107 113h20q103 0 103 -113v-436q0 -108 -97 -108h-20q-39 0 -58.5 10t-44.5 40l-192 229v-166q0 -113 -107 -113h-20zM241 713q-10 19 23.5 83t79.5 89q30 15 56 15q44 0 74.5 -25.5
t30.5 -63.5q0 -31 -17.5 -61.5t-46.5 -45.5q-42 -22 -89 -23t-76 9.5t-35 22.5z" />
    <glyph glyph-name="nacute" unicode="&#x144;" horiz-adv-x="626" 
d="M127 508q100 0 131 -92q64 96 165 96q90 0 131 -55t41 -136v-213q0 -113 -103 -113h-24q-51 0 -79 25.5t-28 87.5v170q0 21 -11.5 33.5t-31.5 12.5q-29 0 -48 -19v-197q0 -113 -103 -113h-24q-51 0 -79 25.5t-28 87.5v373q0 4 12.5 10.5t34.5 11.5t44 5zM205 572
q-10 19 23.5 83t79.5 89q30 15 56 15q44 0 74.5 -25.5t30.5 -63.5q0 -31 -17.5 -61.5t-46.5 -45.5q-42 -22 -89 -23t-76 9.5t-35 22.5z" />
    <glyph glyph-name="Ncommaaccent" unicode="&#x145;" horiz-adv-x="712" 
d="M138 -5q-103 0 -103 113v436q0 108 97 108h20q39 0 58 -10t45 -40l192 -234v171q0 113 107 113h20q103 0 103 -113v-436q0 -108 -97 -108h-20q-39 0 -58.5 10t-44.5 40l-192 229v-166q0 -113 -107 -113h-20zM338 -220q-25 -13 -53.5 -13t-49.5 13.5t-15 32.5l26 87
q10 33 30 46.5t72 13.5h26q89 0 89 -60v-6q0 -35 -52 -68z" />
    <glyph glyph-name="ncommaaccent" unicode="&#x146;" horiz-adv-x="626" 
d="M127 508q100 0 131 -92q64 96 165 96q90 0 131 -55t41 -136v-213q0 -113 -103 -113h-24q-51 0 -79 25.5t-28 87.5v170q0 21 -11.5 33.5t-31.5 12.5q-29 0 -48 -19v-197q0 -113 -103 -113h-24q-51 0 -79 25.5t-28 87.5v373q0 4 12.5 10.5t34.5 11.5t44 5zM285 -220
q-25 -13 -53.5 -13t-49.5 13.5t-15 32.5l26 87q10 33 30 46.5t72 13.5h26q89 0 89 -60v-6q0 -35 -52 -68z" />
    <glyph glyph-name="Ncaron" unicode="&#x147;" horiz-adv-x="712" 
d="M138 -5q-103 0 -103 113v436q0 108 97 108h20q39 0 58 -10t45 -40l192 -234v171q0 113 107 113h20q103 0 103 -113v-436q0 -108 -97 -108h-20q-39 0 -58.5 10t-44.5 40l-192 229v-166q0 -113 -107 -113h-20zM449 897q33 0 54 -20t21 -50q0 -53 -54 -96t-123 -63
q-69 20 -123 63t-54 96q0 30 21 50t54 20t61.5 -23.5t40.5 -59.5q12 36 40.5 59.5t61.5 23.5z" />
    <glyph glyph-name="ncaron" unicode="&#x148;" horiz-adv-x="626" 
d="M127 508q100 0 131 -92q64 96 165 96q90 0 131 -55t41 -136v-213q0 -113 -103 -113h-24q-51 0 -79 25.5t-28 87.5v170q0 21 -11.5 33.5t-31.5 12.5q-29 0 -48 -19v-197q0 -113 -103 -113h-24q-51 0 -79 25.5t-28 87.5v373q0 4 12.5 10.5t34.5 11.5t44 5zM395 756
q33 0 54 -20t21 -50q0 -53 -54 -96t-123 -63q-69 20 -123 63t-54 96q0 30 21 50t54 20t61.5 -23.5t40.5 -59.5q12 36 40.5 59.5t61.5 23.5z" />
    <glyph glyph-name="Omacron" unicode="&#x14c;" horiz-adv-x="729" 
d="M365 -15q-152 0 -250 95.5t-98 243.5q0 147 98.5 242.5t249.5 95.5t249 -95.5t98 -242.5q0 -148 -98 -243.5t-249 -95.5zM365 204q49 0 78 32t29 88t-29 88.5t-78 32.5q-51 0 -79.5 -31.5t-28.5 -89.5q0 -56 29 -88t79 -32zM250 679q-42 0 -66.5 21t-24.5 57v9
q0 35 25 56t66 21h242q42 0 66.5 -21t24.5 -56v-9q0 -36 -24 -57t-67 -21h-242z" />
    <glyph glyph-name="omacron" unicode="&#x14d;" horiz-adv-x="594" 
d="M295 -15q-128 0 -202.5 71t-74.5 193q0 119 77 191t204 72t202 -71.5t75 -191.5q0 -121 -76 -192.5t-205 -71.5zM297 162q37 0 60.5 24.5t23.5 62.5q0 39 -23.5 63.5t-60.5 24.5t-60.5 -24.5t-23.5 -63.5t23 -63t61 -24zM176 538q-42 0 -66.5 21t-24.5 57v9q0 35 25 56
t66 21h242q42 0 66.5 -21t24.5 -56v-9q0 -36 -24 -57t-67 -21h-242z" />
    <glyph glyph-name="Obreve" unicode="&#x14e;" horiz-adv-x="729" 
d="M365 -15q-152 0 -250 95.5t-98 243.5q0 147 98.5 242.5t249.5 95.5t249 -95.5t98 -242.5q0 -148 -98 -243.5t-249 -95.5zM365 204q49 0 78 32t29 88t-29 88.5t-78 32.5q-51 0 -79.5 -31.5t-28.5 -89.5q0 -56 29 -88t79 -32zM364 679q-77 0 -137 40.5t-60 96.5
q0 29 21.5 50.5t55.5 21.5q33 0 67 -25t53 -67q19 42 53 67t67 25q34 0 55.5 -21.5t21.5 -50.5q0 -56 -60 -96.5t-137 -40.5z" />
    <glyph glyph-name="obreve" unicode="&#x14f;" horiz-adv-x="594" 
d="M295 -15q-128 0 -202.5 71t-74.5 193q0 119 77 191t204 72t202 -71.5t75 -191.5q0 -121 -76 -192.5t-205 -71.5zM297 162q37 0 60.5 24.5t23.5 62.5q0 39 -23.5 63.5t-60.5 24.5t-60.5 -24.5t-23.5 -63.5t23 -63t61 -24zM297 538q-77 0 -137 40.5t-60 96.5
q0 29 21.5 50.5t55.5 21.5q33 0 67 -25t53 -67q19 42 53 67t67 25q34 0 55.5 -21.5t21.5 -50.5q0 -56 -60 -96.5t-137 -40.5z" />
    <glyph glyph-name="Ohungarumlaut" unicode="&#x150;" horiz-adv-x="729" 
d="M365 -15q-152 0 -250 95.5t-98 243.5q0 147 98.5 242.5t249.5 95.5t249 -95.5t98 -242.5q0 -148 -98 -243.5t-249 -95.5zM365 204q49 0 78 32t29 88t-29 88.5t-78 32.5q-51 0 -79.5 -31.5t-28.5 -89.5q0 -56 29 -88t79 -32zM417 713q-10 19 23.5 83t79.5 89q30 15 56 15
q44 0 74.5 -25.5t30.5 -63.5q0 -31 -17.5 -61.5t-46.5 -45.5q-42 -22 -89 -23t-76 9.5t-35 22.5zM147 713q-10 19 23.5 83t79.5 89q30 15 56 15q44 0 74.5 -25.5t30.5 -63.5q0 -31 -17.5 -61.5t-46.5 -45.5q-42 -22 -89 -23t-76 9.5t-35 22.5z" />
    <glyph glyph-name="ohungarumlaut" unicode="&#x151;" horiz-adv-x="594" 
d="M295 -15q-128 0 -202.5 71t-74.5 193q0 119 77 191t204 72t202 -71.5t75 -191.5q0 -121 -76 -192.5t-205 -71.5zM297 162q37 0 60.5 24.5t23.5 62.5q0 39 -23.5 63.5t-60.5 24.5t-60.5 -24.5t-23.5 -63.5t23 -63t61 -24zM310 572q-10 19 23.5 83t79.5 89q30 15 56 15
q44 0 74.5 -25.5t30.5 -63.5q0 -31 -17.5 -61.5t-46.5 -45.5q-42 -22 -89 -23t-76 9.5t-35 22.5zM40 572q-10 19 23.5 83t79.5 89q30 15 56 15q44 0 74.5 -25.5t30.5 -63.5q0 -31 -17.5 -61.5t-46.5 -45.5q-42 -22 -89 -23t-76 9.5t-35 22.5z" />
    <glyph glyph-name="OE" unicode="&#x152;" horiz-adv-x="1029" 
d="M367 -15q-153 0 -251.5 95.5t-98.5 243.5q0 147 99 242.5t251 95.5q59 0 108 -15h414q58 0 85.5 -22.5t27.5 -70.5v-5q0 -50 -27 -71t-86 -21h-215q8 -22 12 -43h117q61 0 87 -19.5t26 -63.5v-3q0 -47 -26.5 -68t-86.5 -21h-115q-6 -27 -15 -51h220q59 0 86 -19.5
t27 -66.5v-5q0 -50 -27 -73.5t-86 -23.5h-418q-49 -15 -108 -15zM367 204q51 0 80 32.5t29 87.5q0 56 -29.5 88.5t-79.5 32.5q-52 0 -81 -32t-29 -89q0 -55 29.5 -87.5t80.5 -32.5z" />
    <glyph glyph-name="oe" unicode="&#x153;" horiz-adv-x="938" 
d="M295 -15q-128 0 -202.5 71t-74.5 193q0 119 77 191t204 72q106 0 174 -65q68 65 181 65q117 0 193 -71t76 -178v-10q-2 -54 -42 -54h-303q18 -60 99 -60q37 0 65.5 14t40.5 37q0 3 26.5 -1t53.5 -25t27 -60q0 -57 -57.5 -88t-164.5 -31q-129 0 -198 64q-67 -64 -175 -64z
M297 162q37 0 60.5 24.5t23.5 62.5q0 39 -23.5 63.5t-60.5 24.5t-60.5 -24.5t-23.5 -63.5t23 -63t61 -24zM651 368q-29 0 -48.5 -20t-21.5 -50h137q-3 70 -67 70z" />
    <glyph glyph-name="Racute" unicode="&#x154;" horiz-adv-x="677" 
d="M520 -5q-56 0 -90 23.5t-76 81.5l-64 88h-10v-80q0 -113 -107 -113h-35q-50 0 -76.5 38t-26.5 106v372q0 136 124 136h207q282 0 282 -221q0 -137 -120 -186l131 -164q2 -3 -1.5 -12t-14.5 -20.5t-26.5 -22.5t-41 -18.5t-55.5 -7.5zM276 465v-117h60q68 0 68 58
q0 59 -69 59h-59zM207 713q-10 19 23.5 83t79.5 89q30 15 56 15q44 0 74.5 -25.5t30.5 -63.5q0 -31 -17.5 -61.5t-46.5 -45.5q-42 -22 -89 -23t-76 9.5t-35 22.5z" />
    <glyph glyph-name="racute" unicode="&#x155;" horiz-adv-x="510" 
d="M127 508q100 0 131 -92q12 42 44 69t76 27q53 0 85 -33t32 -88q0 -27 -8 -49.5t-19 -36t-22.5 -22.5t-19.5 -12.5t-9 -2.5q-32 28 -72 28q-75 0 -75 -93v-95q0 -113 -103 -113h-24q-51 0 -79 25.5t-28 87.5v373q0 4 12.5 10.5t34.5 11.5t44 5zM168 572q-10 19 23.5 83
t79.5 89q30 15 56 15q44 0 74.5 -25.5t30.5 -63.5q0 -31 -17.5 -61.5t-46.5 -45.5q-42 -22 -89 -23t-76 9.5t-35 22.5z" />
    <glyph glyph-name="Rcommaaccent" unicode="&#x156;" horiz-adv-x="677" 
d="M520 -5q-56 0 -90 23.5t-76 81.5l-64 88h-10v-80q0 -113 -107 -113h-35q-50 0 -76.5 38t-26.5 106v372q0 136 124 136h207q282 0 282 -221q0 -137 -120 -186l131 -164q2 -3 -1.5 -12t-14.5 -20.5t-26.5 -22.5t-41 -18.5t-55.5 -7.5zM317 -220q-25 -13 -53.5 -13
t-49.5 13.5t-15 32.5l26 87q10 33 30 46.5t72 13.5h26q89 0 89 -60v-6q0 -35 -52 -68zM276 465v-117h60q68 0 68 58q0 59 -69 59h-59z" />
    <glyph glyph-name="rcommaaccent" unicode="&#x157;" horiz-adv-x="510" 
d="M127 508q100 0 131 -92q12 42 44 69t76 27q53 0 85 -33t32 -88q0 -27 -8 -49.5t-19 -36t-22.5 -22.5t-19.5 -12.5t-9 -2.5q-32 28 -72 28q-75 0 -75 -93v-95q0 -113 -103 -113h-24q-51 0 -79 25.5t-28 87.5v373q0 4 12.5 10.5t34.5 11.5t44 5zM130 -220
q-25 -13 -53.5 -13t-49.5 13.5t-15 32.5l26 87q10 33 30 46.5t72 13.5h26q89 0 89 -60v-6q0 -35 -52 -68z" />
    <glyph glyph-name="Rcaron" unicode="&#x158;" horiz-adv-x="677" 
d="M520 -5q-56 0 -90 23.5t-76 81.5l-64 88h-10v-80q0 -113 -107 -113h-35q-50 0 -76.5 38t-26.5 106v372q0 136 124 136h207q282 0 282 -221q0 -137 -120 -186l131 -164q2 -3 -1.5 -12t-14.5 -20.5t-26.5 -22.5t-41 -18.5t-55.5 -7.5zM420 897q33 0 54 -20t21 -50
q0 -53 -54 -96t-123 -63q-69 20 -123 63t-54 96q0 30 21 50t54 20t61.5 -23.5t40.5 -59.5q12 36 40.5 59.5t61.5 23.5zM276 465v-117h60q68 0 68 58q0 59 -69 59h-59z" />
    <glyph glyph-name="rcaron" unicode="&#x159;" horiz-adv-x="510" 
d="M127 508q100 0 131 -92q12 42 44 69t76 27q53 0 85 -33t32 -88q0 -27 -8 -49.5t-19 -36t-22.5 -22.5t-19.5 -12.5t-9 -2.5q-32 28 -72 28q-75 0 -75 -93v-95q0 -113 -103 -113h-24q-51 0 -79 25.5t-28 87.5v373q0 4 12.5 10.5t34.5 11.5t44 5zM357 756q33 0 54 -20
t21 -50q0 -53 -54 -96t-123 -63q-69 20 -123 63t-54 96q0 30 21 50t54 20t61.5 -23.5t40.5 -59.5q12 36 40.5 59.5t61.5 23.5z" />
    <glyph glyph-name="Sacute" unicode="&#x15a;" horiz-adv-x="604" 
d="M278 -15q-265 0 -265 135q0 25 17 54t35.5 45.5t22.5 13.5q35 -24 91 -43.5t99 -19.5q67 0 67 28q0 5 -2 9t-7.5 7.5t-10.5 5.5t-14.5 4.5t-17 3.5t-21 3.5t-22.5 4.5q-47 9 -82.5 22.5t-69.5 36t-52.5 59t-18.5 85.5q0 108 75 165.5t220 57.5q130 0 192.5 -35t62.5 -92
q0 -29 -19.5 -59.5t-39.5 -47t-23 -13.5q-36 27 -82.5 44.5t-87.5 17.5q-36 0 -50.5 -6.5t-14.5 -21.5q0 -6 4.5 -10.5t16 -8t21.5 -5.5t29.5 -5t32.5 -6q109 -23 168.5 -71t59.5 -130q0 -228 -314 -228zM192 713q-10 19 23.5 83t79.5 89q30 15 56 15q44 0 74.5 -25.5
t30.5 -63.5q0 -31 -17.5 -61.5t-46.5 -45.5q-42 -22 -89 -23t-76 9.5t-35 22.5z" />
    <glyph glyph-name="sacute" unicode="&#x15b;" horiz-adv-x="504" 
d="M238 -10q-122 0 -176.5 28t-54.5 90q0 21 12 42t24 31t14 8q28 -22 71.5 -37t88.5 -15q41 0 41 16q0 11 -49 22l-12 3q-82 18 -116 41q-62 41 -62 121t60.5 125.5t170.5 45.5q223 0 223 -121q0 -23 -13.5 -45.5t-26.5 -33.5t-16 -9q-30 26 -71 43.5t-76 17.5
q-39 0 -39 -18q0 -4 3 -7t10.5 -5.5t14.5 -4t20 -4t22 -4.5q88 -19 125 -45q59 -41 60 -115q0 -83 -62.5 -126.5t-185.5 -43.5zM152 572q-10 19 23.5 83t79.5 89q30 15 56 15q44 0 74.5 -25.5t30.5 -63.5q0 -31 -17.5 -61.5t-46.5 -45.5q-42 -22 -89 -23t-76 9.5t-35 22.5z
" />
    <glyph glyph-name="Scircumflex" unicode="&#x15c;" horiz-adv-x="604" 
d="M278 -15q-265 0 -265 135q0 25 17 54t35.5 45.5t22.5 13.5q35 -24 91 -43.5t99 -19.5q67 0 67 28q0 5 -2 9t-7.5 7.5t-10.5 5.5t-14.5 4.5t-17 3.5t-21 3.5t-22.5 4.5q-47 9 -82.5 22.5t-69.5 36t-52.5 59t-18.5 85.5q0 108 75 165.5t220 57.5q130 0 192.5 -35t62.5 -92
q0 -29 -19.5 -59.5t-39.5 -47t-23 -13.5q-36 27 -82.5 44.5t-87.5 17.5q-36 0 -50.5 -6.5t-14.5 -21.5q0 -6 4.5 -10.5t16 -8t21.5 -5.5t29.5 -5t32.5 -6q109 -23 168.5 -71t59.5 -130q0 -228 -314 -228zM198 679q-33 0 -54 20t-21 50q0 53 54 96t123 62q69 -19 123 -62
t54 -96q0 -30 -21 -50t-54 -20q-34 0 -62 23t-40 60q-12 -37 -40.5 -60t-61.5 -23z" />
    <glyph glyph-name="scircumflex" unicode="&#x15d;" horiz-adv-x="504" 
d="M238 -10q-122 0 -176.5 28t-54.5 90q0 21 12 42t24 31t14 8q28 -22 71.5 -37t88.5 -15q41 0 41 16q0 11 -49 22l-12 3q-82 18 -116 41q-62 41 -62 121t60.5 125.5t170.5 45.5q223 0 223 -121q0 -23 -13.5 -45.5t-26.5 -33.5t-16 -9q-30 26 -71 43.5t-76 17.5
q-39 0 -39 -18q0 -4 3 -7t10.5 -5.5t14.5 -4t20 -4t22 -4.5q88 -19 125 -45q59 -41 60 -115q0 -83 -62.5 -126.5t-185.5 -43.5zM150 538q-33 0 -54 20t-21 50q0 53 54 96t123 62q69 -19 123 -62t54 -96q0 -30 -21 -50t-54 -20q-34 0 -62 23t-40 60q-12 -37 -40.5 -60
t-61.5 -23z" />
    <glyph glyph-name="Scedilla" unicode="&#x15e;" horiz-adv-x="604" 
d="M278 -15q-265 0 -265 135q0 25 17 54t35.5 45.5t22.5 13.5q35 -24 91 -43.5t99 -19.5q67 0 67 28q0 5 -2 9t-7.5 7.5t-10.5 5.5t-14.5 4.5t-17 3.5t-21 3.5t-22.5 4.5q-47 9 -82.5 22.5t-69.5 36t-52.5 59t-18.5 85.5q0 108 75 165.5t220 57.5q130 0 192.5 -35t62.5 -92
q0 -29 -19.5 -59.5t-39.5 -47t-23 -13.5q-36 27 -82.5 44.5t-87.5 17.5q-36 0 -50.5 -6.5t-14.5 -21.5q0 -6 4.5 -10.5t16 -8t21.5 -5.5t29.5 -5t32.5 -6q109 -23 168.5 -71t59.5 -130q0 -228 -314 -228zM288 -220q-25 -13 -53.5 -13t-49.5 13.5t-15 32.5l26 87
q10 33 30 46.5t72 13.5h26q89 0 89 -60v-6q0 -35 -52 -68z" />
    <glyph glyph-name="scedilla" unicode="&#x15f;" horiz-adv-x="504" 
d="M238 -10q-122 0 -176.5 28t-54.5 90q0 21 12 42t24 31t14 8q28 -22 71.5 -37t88.5 -15q41 0 41 16q0 11 -49 22l-12 3q-82 18 -116 41q-62 41 -62 121t60.5 125.5t170.5 45.5q223 0 223 -121q0 -23 -13.5 -45.5t-26.5 -33.5t-16 -9q-30 26 -71 43.5t-76 17.5
q-39 0 -39 -18q0 -4 3 -7t10.5 -5.5t14.5 -4t20 -4t22 -4.5q88 -19 125 -45q59 -41 60 -115q0 -83 -62.5 -126.5t-185.5 -43.5zM217 -220q-25 -13 -53.5 -13t-49.5 13.5t-15 32.5l26 87q10 33 30 46.5t72 13.5h26q89 0 89 -60v-6q0 -35 -52 -68z" />
    <glyph glyph-name="Scaron" unicode="&#x160;" horiz-adv-x="604" 
d="M278 -15q-265 0 -265 135q0 25 17 54t35.5 45.5t22.5 13.5q35 -24 91 -43.5t99 -19.5q67 0 67 28q0 5 -2 9t-7.5 7.5t-10.5 5.5t-14.5 4.5t-17 3.5t-21 3.5t-22.5 4.5q-47 9 -82.5 22.5t-69.5 36t-52.5 59t-18.5 85.5q0 108 75 165.5t220 57.5q130 0 192.5 -35t62.5 -92
q0 -29 -19.5 -59.5t-39.5 -47t-23 -13.5q-36 27 -82.5 44.5t-87.5 17.5q-36 0 -50.5 -6.5t-14.5 -21.5q0 -6 4.5 -10.5t16 -8t21.5 -5.5t29.5 -5t32.5 -6q109 -23 168.5 -71t59.5 -130q0 -228 -314 -228zM417 906q33 0 54 -20t21 -50q0 -53 -54 -96t-123 -63q-69 20 -123 63
t-54 96q0 30 21 50t54 20t61.5 -23.5t40.5 -59.5q12 36 40.5 59.5t61.5 23.5z" />
    <glyph glyph-name="scaron" unicode="&#x161;" horiz-adv-x="504" 
d="M238 -10q-122 0 -176.5 28t-54.5 90q0 21 12 42t24 31t14 8q28 -22 71.5 -37t88.5 -15q41 0 41 16q0 11 -49 22l-12 3q-82 18 -116 41q-62 41 -62 121t60.5 125.5t170.5 45.5q223 0 223 -121q0 -23 -13.5 -45.5t-26.5 -33.5t-16 -9q-30 26 -71 43.5t-76 17.5
q-39 0 -39 -18q0 -4 3 -7t10.5 -5.5t14.5 -4t20 -4t22 -4.5q88 -19 125 -45q59 -41 60 -115q0 -83 -62.5 -126.5t-185.5 -43.5zM351 756q33 0 54 -20t21 -50q0 -53 -54 -96t-123 -63q-69 20 -123 63t-54 96q0 30 21 50t54 20t61.5 -23.5t40.5 -59.5q12 36 40.5 59.5
t61.5 23.5z" />
    <glyph glyph-name="Tcommaaccent" unicode="&#x162;" horiz-adv-x="631" 
d="M118 436q-113 0 -113 107v3q0 101 113 101h395q113 0 113 -101v-3q0 -107 -113 -107h-73v-328q0 -55 -28 -84t-81 -29h-35q-101 0 -101 113v328h-77zM302 -220q-25 -13 -53.5 -13t-49.5 13.5t-15 32.5l26 87q10 33 30 46.5t72 13.5h26q89 0 89 -60v-6q0 -35 -52 -68z" />
    <glyph glyph-name="tcommaaccent" unicode="&#x163;" horiz-adv-x="470" 
d="M286 -15q-188 0 -188 187v157q-93 0 -93 78v12q0 83 93 83v37q0 55 27 84t78 29h19q51 0 78.5 -25.5t26.5 -87.5v-37h34q90 0 90 -78v-12q0 -83 -93 -83h-36v-131q0 -33 33 -33q28 0 48 29q2 3 14 -6t23.5 -30.5t11.5 -46.5q0 -57 -45.5 -91.5t-120.5 -34.5zM242 -220
q-25 -13 -53.5 -13t-49.5 13.5t-15 32.5l26 87q10 33 30 46.5t72 13.5h26q89 0 89 -60v-6q0 -35 -52 -68z" />
    <glyph glyph-name="Tcaron" unicode="&#x164;" horiz-adv-x="631" 
d="M118 436q-113 0 -113 107v3q0 101 113 101h395q113 0 113 -101v-3q0 -107 -113 -107h-73v-328q0 -55 -28 -84t-81 -29h-35q-101 0 -101 113v328h-77zM417 897q33 0 54 -20t21 -50q0 -53 -54 -96t-123 -63q-69 20 -123 63t-54 96q0 30 21 50t54 20t61.5 -23.5t40.5 -59.5
q12 36 40.5 59.5t61.5 23.5z" />
    <glyph glyph-name="tcaron" unicode="&#x165;" horiz-adv-x="470" 
d="M286 -15q-188 0 -188 187v157q-93 0 -93 78v12q0 83 93 83v37q0 55 27 84t78 29h19q51 0 78.5 -25.5t26.5 -87.5v-37h34q90 0 90 -78v-12q0 -83 -93 -83h-36v-131q0 -33 33 -33q28 0 48 29q2 3 14 -6t23.5 -30.5t11.5 -46.5q0 -57 -45.5 -91.5t-120.5 -34.5zM477 548
q-25 -20 -53.5 -20t-49.5 21t-15 52l26 135q10 51 30 72t72 21h26q89 0 89 -93v-9q0 -56 -52 -107z" />
    <glyph glyph-name="Umacron" unicode="&#x16a;" horiz-adv-x="692" 
d="M346 -10q-311 0 -311 303v246q0 56 28.5 84.5t79.5 28.5h30q107 0 107 -113v-248q0 -90 67 -90q34 0 49.5 21.5t15.5 68.5v248q0 56 28.5 84.5t79.5 28.5h30q107 0 107 -113v-246q0 -303 -311 -303zM225 679q-42 0 -66.5 21t-24.5 57v9q0 35 25 56t66 21h242
q42 0 66.5 -21t24.5 -56v-9q0 -36 -24 -57t-67 -21h-242z" />
    <glyph glyph-name="umacron" unicode="&#x16b;" horiz-adv-x="626" 
d="M499 -5q-99 0 -131 89q-63 -98 -165 -98q-90 0 -131 55t-41 136v218q0 113 103 113h24q51 0 79 -25.5t28 -87.5v-175q0 -21 11.5 -33.5t31.5 -12.5q29 0 48 19v202q0 113 103 113h24q51 0 79 -25.5t28 -87.5v-373q0 -4 -12.5 -10.5t-34.5 -11.5t-44 -5zM192 538
q-42 0 -66.5 21t-24.5 57v9q0 35 25 56t66 21h242q42 0 66.5 -21t24.5 -56v-9q0 -36 -24 -57t-67 -21h-242z" />
    <glyph glyph-name="Ubreve" unicode="&#x16c;" horiz-adv-x="692" 
d="M346 -10q-311 0 -311 303v246q0 56 28.5 84.5t79.5 28.5h30q107 0 107 -113v-248q0 -90 67 -90q34 0 49.5 21.5t15.5 68.5v248q0 56 28.5 84.5t79.5 28.5h30q107 0 107 -113v-246q0 -303 -311 -303zM346 679q-77 0 -137 40.5t-60 96.5q0 29 21.5 50.5t55.5 21.5
q33 0 67 -25t53 -67q19 42 53 67t67 25q34 0 55.5 -21.5t21.5 -50.5q0 -56 -60 -96.5t-137 -40.5z" />
    <glyph glyph-name="ubreve" unicode="&#x16d;" horiz-adv-x="626" 
d="M499 -5q-99 0 -131 89q-63 -98 -165 -98q-90 0 -131 55t-41 136v218q0 113 103 113h24q51 0 79 -25.5t28 -87.5v-175q0 -21 11.5 -33.5t31.5 -12.5q29 0 48 19v202q0 113 103 113h24q51 0 79 -25.5t28 -87.5v-373q0 -4 -12.5 -10.5t-34.5 -11.5t-44 -5zM313 538
q-77 0 -137 40.5t-60 96.5q0 29 21.5 50.5t55.5 21.5q33 0 67 -25t53 -67q19 42 53 67t67 25q34 0 55.5 -21.5t21.5 -50.5q0 -56 -60 -96.5t-137 -40.5z" />
    <glyph glyph-name="Uring" unicode="&#x16e;" horiz-adv-x="692" 
d="M346 -10q-311 0 -311 303v246q0 56 28.5 84.5t79.5 28.5h30q107 0 107 -113v-248q0 -90 67 -90q34 0 49.5 21.5t15.5 68.5v248q0 56 28.5 84.5t79.5 28.5h30q107 0 107 -113v-246q0 -303 -311 -303zM345 679q-61 0 -98 36.5t-37 92.5t38 92.5t99 36.5t98 -36.5t37 -92.5
t-38 -92.5t-99 -36.5zM346 768q16 0 27.5 11.5t11.5 28.5t-11.5 29t-27.5 12t-27.5 -12t-11.5 -29t11 -28.5t28 -11.5z" />
    <glyph glyph-name="uring" unicode="&#x16f;" horiz-adv-x="626" 
d="M499 -5q-99 0 -131 89q-63 -98 -165 -98q-90 0 -131 55t-41 136v218q0 113 103 113h24q51 0 79 -25.5t28 -87.5v-175q0 -21 11.5 -33.5t31.5 -12.5q29 0 48 19v202q0 113 103 113h24q51 0 79 -25.5t28 -87.5v-373q0 -4 -12.5 -10.5t-34.5 -11.5t-44 -5zM309 524
q-61 0 -98 36.5t-37 92.5t38 92.5t99 36.5t98 -36.5t37 -92.5t-38 -92.5t-99 -36.5zM310 613q16 0 27.5 11.5t11.5 28.5t-11.5 29t-27.5 12t-27.5 -12t-11.5 -29t11 -28.5t28 -11.5z" />
    <glyph glyph-name="Uhungarumlaut" unicode="&#x170;" horiz-adv-x="692" 
d="M346 -10q-311 0 -311 303v246q0 56 28.5 84.5t79.5 28.5h30q107 0 107 -113v-248q0 -90 67 -90q34 0 49.5 21.5t15.5 68.5v248q0 56 28.5 84.5t79.5 28.5h30q107 0 107 -113v-246q0 -303 -311 -303zM379 713q-10 19 23.5 83t79.5 89q30 15 56 15q44 0 74.5 -25.5
t30.5 -63.5q0 -31 -17.5 -61.5t-46.5 -45.5q-42 -22 -89 -23t-76 9.5t-35 22.5zM109 713q-10 19 23.5 83t79.5 89q30 15 56 15q44 0 74.5 -25.5t30.5 -63.5q0 -31 -17.5 -61.5t-46.5 -45.5q-42 -22 -89 -23t-76 9.5t-35 22.5z" />
    <glyph glyph-name="uhungarumlaut" unicode="&#x171;" horiz-adv-x="626" 
d="M499 -5q-99 0 -131 89q-63 -98 -165 -98q-90 0 -131 55t-41 136v218q0 113 103 113h24q51 0 79 -25.5t28 -87.5v-175q0 -21 11.5 -33.5t31.5 -12.5q29 0 48 19v202q0 113 103 113h24q51 0 79 -25.5t28 -87.5v-373q0 -4 -12.5 -10.5t-34.5 -11.5t-44 -5zM76 572
q-10 19 23.5 83t79.5 89q30 15 56 15q44 0 74.5 -25.5t30.5 -63.5q0 -31 -17.5 -61.5t-46.5 -45.5q-42 -22 -89 -23t-76 9.5t-35 22.5zM346 572q-10 19 23.5 83t79.5 89q30 15 56 15q44 0 74.5 -25.5t30.5 -63.5q0 -31 -17.5 -61.5t-46.5 -45.5q-42 -22 -89 -23t-76 9.5
t-35 22.5z" />
    <glyph glyph-name="Uogonek" unicode="&#x172;" horiz-adv-x="692" 
d="M346 -10q-311 0 -311 303v246q0 56 28.5 84.5t79.5 28.5h30q107 0 107 -113v-248q0 -90 67 -90q34 0 49.5 21.5t15.5 68.5v248q0 56 28.5 84.5t79.5 28.5h30q107 0 107 -113v-246q0 -169 -97 -244q-40 -40 -54 -58t-14 -33q0 -26 26 -26q20 0 30 17q17 -3 27.5 -18.5
t10.5 -35.5q0 -35 -26 -57t-78 -22q-61 0 -95 25.5t-34 72.5q0 42 39 78q-30 -2 -46 -2z" />
    <glyph glyph-name="uogonek" unicode="&#x173;" horiz-adv-x="626" 
d="M481 -4q-84 8 -113 88q-63 -98 -165 -98q-90 0 -131 55t-41 136v218q0 113 103 113h24q51 0 79 -25.5t28 -87.5v-175q0 -21 11.5 -33.5t31.5 -12.5q29 0 48 19v202q0 113 103 113h24q51 0 79 -25.5t28 -87.5v-373q0 -3 -5 -6q-39 -39 -53 -57t-14 -33q0 -26 26 -26
q20 0 30 17q17 -3 27.5 -18.5t10.5 -35.5q0 -35 -26 -57t-78 -22q-61 0 -95 25.5t-34 72.5q0 36 29 68t73 46z" />
    <glyph glyph-name="Wcircumflex" unicode="&#x174;" horiz-adv-x="1009" 
d="M312 -5q-56 0 -89 20t-48 72l-153 477q-2 7 13.5 26.5t54 39t86.5 19.5q43 0 81 -29t51 -99l31 -190l44 183q9 42 44.5 63.5t83.5 21.5q45 0 81 -23t44 -62l44 -183l30 194q11 65 48.5 95t83.5 30q28 0 53 -8t41.5 -19t28.5 -23.5t17 -22t4 -13.5l-146 -477
q-25 -92 -139 -92q-56 0 -91 20.5t-50 71.5l-54 199l-50 -199q-25 -92 -144 -92zM402 679q-33 0 -54 20t-21 50q0 53 54 96t123 62q69 -19 123 -62t54 -96q0 -30 -21 -50t-54 -20q-34 0 -62 23t-40 60q-12 -37 -40.5 -60t-61.5 -23z" />
    <glyph glyph-name="wcircumflex" unicode="&#x175;" horiz-adv-x="854" 
d="M256 -6q-89 0 -111 60l-140 388q-3 7 19.5 23.5t58.5 30.5t65 14q89 0 103 -81l28 -190l49 170q9 33 40 52t69 19t67.5 -19t37.5 -52l40 -157l28 177q8 43 35 62t62 19q31 0 66.5 -14t56.5 -30.5t18 -23.5l-136 -388q-17 -60 -109 -60q-57 0 -84.5 14.5t-42.5 60.5
l-49 149l-46 -149q-13 -45 -42 -60t-83 -15zM325 538q-33 0 -54 20t-21 50q0 53 54 96t123 62q69 -19 123 -62t54 -96q0 -30 -21 -50t-54 -20q-34 0 -62 23t-40 60q-12 -37 -40.5 -60t-61.5 -23z" />
    <glyph glyph-name="Ycircumflex" unicode="&#x176;" horiz-adv-x="669" 
d="M317 -5q-103 0 -103 113v141l-222 310q-2 4 1.5 14t15.5 23t30 25t47.5 20.5t65.5 8.5q68 0 114 -85l70 -127l75 127q49 86 115 86q32 0 59.5 -8.5t45 -21t29.5 -26t16 -23.5t2 -13l-219 -310v-141q0 -113 -107 -113h-35zM232 679q-33 0 -54 20t-21 50q0 53 54 96t123 62
q69 -19 123 -62t54 -96q0 -30 -21 -50t-54 -20q-34 0 -62 23t-40 60q-12 -37 -40.5 -60t-61.5 -23z" />
    <glyph glyph-name="ycircumflex" unicode="&#x177;" horiz-adv-x="603" 
d="M263 -185q-32 0 -64 14t-48.5 29t-13.5 22l82 160q-41 13 -52 39l-162 363q-3 6 16 22t52.5 31t64.5 15q88 0 116 -101l50 -165l50 165q30 101 115 101q31 0 63.5 -14.5t50 -30.5t14.5 -23l-213 -528q-40 -99 -121 -99zM201 538q-33 0 -54 20t-21 50q0 53 54 96t123 62
q69 -19 123 -62t54 -96q0 -30 -21 -50t-54 -20q-34 0 -62 23t-40 60q-12 -37 -40.5 -60t-61.5 -23z" />
    <glyph glyph-name="Ydieresis" unicode="&#x178;" horiz-adv-x="669" 
d="M317 -5q-103 0 -103 113v141l-222 310q-2 4 1.5 14t15.5 23t30 25t47.5 20.5t65.5 8.5q68 0 114 -85l70 -127l75 127q49 86 115 86q32 0 59.5 -8.5t45 -21t29.5 -26t16 -23.5t2 -13l-219 -310v-141q0 -113 -107 -113h-35zM213 688q-48 0 -75.5 26.5t-27.5 74.5
q0 47 27 74t72 27q49 0 76.5 -26.5t27.5 -74.5q0 -47 -27 -74t-73 -27zM459 688q-49 0 -76.5 26.5t-27.5 74.5q0 47 27 74t73 27q48 0 75.5 -26.5t27.5 -74.5q0 -47 -27 -74t-72 -27z" />
    <glyph glyph-name="Zacute" unicode="&#x179;" horiz-adv-x="627" 
d="M140 0q-59 0 -88 27t-29 65v10q0 33 9 58t17.5 36t30.5 34l204 217h-144q-54 0 -80.5 22t-26.5 73v10q0 95 107 95h350q59 0 88 -27t29 -65v-10q0 -33 -8.5 -57.5t-17.5 -36.5t-31 -34l-210 -217h162q55 0 81.5 -22t26.5 -73v-10q0 -95 -108 -95h-362zM231 713
q-10 19 23.5 83t79.5 89q30 15 56 15q44 0 74.5 -25.5t30.5 -63.5q0 -31 -17.5 -61.5t-46.5 -45.5q-42 -22 -89 -23t-76 9.5t-35 22.5z" />
    <glyph glyph-name="zacute" unicode="&#x17a;" horiz-adv-x="520" 
d="M98 1q-39 0 -60 22.5t-21 52.5v8q0 39 7.5 55.5t30.5 39.5l146 150h-91q-86 0 -86 82v8q0 40 22 61.5t64 21.5h300q39 0 60.5 -22.5t21.5 -52.5v-8q0 -39 -7.5 -55.5t-30.5 -39.5l-152 -150h116q85 0 85 -82v-8q0 -83 -85 -83h-320zM173 572q-10 19 23.5 83t79.5 89
q30 15 56 15q44 0 74.5 -25.5t30.5 -63.5q0 -31 -17.5 -61.5t-46.5 -45.5q-42 -22 -89 -23t-76 9.5t-35 22.5z" />
    <glyph glyph-name="Zdotaccent" unicode="&#x17b;" horiz-adv-x="627" 
d="M140 0q-59 0 -88 27t-29 65v10q0 33 9 58t17.5 36t30.5 34l204 217h-144q-54 0 -80.5 22t-26.5 73v10q0 95 107 95h350q59 0 88 -27t29 -65v-10q0 -33 -8.5 -57.5t-17.5 -36.5t-31 -34l-210 -217h162q55 0 81.5 -22t26.5 -73v-10q0 -95 -108 -95h-362zM328 679
q-50 0 -79.5 29t-29.5 75q0 45 30.5 74.5t80.5 29.5q49 0 79 -29.5t30 -74.5q0 -46 -30.5 -75t-80.5 -29z" />
    <glyph glyph-name="zdotaccent" unicode="&#x17c;" horiz-adv-x="520" 
d="M98 1q-39 0 -60 22.5t-21 52.5v8q0 39 7.5 55.5t30.5 39.5l146 150h-91q-86 0 -86 82v8q0 40 22 61.5t64 21.5h300q39 0 60.5 -22.5t21.5 -52.5v-8q0 -39 -7.5 -55.5t-30.5 -39.5l-152 -150h116q85 0 85 -82v-8q0 -83 -85 -83h-320zM269 538q-50 0 -79.5 29t-29.5 75
q0 45 30.5 74.5t80.5 29.5q49 0 79 -29.5t30 -74.5q0 -46 -30.5 -75t-80.5 -29z" />
    <glyph glyph-name="Zcaron" unicode="&#x17d;" horiz-adv-x="627" 
d="M140 0q-59 0 -88 27t-29 65v10q0 33 9 58t17.5 36t30.5 34l204 217h-144q-54 0 -80.5 22t-26.5 73v10q0 95 107 95h350q59 0 88 -27t29 -65v-10q0 -33 -8.5 -57.5t-17.5 -36.5t-31 -34l-210 -217h162q55 0 81.5 -22t26.5 -73v-10q0 -95 -108 -95h-362zM405 906
q33 0 54 -20t21 -50q0 -53 -54 -96t-123 -63q-69 20 -123 63t-54 96q0 30 21 50t54 20t61.5 -23.5t40.5 -59.5q12 36 40.5 59.5t61.5 23.5z" />
    <glyph glyph-name="zcaron" unicode="&#x17e;" horiz-adv-x="520" 
d="M98 1q-39 0 -60 22.5t-21 52.5v8q0 39 7.5 55.5t30.5 39.5l146 150h-91q-86 0 -86 82v8q0 40 22 61.5t64 21.5h300q39 0 60.5 -22.5t21.5 -52.5v-8q0 -39 -7.5 -55.5t-30.5 -39.5l-152 -150h116q85 0 85 -82v-8q0 -83 -85 -83h-320zM354 756q33 0 54 -20t21 -50
q0 -53 -54 -96t-123 -63q-69 20 -123 63t-54 96q0 30 21 50t54 20t61.5 -23.5t40.5 -59.5q12 36 40.5 59.5t61.5 23.5z" />
    <glyph glyph-name="florin" unicode="&#x192;" horiz-adv-x="534" 
d="M165 -24q-29 0 -53.5 7t-36.5 15t-11 13l40 231q-80 6 -80 83v12q0 78 93 78h17l9 52q18 105 71 148t135 43q177 0 177 -113q0 -18 -6 -35t-15 -28.5t-18 -20t-15.5 -12.5t-7.5 -3q-21 27 -56 27q-36 0 -42 -32l-4 -22v-4h7q93 0 93 -83v-12q0 -78 -93 -78h-29l-19 -107
q-17 -91 -61 -125t-95 -34z" />
    <glyph glyph-name="Aringacute" unicode="&#x1fa;" horiz-adv-x="714" 
d="M493 726q0 -59 -44 -92q42 -18 55 -48l212 -518q5 -11 -12.5 -29.5t-50.5 -33.5t-67 -15q-94 0 -139 116l-1 2h-184l-2 -5q-41 -114 -133 -114q-46 0 -89 29t-36 47l201 521q11 31 57 50q-39 33 -39 90q0 56 39 92.5t98 36.5t97 -36.5t38 -92.5zM352 427l-54 -147h108z
M357 686q16 0 27.5 12t11.5 28q0 17 -11.5 29t-27.5 12t-27.5 -12t-11.5 -29t11.5 -28.5t27.5 -11.5zM283 909q-10 19 23.5 83t79.5 89q30 15 56 15q44 0 74.5 -25.5t30.5 -63.5q0 -31 -17.5 -61.5t-46.5 -45.5q-42 -22 -89 -23t-76 9.5t-35 22.5z" />
    <glyph glyph-name="aringacute" unicode="&#x1fb;" horiz-adv-x="597" 
d="M194 855q-10 19 23.5 83t79.5 89q30 15 56 15q44 0 74.5 -25.5t30.5 -63.5q0 -31 -17.5 -61.5t-46.5 -45.5q-42 -22 -89 -23t-76 9.5t-35 22.5zM181 -10q-74 0 -119.5 39.5t-45.5 104.5q0 79 77 120.5t217 41.5h24q-1 55 -59 55q-66 0 -83 -48q0 -2 -16.5 -4t-39.5 -0.5
t-46 8t-39 25t-16 47.5q0 70 60 101.5t193 31.5q145 0 211 -55t66 -170v-271q0 -10 -29 -18.5t-63 -8.5q-96 0 -127 86q-22 -40 -65.5 -62.5t-99.5 -22.5zM270 123q28 0 45 14t19 39v30h-27q-80 0 -80 -45q0 -18 12 -28t31 -10zM289 538q-61 0 -98 36.5t-37 92.5t38 92.5
t99 36.5t98 -36.5t37 -92.5t-38 -92.5t-99 -36.5zM290 627q16 0 27.5 11.5t11.5 28.5t-11.5 29t-27.5 12t-27.5 -12t-11.5 -29t11 -28.5t28 -11.5z" />
    <glyph glyph-name="AEacute" unicode="&#x1fc;" horiz-adv-x="912" 
d="M447 106l-1 2h-184l-2 -5q-40 -114 -132 -114q-49 0 -91 28.5t-35 47.5l195 506q12 39 46.5 57.5t112.5 18.5h416q58 0 85.5 -22.5t27.5 -70.5v-5q0 -50 -27 -71t-86 -21h-225l17 -43h122q61 0 87 -19.5t26 -63.5v-3q0 -47 -26.5 -68t-86.5 -21h-49l20 -51h119
q59 0 86 -19.5t27 -66.5v-5q0 -50 -27 -73.5t-86 -23.5h-166q-67 0 -102.5 20.5t-60.5 85.5zM411 713q-10 19 23.5 83t79.5 89q30 15 56 15q44 0 74.5 -25.5t30.5 -63.5q0 -31 -17.5 -61.5t-46.5 -45.5q-42 -22 -89 -23t-76 9.5t-35 22.5zM352 427l-54 -147h108z" />
    <glyph glyph-name="aeacute" unicode="&#x1fd;" horiz-adv-x="874" 
d="M186 -10q-75 0 -122.5 39.5t-47.5 104.5q0 79 77 120.5t217 41.5h24q-1 55 -59 55q-66 0 -83 -48q0 -2 -16.5 -4t-39.5 -0.5t-46 8t-39 25t-16 47.5q0 69 55.5 101t173.5 32q116 0 174 -46q61 46 152 46q117 0 193 -71t76 -178v-10q-2 -54 -42 -54h-304q16 -60 98 -60
q38 0 67 14t41 37q0 3 26.5 -1t53.5 -25t27 -60q0 -57 -57.5 -88t-164.5 -31q-160 0 -221 97q-26 -41 -78.5 -66.5t-118.5 -25.5zM350 572q-10 19 23.5 83t79.5 89q30 15 56 15q44 0 74.5 -25.5t30.5 -63.5q0 -31 -17.5 -61.5t-46.5 -45.5q-42 -22 -89 -23t-76 9.5t-35 22.5
zM587 368q-29 0 -48.5 -20t-21.5 -50h137q-3 70 -67 70zM270 123q29 0 46.5 16t17.5 43v25h-27q-80 0 -80 -46q0 -18 12 -28t31 -10z" />
    <glyph glyph-name="Oslashacute" unicode="&#x1fe;" horiz-adv-x="729" 
d="M120 -45q-5 -5 -27 1t-43.5 23.5t-21.5 40.5q0 21 23 47l39 43q-71 90 -71 214q0 147 98 242.5t250 95.5q101 0 180 -45l63 70q5 5 27 -1t43 -23.5t21 -40.5q0 -22 -22 -47l-35 -39q70 -91 70 -212q0 -148 -97.5 -243.5t-249.5 -95.5q-102 0 -181 44zM277 713
q-10 19 23.5 83t79.5 89q30 15 56 15q44 0 74.5 -25.5t30.5 -63.5q0 -31 -17.5 -61.5t-46.5 -45.5q-42 -22 -89 -23t-76 9.5t-35 22.5zM229 324q0 -30 7 -52l173 192q-26 6 -42 6q-64 0 -101 -39t-37 -107zM367 179q62 0 100 40t38 105q0 22 -7 50l-172 -190q16 -5 41 -5z
" />
    <glyph glyph-name="oslashacute" unicode="&#x1ff;" horiz-adv-x="594" 
d="M85 -85q-5 -5 -27 1t-43.5 24t-21.5 41q0 22 23 46l54 59q-52 69 -52 163q0 113 78.5 188t202.5 75q70 0 130 -27l92 102q5 5 27 -1t43 -23t21 -40t-22 -48l-63 -70q49 -66 49 -156q0 -115 -78 -189.5t-203 -74.5q-71 0 -125 24zM199 206l132 148q-18 5 -34 5
q-44 0 -75 -32t-31 -78q0 -17 8 -43zM297 141q43 0 74.5 32t31.5 76q0 18 -7 39l-128 -143q12 -4 29 -4zM210 572q-10 19 23.5 83t79.5 89q30 15 56 15q44 0 74.5 -25.5t30.5 -63.5q0 -31 -17.5 -61.5t-46.5 -45.5q-42 -22 -89 -23t-76 9.5t-35 22.5z" />
    <glyph glyph-name="Scommaaccent" unicode="&#x218;" horiz-adv-x="604" 
d="M278 -15q-265 0 -265 135q0 25 17 54t35.5 45.5t22.5 13.5q35 -24 91 -43.5t99 -19.5q67 0 67 28q0 5 -2 9t-7.5 7.5t-10.5 5.5t-14.5 4.5t-17 3.5t-21 3.5t-22.5 4.5q-47 9 -82.5 22.5t-69.5 36t-52.5 59t-18.5 85.5q0 108 75 165.5t220 57.5q130 0 192.5 -35t62.5 -92
q0 -29 -19.5 -59.5t-39.5 -47t-23 -13.5q-36 27 -82.5 44.5t-87.5 17.5q-36 0 -50.5 -6.5t-14.5 -21.5q0 -6 4.5 -10.5t16 -8t21.5 -5.5t29.5 -5t32.5 -6q109 -23 168.5 -71t59.5 -130q0 -228 -314 -228zM273 -220q-25 -13 -53.5 -13t-49.5 13.5t-15 32.5l26 87
q10 33 30 46.5t72 13.5h26q89 0 89 -60v-6q0 -35 -52 -68z" />
    <glyph glyph-name="scommaaccent" unicode="&#x219;" horiz-adv-x="504" 
d="M238 -10q-122 0 -176.5 28t-54.5 90q0 21 12 42t24 31t14 8q28 -22 71.5 -37t88.5 -15q41 0 41 16q0 11 -49 22l-12 3q-82 18 -116 41q-62 41 -62 121t60.5 125.5t170.5 45.5q223 0 223 -121q0 -23 -13.5 -45.5t-26.5 -33.5t-16 -9q-30 26 -71 43.5t-76 17.5
q-39 0 -39 -18q0 -4 3 -7t10.5 -5.5t14.5 -4t20 -4t22 -4.5q88 -19 125 -45q59 -41 60 -115q0 -83 -62.5 -126.5t-185.5 -43.5zM209 -220q-25 -13 -53.5 -13t-49.5 13.5t-15 32.5l26 87q10 33 30 46.5t72 13.5h26q89 0 89 -60v-6q0 -35 -52 -68z" />
    <glyph glyph-name="circumflex" unicode="&#x2c6;" horiz-adv-x="500" 
d="M148 538q-33 0 -54 20t-21 50q0 53 54 96t123 62q69 -19 123 -62t54 -96q0 -30 -21 -50t-54 -20q-34 0 -62 23t-40 60q-12 -37 -40.5 -60t-61.5 -23z" />
    <glyph glyph-name="caron" unicode="&#x2c7;" horiz-adv-x="500" 
d="M352 756q33 0 54 -20t21 -50q0 -53 -54 -96t-123 -63q-69 20 -123 63t-54 96q0 30 21 50t54 20t61.5 -23.5t40.5 -59.5q12 36 40.5 59.5t61.5 23.5z" />
    <glyph glyph-name="breve" unicode="&#x2d8;" horiz-adv-x="500" 
d="M250 538q-77 0 -137 40.5t-60 96.5q0 29 21.5 50.5t55.5 21.5q33 0 67 -25t53 -67q19 42 53 67t67 25q34 0 55.5 -21.5t21.5 -50.5q0 -56 -60 -96.5t-137 -40.5z" />
    <glyph glyph-name="dotaccent" unicode="&#x2d9;" horiz-adv-x="500" 
d="M249 538q-50 0 -79.5 29t-29.5 75q0 45 30.5 74.5t80.5 29.5q49 0 79 -29.5t30 -74.5q0 -46 -30.5 -75t-80.5 -29z" />
    <glyph glyph-name="ring" unicode="&#x2da;" horiz-adv-x="500" 
d="M249 538q-61 0 -98 36.5t-37 92.5t38 92.5t99 36.5t98 -36.5t37 -92.5t-38 -92.5t-99 -36.5zM250 627q16 0 27.5 11.5t11.5 28.5t-11.5 29t-27.5 12t-27.5 -12t-11.5 -29t11 -28.5t28 -11.5z" />
    <glyph glyph-name="ogonek" unicode="&#x2db;" horiz-adv-x="500" 
d="M369 26q-41 -41 -56 -60t-15 -34q0 -26 26 -26q20 0 30 17q17 -3 27.5 -18.5t10.5 -35.5q0 -35 -26 -57t-78 -22q-61 0 -95 25.5t-34 72.5t47 84.5t108 37.5z" />
    <glyph glyph-name="tilde" unicode="&#x2dc;" horiz-adv-x="499" 
d="M129 538q-32 0 -53 22t-21 53q0 55 33.5 86.5t80.5 31.5q77 0 129 -55q20 55 71 55q32 0 53 -22.5t21 -53.5q0 -55 -33.5 -86t-80.5 -31q-78 0 -129 55q-20 -55 -71 -55z" />
    <glyph glyph-name="hungarumlaut" unicode="&#x2dd;" horiz-adv-x="500" 
d="M283 572q-10 19 23.5 83t79.5 89q30 15 56 15q44 0 74.5 -25.5t30.5 -63.5q0 -31 -17.5 -61.5t-46.5 -45.5q-42 -22 -89 -23t-76 9.5t-35 22.5zM13 572q-10 19 23.5 83t79.5 89q30 15 56 15q44 0 74.5 -25.5t30.5 -63.5q0 -31 -17.5 -61.5t-46.5 -45.5q-42 -22 -89 -23
t-76 9.5t-35 22.5z" />
    <glyph glyph-name="pi" unicode="&#x3c0;" horiz-adv-x="733" 
d="M367 -15q-151 0 -245.5 95t-94.5 244q0 148 94.5 243t245.5 95t245 -94.5t94 -243.5t-94 -244t-245 -95zM367 59q118 0 190.5 74.5t72.5 190.5t-73 190t-190 74q-118 0 -191 -74t-73 -190q0 -117 73 -191t191 -74zM270 132q-57 0 -57 62v224q0 75 69 75h94
q166 0 166 -136q0 -133 -160 -133h-33v-30q0 -62 -59 -62h-20zM347 394v-74h28q38 0 38 37t-41 37h-25z" />
    <glyph glyph-name="Wgrave" unicode="&#x1e80;" horiz-adv-x="1009" 
d="M312 -5q-56 0 -89 20t-48 72l-153 477q-2 7 13.5 26.5t54 39t86.5 19.5q43 0 81 -29t51 -99l31 -190l44 183q9 42 44.5 63.5t83.5 21.5q45 0 81 -23t44 -62l44 -183l30 194q11 65 48.5 95t83.5 30q28 0 53 -8t41.5 -19t28.5 -23.5t17 -22t4 -13.5l-146 -477
q-25 -92 -139 -92q-56 0 -91 20.5t-50 71.5l-54 199l-50 -199q-25 -92 -144 -92zM398 704q-29 15 -46.5 45.5t-17.5 61.5q0 38 30.5 63.5t74.5 25.5q29 0 56 -15q46 -25 79.5 -89t23.5 -83q-6 -12 -35 -22.5t-76 -9.5t-89 23z" />
    <glyph glyph-name="wgrave" unicode="&#x1e81;" horiz-adv-x="854" 
d="M256 -6q-89 0 -111 60l-140 388q-3 7 19.5 23.5t58.5 30.5t65 14q89 0 103 -81l28 -190l49 170q9 33 40 52t69 19t67.5 -19t37.5 -52l40 -157l28 177q8 43 35 62t62 19q31 0 66.5 -14t56.5 -30.5t18 -23.5l-136 -388q-17 -60 -109 -60q-57 0 -84.5 14.5t-42.5 60.5
l-49 149l-46 -149q-13 -45 -42 -60t-83 -15zM301 563q-29 15 -46.5 45.5t-17.5 61.5q0 38 30.5 63.5t74.5 25.5q29 0 56 -15q46 -25 79.5 -89t23.5 -83q-6 -12 -35 -22.5t-76 -9.5t-89 23z" />
    <glyph glyph-name="Wacute" unicode="&#x1e82;" horiz-adv-x="1009" 
d="M312 -5q-56 0 -89 20t-48 72l-153 477q-2 7 13.5 26.5t54 39t86.5 19.5q43 0 81 -29t51 -99l31 -190l44 183q9 42 44.5 63.5t83.5 21.5q45 0 81 -23t44 -62l44 -183l30 194q11 65 48.5 95t83.5 30q28 0 53 -8t41.5 -19t28.5 -23.5t17 -22t4 -13.5l-146 -477
q-25 -92 -139 -92q-56 0 -91 20.5t-50 71.5l-54 199l-50 -199q-25 -92 -144 -92zM415 713q-10 19 23.5 83t79.5 89q30 15 56 15q44 0 74.5 -25.5t30.5 -63.5q0 -31 -17.5 -61.5t-46.5 -45.5q-42 -22 -89 -23t-76 9.5t-35 22.5z" />
    <glyph glyph-name="wacute" unicode="&#x1e83;" horiz-adv-x="854" 
d="M256 -6q-89 0 -111 60l-140 388q-3 7 19.5 23.5t58.5 30.5t65 14q89 0 103 -81l28 -190l49 170q9 33 40 52t69 19t67.5 -19t37.5 -52l40 -157l28 177q8 43 35 62t62 19q31 0 66.5 -14t56.5 -30.5t18 -23.5l-136 -388q-17 -60 -109 -60q-57 0 -84.5 14.5t-42.5 60.5
l-49 149l-46 -149q-13 -45 -42 -60t-83 -15zM351 572q-10 19 23.5 83t79.5 89q30 15 56 15q44 0 74.5 -25.5t30.5 -63.5q0 -31 -17.5 -61.5t-46.5 -45.5q-42 -22 -89 -23t-76 9.5t-35 22.5z" />
    <glyph glyph-name="Wdieresis" unicode="&#x1e84;" horiz-adv-x="1009" 
d="M312 -5q-56 0 -89 20t-48 72l-153 477q-2 7 13.5 26.5t54 39t86.5 19.5q43 0 81 -29t51 -99l31 -190l44 183q9 42 44.5 63.5t83.5 21.5q45 0 81 -23t44 -62l44 -183l30 194q11 65 48.5 95t83.5 30q28 0 53 -8t41.5 -19t28.5 -23.5t17 -22t4 -13.5l-146 -477
q-25 -92 -139 -92q-56 0 -91 20.5t-50 71.5l-54 199l-50 -199q-25 -92 -144 -92zM629 679q-49 0 -76.5 26.5t-27.5 74.5q0 47 27 74t73 27q48 0 75.5 -26.5t27.5 -74.5q0 -47 -27 -74t-72 -27zM383 679q-48 0 -75.5 26.5t-27.5 74.5q0 47 27 74t72 27q49 0 76.5 -26.5
t27.5 -74.5q0 -47 -27 -74t-73 -27z" />
    <glyph glyph-name="wdieresis" unicode="&#x1e85;" horiz-adv-x="854" 
d="M256 -6q-89 0 -111 60l-140 388q-3 7 19.5 23.5t58.5 30.5t65 14q89 0 103 -81l28 -190l49 170q9 33 40 52t69 19t67.5 -19t37.5 -52l40 -157l28 177q8 43 35 62t62 19q31 0 66.5 -14t56.5 -30.5t18 -23.5l-136 -388q-17 -60 -109 -60q-57 0 -84.5 14.5t-42.5 60.5
l-49 149l-46 -149q-13 -45 -42 -60t-83 -15zM552 538q-49 0 -76.5 26.5t-27.5 74.5q0 47 27 74t73 27q48 0 75.5 -26.5t27.5 -74.5q0 -47 -27 -74t-72 -27zM306 538q-48 0 -75.5 26.5t-27.5 74.5q0 47 27 74t72 27q49 0 76.5 -26.5t27.5 -74.5q0 -47 -27 -74t-73 -27z" />
    <glyph glyph-name="endash" unicode="&#x2013;" horiz-adv-x="593" 
d="M116 151q-43 0 -67 26t-24 62v19q0 35 24 61t67 26h351q43 0 67 -26t24 -61v-19q0 -36 -24 -62t-67 -26h-351z" />
    <glyph glyph-name="emdash" unicode="&#x2014;" horiz-adv-x="753" 
d="M116 151q-43 0 -67 26t-24 62v19q0 35 24 61t67 26h521q43 0 67 -26t24 -61v-19q0 -36 -24 -62t-67 -26h-521z" />
    <glyph glyph-name="quoteleft" unicode="&#x2018;" horiz-adv-x="274" 
d="M102 355q-88 0 -88 93v9q0 55 52 107l72 72q25 20 54 20.5t50.5 -21t15.5 -52.5l-28 -135q-11 -52 -30 -72.5t-70 -20.5h-28z" />
    <glyph glyph-name="quoteright" unicode="&#x2019;" horiz-adv-x="274" 
d="M135 376q-25 -20 -53.5 -20t-49.5 21t-15 52l26 135q10 51 30 72t72 21h26q89 0 89 -93v-9q0 -56 -52 -107z" />
    <glyph glyph-name="quotesinglbase" unicode="&#x201a;" horiz-adv-x="274" 
d="M135 -85q-25 -20 -53.5 -20t-49.5 21t-15 52l26 135q10 51 30 72t72 21h26q89 0 89 -93v-9q0 -56 -52 -107z" />
    <glyph glyph-name="quotedblleft" unicode="&#x201c;" horiz-adv-x="533" 
d="M362 355q-89 0 -89 93v9q0 56 52 107l73 72q25 20 53.5 20t49.5 -21t15 -52l-26 -135q-10 -51 -30 -72t-72 -21h-26zM102 355q-88 0 -88 93v9q0 55 52 107l72 72q25 20 54 20.5t50.5 -21t15.5 -52.5l-28 -135q-11 -52 -30 -72.5t-70 -20.5h-28z" />
    <glyph glyph-name="quotedblright" unicode="&#x201d;" horiz-adv-x="533" 
d="M395 376q-25 -20 -54 -20.5t-50.5 21t-15.5 52.5l28 135q11 52 30 72.5t70 20.5h28q88 0 88 -93v-9q0 -55 -52 -107zM135 376q-25 -20 -53.5 -20t-49.5 21t-15 52l26 135q10 51 30 72t72 21h26q89 0 89 -93v-9q0 -56 -52 -107z" />
    <glyph glyph-name="quotedblbase" unicode="&#x201e;" horiz-adv-x="533" 
d="M395 -85q-25 -20 -54 -20.5t-50.5 21t-15.5 52.5l28 135q11 52 30 72.5t70 20.5h28q88 0 88 -93v-9q0 -55 -52 -107zM135 -85q-25 -20 -53.5 -20t-49.5 21t-15 52l26 135q10 51 30 72t72 21h26q89 0 89 -93v-9q0 -56 -52 -107z" />
    <glyph glyph-name="dagger" unicode="&#x2020;" horiz-adv-x="550" 
d="M212 465l-35 118q-11 41 13 60.5t85 19.5q63 0 86.5 -19.5t12.5 -60.5l-35 -118l117 38q36 12 58 -20t22 -85q0 -54 -21.5 -86t-58.5 -20l-120 39q27 -27 35 -57.5t6 -82.5l-13 -292q-1 -19 -6.5 -30t-16.5 -15.5t-19 -5.5t-24 -1h-45q-16 0 -24 1t-19 5.5t-16.5 15.5
t-6.5 30l-13 292q-2 52 6 83t35 57l-121 -39q-37 -12 -58.5 20t-21.5 86q0 62 19 90.5t61 14.5z" />
    <glyph glyph-name="daggerdbl" unicode="&#x2021;" horiz-adv-x="550" 
d="M212 485l-35 98q-11 41 13 60.5t85 19.5q63 0 86.5 -19.5t12.5 -60.5l-34 -98l116 38q36 12 58 -20t22 -85q0 -54 -21.5 -86t-58.5 -20l-120 39q27 -27 35 -57.5t6 -82.5l-1 -33l80 26q37 12 58.5 -20t21.5 -86q0 -53 -22 -85t-58 -20l-87 28l-5 -122q-1 -19 -6.5 -30
t-16.5 -15.5t-19 -5.5t-24 -1h-45q-16 0 -24 1t-19 5.5t-16.5 15.5t-6.5 30l-5 123l-88 -29q-42 -14 -61 14.5t-19 90.5q0 54 21.5 86t58.5 20l81 -26l-1 33q-2 52 6 83t35 57l-121 -39q-37 -12 -58.5 20t-21.5 86q0 62 19 90.5t61 14.5z" />
    <glyph glyph-name="bullet" unicode="&#x2022;" horiz-adv-x="376" 
d="M188 88q-69 0 -114.5 45.5t-45.5 115.5q0 69 46 116t114 47t114 -47t46 -116q0 -67 -47 -114t-113 -47z" />
    <glyph glyph-name="ellipsis" unicode="&#x2026;" horiz-adv-x="825" 
d="M672 -9q-94 0 -94 93v19q0 93 94 93h27q50 0 73 -22.5t23 -70.5v-19q0 -93 -96 -93h-27zM397 -9q-94 0 -94 93v19q0 93 94 93h27q50 0 73 -22.5t23 -70.5v-19q0 -93 -96 -93h-27zM122 -9q-94 0 -94 93v19q0 93 94 93h27q50 0 73 -22.5t23 -70.5v-19q0 -93 -96 -93h-27z
" />
    <glyph glyph-name="perthousand" unicode="&#x2030;" horiz-adv-x="1116" 
d="M178 331q-79 0 -126 42.5t-47 117.5v6q0 75 47 117.5t126 42.5q78 0 124.5 -42.5t46.5 -117.5v-6q0 -75 -46.5 -117.5t-124.5 -42.5zM155 -15q-5 -5 -27 1t-43.5 23.5t-21.5 40.5q0 21 23 47l505 560q5 5 27 -1t43 -23t21 -40t-22 -48zM940 -15q-79 0 -126 42.5
t-47 117.5v6q0 75 47 117.5t126 42.5q78 0 124.5 -42.5t46.5 -117.5v-6q0 -75 -46.5 -117.5t-124.5 -42.5zM570 -15q-79 0 -126 42.5t-47 117.5v6q0 75 47 117.5t126 42.5q78 0 124.5 -42.5t46.5 -117.5v-6q0 -75 -46.5 -117.5t-124.5 -42.5zM178 434q40 0 40 51v18
q0 52 -40 52q-41 0 -41 -52v-18q0 -51 41 -51zM940 88q40 0 40 51v18q0 52 -40 52q-41 0 -41 -52v-18q0 -51 41 -51zM570 88q40 0 40 51v18q0 52 -40 52q-41 0 -41 -52v-18q0 -51 41 -51z" />
    <glyph glyph-name="guilsinglleft" unicode="&#x2039;" horiz-adv-x="326" 
d="M307 136v-5q0 -38 -22 -61t-63 -23h-3q-42 0 -91.5 46.5t-79 93.5t-29.5 61t29.5 61t79 93.5t91.5 46.5h3q42 0 63.5 -22.5t21.5 -61.5v-5q0 -36 -39 -68.5t-73 -43.5q36 -14 74 -45t38 -67z" />
    <glyph glyph-name="guilsinglright" unicode="&#x203a;" horiz-adv-x="326" 
d="M19 136q0 36 38 67t74 45q-34 11 -73 43.5t-39 68.5v5q0 39 21.5 61.5t63.5 22.5h3q42 0 91.5 -46.5t79 -93.5t29.5 -61t-29.5 -61t-79 -93.5t-91.5 -46.5h-3q-41 0 -63 23t-22 61v5z" />
    <glyph glyph-name="fraction" unicode="&#x2044;" horiz-adv-x="755" 
d="M174 -10q-13 -15 -63 5.5t-50 56.5q0 22 20 45l486 560q13 15 63 -5.5t50 -56.5q0 -22 -20 -45z" />
    <glyph glyph-name="zero.sups" unicode="&#x2070;" horiz-adv-x="336" 
d="M169 277q-80 0 -122 44.5t-42 128.5v33q0 83 42.5 128t121.5 45q78 0 120 -44.5t42 -128.5v-33q0 -84 -42 -128.5t-120 -44.5zM169 393q12 0 17 8.5t5 31.5v68q0 24 -5 32t-17 8q-14 0 -19 -7.5t-5 -32.5v-68q0 -24 5 -32t19 -8z" />
    <glyph glyph-name="four.sups" unicode="&#x2074;" horiz-adv-x="336" 
d="M216 279q-59 0 -59 68v6h-88q-35 0 -55 16t-20 41v17q1 18 20 61l55 121q14 29 36 36.5t81 7.5q55 0 77.5 -20.5t22.5 -74.5v-103q28 -1 40 -12.5t12 -35.5v-3q0 -26 -12 -38t-40 -13v-6q0 -68 -62 -68h-8zM166 573l-60 -120h60v120z" />
    <glyph glyph-name="five.sups" unicode="&#x2075;" horiz-adv-x="336" 
d="M134 537v-26q23 5 48 5q65 0 103 -30.5t38 -85.5q0 -57 -43.5 -90t-120.5 -33q-73 0 -112 19t-39 50q0 17 12 33.5t24 25.5t14 7q45 -35 96 -35q45 0 45 26q0 24 -48 24q-34 0 -50 -13q-84 -2 -84 79v73q0 42 15.5 61.5t52.5 19.5h158q71 0 71 -55v-1q0 -54 -71 -54h-109
z" />
    <glyph glyph-name="six.sups" unicode="&#x2076;" horiz-adv-x="336" 
d="M198 544q-53 0 -56 -61q24 32 76 32q53 0 83 -27t30 -74v-2q0 -62 -41.5 -98.5t-114.5 -36.5q-78 0 -123 47.5t-45 130.5v20q0 86 46.5 133.5t131.5 47.5q139 0 139 -84q0 -25 -17 -38.5t-32.5 -16t-18.5 -0.5q-12 27 -58 27zM182 437q-20 0 -36 -11v-16q0 -45 39 -45
q12 0 21 10t9 22v4q0 36 -33 36z" />
    <glyph glyph-name="seven.sups" unicode="&#x2077;" horiz-adv-x="336" 
d="M22 584v11q0 29 16 40.5t49 11.5h136q60 0 80.5 -20.5t20.5 -55.5v-8q0 -15 -6 -33t-11.5 -28t-18 -30.5t-12.5 -21.5l-69 -120q-30 -51 -75 -51q-22 0 -42 10.5t-29.5 22t-6.5 16.5l117 201h-84q-33 0 -49 12.5t-16 42.5z" />
    <glyph glyph-name="eight.sups" unicode="&#x2078;" horiz-adv-x="336" 
d="M167 278q-163 0 -163 109q0 66 67 83q-57 19 -57 79q0 51 42 80.5t113 29.5t110.5 -29t39.5 -81q0 -60 -54 -78q67 -19 67 -84q0 -53 -42.5 -81t-122.5 -28zM168 370q14 0 25.5 11t11.5 26t-11 25.5t-26 10.5t-26.5 -10.5t-11.5 -25.5t11.5 -26t26.5 -11zM168 492
q14 0 25.5 11t11.5 26t-11 25.5t-26 10.5t-26.5 -10.5t-11.5 -25.5t11.5 -26t26.5 -11z" />
    <glyph glyph-name="nine.sups" unicode="&#x2079;" horiz-adv-x="336" 
d="M144 384q48 0 52 57q-22 -28 -76 -28q-51 0 -81.5 28t-30.5 75v3q0 62 41.5 99.5t114.5 37.5q79 0 123.5 -47.5t44.5 -130.5v-21q0 -86 -46 -133t-132 -47q-139 0 -139 77q0 25 16.5 39t33 16.5t17.5 0.5q14 -26 62 -26zM161 482q21 0 36 16v22q0 18 -10.5 27.5
t-26.5 9.5q-14 0 -24 -9.5t-10 -23.5v-4q0 -17 9.5 -27.5t25.5 -10.5z" />
    <glyph glyph-name="plus.sups" unicode="&#x207a;" horiz-adv-x="336" 
d="M68 414q-26 0 -40 13t-14 34v5q0 20 14.5 32.5t39.5 12.5h48v52q0 25 13.5 39.5t33.5 14.5h12q20 0 33 -14.5t13 -39.5v-52h48q27 0 41 -12.5t14 -32.5v-5q0 -21 -14 -34t-41 -13h-48v-51q0 -26 -13 -40.5t-33 -14.5h-12q-20 0 -33.5 14.5t-13.5 40.5v51h-48z" />
    <glyph glyph-name="minus.sups" unicode="&#x207b;" horiz-adv-x="336" 
d="M68 408q-26 0 -40.5 14.5t-14.5 37.5v5q0 22 14.5 36.5t40.5 14.5h202q26 0 40 -14.5t14 -36.5v-5q0 -23 -14 -37.5t-40 -14.5h-202z" />
    <glyph glyph-name="equal.sups" unicode="&#x207c;" horiz-adv-x="336" 
d="M68 487q-26 0 -40.5 13t-14.5 33v6q0 20 14.5 33t40.5 13h202q26 0 40 -13t14 -33v-6q0 -20 -14 -33t-40 -13h-202zM68 339q-26 0 -40.5 13t-14.5 34v5q0 20 14.5 33t40.5 13h202q26 0 40 -13t14 -33v-5q0 -21 -14 -34t-40 -13h-202z" />
    <glyph glyph-name="parenleft.sups" unicode="&#x207d;" horiz-adv-x="336" 
d="M229 220q-74 0 -127.5 72.5t-53.5 168.5q0 97 53.5 169t127.5 72q33 0 51 -16.5t18 -45.5q0 -12 -6 -22t-11.5 -14.5t-8.5 -5.5q-85 -25 -85 -137q0 -111 85 -136q3 -1 8.5 -5.5t11.5 -15t6 -22.5q0 -29 -18 -45.5t-51 -16.5z" />
    <glyph glyph-name="parenright.sups" unicode="&#x207e;" horiz-adv-x="336" 
d="M108 220q-33 0 -50.5 16.5t-17.5 45.5q0 12 5.5 22.5t11 15t8.5 5.5q87 25 87 136q0 112 -87 137q-3 1 -8.5 5.5t-11 14.5t-5.5 22q0 29 17.5 45.5t50.5 16.5q75 0 129 -72t54 -169q0 -96 -54.5 -168.5t-128.5 -72.5z" />
    <glyph glyph-name="zero.sinf" unicode="&#x2080;" horiz-adv-x="336" 
d="M169 -8q-80 0 -122 44.5t-42 128.5v33q0 83 42.5 128t121.5 45q78 0 120 -44.5t42 -128.5v-33q0 -84 -42 -128.5t-120 -44.5zM169 108q12 0 17 8.5t5 31.5v68q0 24 -5 32t-17 8q-14 0 -19 -7.5t-5 -32.5v-68q0 -24 5 -32t19 -8z" />
    <glyph glyph-name="one.sinf" unicode="&#x2081;" horiz-adv-x="336" 
d="M87 0q-68 0 -68 58v1q0 61 68 61h30v91q-18 -8 -35 -8q-27 0 -46.5 19t-19.5 48q0 22 9.5 39.5t19 24t12.5 5.5q22 -10 33 -10q39 0 51 39h44q65 0 65 -68v-180h10q68 0 68 -61v-1q0 -58 -68 -58h-173z" />
    <glyph glyph-name="two.sinf" unicode="&#x2082;" horiz-adv-x="336" 
d="M232 141q-13 -5 -45 -13t-44 -15h114q69 0 69 -54v-1q0 -30 -16.5 -43.5t-52.5 -13.5h-155q-53 0 -70 13t-17 55v27q0 45 24 65.5t85 46.5q14 6 35 13t27.5 11t6.5 10q0 10 -7.5 17.5t-21.5 7.5q-21 0 -35.5 -17t-17.5 -39q0 -3 -23.5 -1t-47 18t-23.5 47q0 47 40.5 71.5
t114.5 24.5q72 0 113 -33t41 -90q0 -49 -24.5 -71t-69.5 -36z" />
    <glyph glyph-name="three.sinf" unicode="&#x2083;" horiz-adv-x="336" 
d="M328 106q0 -114 -168 -114q-70 0 -112 23t-42 63q0 20 9 35t21.5 21t25.5 8.5t22 2t10 -1.5q10 -46 61 -46q18 0 28.5 6.5t10.5 16.5q0 13 -16 13h-2q-35 0 -50 11t-15 35v8q0 47 64 47h10q9 0 9 10q0 9 -11 15.5t-30 6.5q-52 0 -58 -48q0 -2 -8.5 -2.5t-21 2t-25 8.5
t-21 21t-8.5 36q0 42 39.5 65t108.5 23q166 0 166 -104q0 -55 -63 -73q66 -23 66 -88z" />
    <glyph glyph-name="four.sinf" unicode="&#x2084;" horiz-adv-x="336" 
d="M216 -6q-59 0 -59 68v6h-88q-35 0 -55 16t-20 41v17q1 18 20 61l55 121q14 29 36 36.5t81 7.5q55 0 77.5 -20.5t22.5 -74.5v-103q28 -1 40 -12.5t12 -35.5v-3q0 -26 -12 -38t-40 -13v-6q0 -68 -62 -68h-8zM166 288l-60 -120h60v120z" />
    <glyph glyph-name="five.sinf" unicode="&#x2085;" horiz-adv-x="336" 
d="M134 252v-26q23 5 48 5q65 0 103 -30.5t38 -85.5q0 -57 -43.5 -90t-120.5 -33q-73 0 -112 19t-39 50q0 17 12 33.5t24 25.5t14 7q45 -35 96 -35q45 0 45 26q0 24 -48 24q-34 0 -50 -13q-84 -2 -84 79v73q0 42 15.5 61.5t52.5 19.5h158q71 0 71 -55v-1q0 -54 -71 -54h-109
z" />
    <glyph glyph-name="six.sinf" unicode="&#x2086;" horiz-adv-x="336" 
d="M198 259q-53 0 -56 -61q24 32 76 32q53 0 83 -27t30 -74v-2q0 -62 -41.5 -98.5t-114.5 -36.5q-78 0 -123 47.5t-45 130.5v20q0 86 46.5 133.5t131.5 47.5q139 0 139 -84q0 -25 -17 -38.5t-32.5 -16t-18.5 -0.5q-12 27 -58 27zM182 152q-20 0 -36 -11v-16q0 -45 39 -45
q12 0 21 10t9 22v4q0 36 -33 36z" />
    <glyph glyph-name="seven.sinf" unicode="&#x2087;" horiz-adv-x="336" 
d="M22 299v11q0 29 16 40.5t49 11.5h136q60 0 80.5 -20.5t20.5 -55.5v-8q0 -15 -6 -33t-11.5 -28t-18 -30.5t-12.5 -21.5l-69 -120q-30 -51 -75 -51q-22 0 -42 10.5t-29.5 22t-6.5 16.5l117 201h-84q-33 0 -49 12.5t-16 42.5z" />
    <glyph glyph-name="eight.sinf" unicode="&#x2088;" horiz-adv-x="336" 
d="M167 -7q-163 0 -163 109q0 66 67 83q-57 19 -57 79q0 51 42 80.5t113 29.5t110.5 -29t39.5 -81q0 -60 -54 -78q67 -19 67 -84q0 -53 -42.5 -81t-122.5 -28zM168 85q14 0 25.5 11t11.5 26t-11 25.5t-26 10.5t-26.5 -10.5t-11.5 -25.5t11.5 -26t26.5 -11zM168 207
q14 0 25.5 11t11.5 26t-11 25.5t-26 10.5t-26.5 -10.5t-11.5 -25.5t11.5 -26t26.5 -11z" />
    <glyph glyph-name="nine.sinf" unicode="&#x2089;" horiz-adv-x="336" 
d="M144 99q48 0 52 57q-22 -28 -76 -28q-51 0 -81.5 28t-30.5 75v3q0 62 41.5 99.5t114.5 37.5q79 0 123.5 -47.5t44.5 -130.5v-21q0 -86 -46 -133t-132 -47q-139 0 -139 77q0 25 16.5 39t33 16.5t17.5 0.5q14 -26 62 -26zM161 197q21 0 36 16v22q0 18 -10.5 27.5t-26.5 9.5
q-14 0 -24 -9.5t-10 -23.5v-4q0 -17 9.5 -27.5t25.5 -10.5z" />
    <glyph glyph-name="parenleft.sinf" unicode="&#x208d;" horiz-adv-x="336" 
d="M229 -65q-74 0 -127.5 72.5t-53.5 168.5q0 97 53.5 169t127.5 72q33 0 51 -16.5t18 -45.5q0 -12 -6 -22t-11.5 -14.5t-8.5 -5.5q-85 -25 -85 -137q0 -111 85 -136q3 -1 8.5 -5.5t11.5 -15t6 -22.5q0 -29 -18 -45.5t-51 -16.5z" />
    <glyph glyph-name="parenright.sinf" unicode="&#x208e;" horiz-adv-x="336" 
d="M108 -65q-33 0 -50.5 16.5t-17.5 45.5q0 12 5.5 22.5t11 15t8.5 5.5q87 25 87 136q0 112 -87 137q-3 1 -8.5 5.5t-11 14.5t-5.5 22q0 29 17.5 45.5t50.5 16.5q75 0 129 -72t54 -169q0 -96 -54.5 -168.5t-128.5 -72.5z" />
    <glyph glyph-name="Euro" unicode="&#x20ac;" horiz-adv-x="637" 
d="M85 245h-4q-35 0 -54.5 20.5t-19.5 50.5v19q0 28 19.5 49t54.5 21h4q13 120 96.5 188t213.5 68q72 0 125.5 -20t77.5 -45q30 -30 29 -74q0 -34 -25.5 -62.5t-51 -40.5t-30.5 -7q-28 28 -53 40t-61 12q-73 0 -85 -59h93q35 0 54.5 -20.5t19.5 -49.5v-19q0 -30 -19 -50.5
t-55 -20.5h-93q11 -63 85 -63q36 0 61 12t53 40q5 5 30.5 -7t51 -40.5t25.5 -62.5q1 -44 -29 -74q-24 -25 -77.5 -45t-125.5 -20q-131 0 -214.5 69t-95.5 191z" />
    <glyph glyph-name="trademark" unicode="&#x2122;" horiz-adv-x="707" 
d="M381 318q-48 0 -48 57v220q0 57 47 57h35q22 0 32 -6t17 -22l47 -110l47 110q7 17 17.5 22.5t30.5 5.5h35q48 0 48 -57v-220q0 -57 -47 -57h-20q-48 0 -48 57v96l-16 -65q-2 -9 -3.5 -12.5t-12 -7t-31.5 -3.5q-8 0 -14.5 0.5t-11 1t-8 2t-5 2.5t-3 3.5t-2 3.5t-1.5 5
t-1 5l-17 60v-91q0 -57 -47 -57h-20zM59 541q-56 0 -56 54v1q0 51 56 51h198q56 0 56 -51v-1q0 -54 -56 -54h-37v-166q0 -57 -54 -57h-18q-50 0 -50 57v166h-39z" />
    <glyph glyph-name="minus" unicode="&#x2212;" horiz-adv-x="600" 
d="M119 158q-44 0 -67.5 23.5t-23.5 62.5v9q0 37 24 61t67 24h361q44 0 67.5 -23.5t23.5 -61.5v-9q0 -39 -23.5 -62.5t-67.5 -23.5h-361z" />
    <glyph glyph-name="uni2219" unicode="&#x2219;" horiz-adv-x="275" 
d="M122 146q-94 0 -94 93v19q0 93 94 93h27q50 0 73 -22.5t23 -70.5v-19q0 -93 -96 -93h-27z" />
    <glyph glyph-name="notequal" unicode="&#x2260;" horiz-adv-x="600" 
d="M119 299q-44 0 -67.5 21.5t-23.5 56.5v9q0 34 24 55.5t67 21.5h165l35 111q18 58 40 79t44 14l30 -9q50 -15 16 -124l-22 -71h53q44 0 67.5 -21.5t23.5 -55.5v-9q0 -35 -23.5 -56.5t-67.5 -21.5h-113l-30 -96h143q44 0 67.5 -21.5t23.5 -55.5v-9q0 -35 -23.5 -56.5
t-67.5 -21.5h-184l-35 -116q-18 -59 -39 -80t-44 -14l-30 10q-51 16 -17 124l23 76h-35q-44 0 -67.5 21.5t-23.5 56.5v9q0 34 24 55.5t67 21.5h95l30 96h-125z" />
    <glyph glyph-name="lessequal" unicode="&#x2264;" horiz-adv-x="600" 
d="M52 408q0 75 60 100l395 137q5 2 17.5 -11.5t23.5 -39t11 -51.5q0 -75 -80 -99l-123 -34l123 -32q81 -24 81 -98q0 -25 -11 -51t-23.5 -40t-18.5 -11l-395 133q-60 24 -60 97zM134 0q-44 0 -67.5 21.5t-23.5 56.5v9q0 34 24 55.5t67 21.5h331q44 0 67.5 -21.5t23.5 -55.5
v-9q0 -35 -23.5 -56.5t-67.5 -21.5h-331z" />
    <glyph glyph-name="greaterequal" unicode="&#x2265;" horiz-adv-x="600" 
d="M41 543q0 26 11 51.5t23.5 39t17.5 11.5l395 -137q60 -25 60 -100q0 -73 -60 -97l-395 -133q-6 -3 -18.5 11t-23.5 40t-11 51q0 74 81 98l123 32l-123 34q-80 24 -80 99zM135 0q-44 0 -67.5 21.5t-23.5 56.5v9q0 34 23.5 55.5t67.5 21.5h331q43 0 67 -21.5t24 -55.5v-9
q0 -35 -23.5 -56.5t-67.5 -21.5h-331z" />
    <glyph glyph-name="heart" unicode="&#x2665;" horiz-adv-x="730" 
d="M539 497h10q74 0 121 -48.5t47 -124.5v-6q0 -40 -18 -76.5t-45.5 -63t-67 -54t-75 -46.5t-78 -44t-68.5 -44q-26 19 -68.5 44t-78 44t-75 46.5t-67 54t-45.5 63t-18 76.5v6q0 76 47 124.5t121 48.5h10q132 0 174 -155q42 155 174 155z" />
    <glyph glyph-name="uniF6BE" unicode="&#xf6be;" horiz-adv-x="312" 
d="M75 -200q-151 0 -151 113q0 22 10.5 42.5t20.5 31.5t12 9q13 -18 40 -18q32 0 32 30v387q0 113 105 113h24q51 0 78 -25.5t27 -87.5v-398q0 -94 -51.5 -145.5t-146.5 -51.5z" />
    <glyph glyph-name="uniF6C3" unicode="&#xf6c3;" horiz-adv-x="500" 
d="M227 -220q-25 -13 -53.5 -13t-49.5 13.5t-15 32.5l26 87q10 33 30 46.5t72 13.5h26q89 0 89 -60v-6q0 -35 -52 -68z" />
    <glyph glyph-name="apple" horiz-adv-x="758" 
d="M324 -55l-42 75l-80 -25q-40 -13 -65.5 13t-13.5 66l24 81l-75 42q-37 20 -37 55t37 55l75 42l-24 81q-12 40 13.5 66t65.5 13l80 -25l42 75q20 36 55 36t55 -36l42 -75l80 25q39 12 64.5 -14t14.5 -65l-24 -81l75 -42q36 -20 36.5 -55t-36.5 -55l-75 -42l24 -81
q12 -40 -13.5 -66t-65.5 -13l-80 25l-42 -75q-20 -37 -55 -37t-55 37zM379 114l13 20q21 33 63 25l22 -4l-4 22q-7 42 24 62l20 13l-20 13q-31 20 -24 62l4 22l-22 -4q-42 -8 -63 25l-13 20l-13 -20q-21 -32 -62 -25l-22 4l4 -22q7 -42 -24 -62l-20 -13l20 -13
q31 -20 24 -62l-4 -22l22 4q41 7 62 -25z" />
    <glyph glyph-name="I.alt" horiz-adv-x="551" 
d="M155 436h-17q-113 0 -113 107v3q0 101 113 101h275q113 0 113 -101v-3q0 -107 -113 -107h-13v-225h13q113 0 113 -107v-3q0 -101 -113 -101h-275q-113 0 -113 101v3q0 107 113 107h17v225z" />
    <glyph glyph-name="one.alt" horiz-adv-x="530" 
d="M404 201h4q113 0 113 -102v-3q0 -50 -27.5 -73t-85.5 -23h-261q-113 0 -113 96v3q0 102 113 102h33v194q-24 -15 -54 -15q-47 0 -78.5 32.5t-31.5 81.5q0 37 14 64.5t28.5 38t19.5 7.5q34 -18 66 -18q33 0 58 18.5t35 52.5h60q107 0 107 -113v-343z" />
    <glyph glyph-name="j.alt" horiz-adv-x="312" 
d="M158 538q-57 0 -90.5 28.5t-33.5 77.5q0 48 32.5 77t87.5 29q57 0 90.5 -28.5t33.5 -77.5q0 -48 -32.5 -77t-87.5 -29zM146 -192q-51 0 -79 25.5t-28 87.5v474q0 113 105 113h24q51 0 78 -25.5t27 -87.5v-474q0 -113 -103 -113h-24z" />
    <glyph glyph-name="a.alt" horiz-adv-x="649" 
d="M379 228v69q-21 35 -63 35q-36 0 -57 -22t-21 -62q0 -37 20.5 -60t54.5 -23q66 0 66 63zM394 424q32 84 128 84q22 0 44 -5t34.5 -11.5t12.5 -10.5v-378q0 -62 -28 -87.5t-79 -25.5h-24q-89 0 -101 85q-17 -41 -53.5 -65.5t-83.5 -24.5q-103 0 -164.5 73.5t-61.5 191.5
q0 121 61 191.5t166 70.5q51 0 91.5 -24t57.5 -64z" />
    <glyph glyph-name="g.alt" horiz-adv-x="649" 
d="M379 266v51q-25 32 -66 32q-34 0 -54.5 -21t-20.5 -55q0 -33 20 -53.5t53 -20.5q32 0 50 17.5t18 49.5zM400 439q36 69 122 69q22 0 44 -5t34.5 -11.5t12.5 -10.5v-401q0 -142 -75.5 -207.5t-239.5 -65.5q-118 0 -181 37t-63 101q0 28 19 52.5t38 35.5t23 7
q59 -57 150 -57q95 0 95 77v43q-53 -66 -140 -66q-103 0 -162 63t-59 176q0 106 61.5 171t163.5 65q52 0 93.5 -19.5t63.5 -53.5z" />
    <glyph glyph-name="four.alt" horiz-adv-x="646" 
d="M323 294v45q0 113 97 113h20q50 0 71.5 -28t21.5 -85v-40h3q57 0 80 -18.5t23 -62.5v-5q0 -48 -23 -67t-80 -19h-3v-24q0 -113 -98 -113h-20q-49 0 -70.5 28t-21.5 85v24h-193q-58 0 -91.5 26.5t-33.5 69.5v30q0 34 32 104l94 206q44 98 131 98q31 0 61.5 -13t46.5 -27
t13 -20l-155 -307h95z" />
    <glyph glyph-name="U.alt" horiz-adv-x="690" 
d="M565 -5q-108 0 -135 105q-25 -52 -70.5 -81t-104.5 -29q-115 0 -168 62t-53 196v296q0 55 28 84t80 29h30q107 0 107 -113v-285q0 -75 67 -75q38 0 65 19v341q0 113 103 113h35q107 0 107 -113v-522q0 -4 -12.5 -10.5t-34.5 -11.5t-44 -5z" />
    <glyph glyph-name="Y.alt" horiz-adv-x="672" 
d="M215 219q-190 50 -190 284v41q0 56 28.5 84.5t79.5 28.5h30q107 0 107 -113v-49q0 -90 67 -90q34 0 49.5 21.5t15.5 68.5v49q0 56 28.5 84.5t79.5 28.5h30q107 0 107 -113v-41q0 -232 -187 -283v-117q0 -55 -28 -84t-81 -29h-35q-101 0 -101 113v116z" />
    <glyph glyph-name="y.alt" horiz-adv-x="626" 
d="M356 112q-58 -75 -153 -75q-90 0 -131 52t-41 129v177q0 113 103 113h24q51 0 79 -25.5t28 -87.5v-136q0 -20 11.5 -32t31.5 -12q27 0 48 17v102q0 50 12.5 85.5t34.5 54t45.5 26.5t50.5 8q22 0 44 -5t34.5 -11.5t12.5 -10.5v-402q0 -138 -73 -205t-222 -67
q-109 0 -181.5 36.5t-72.5 91.5q0 28 16 54t32.5 38t21.5 9q90 -59 155 -59q48 0 69 16.5t21 53.5v65z" />
    <glyph glyph-name="G.alt" horiz-adv-x="735" 
d="M470 209q-59 0 -85.5 17.5t-26.5 65.5v10q0 50 26 66t87 16h171q48 0 61.5 -20.5t14.5 -75.5v-4q0 -131 -91 -215t-236 -84q-169 0 -269 94t-100 245q0 148 100.5 243t263.5 95q123 0 189.5 -40.5t66.5 -116.5q0 -38 -27.5 -66t-55 -37.5t-32.5 -4.5q-51 56 -124 56
q-59 0 -97 -37t-38 -105q0 -67 35 -101t90 -34q61 0 77 33z" />
    <glyph glyph-name="e.alt" horiz-adv-x="574" 
d="M217 298h137q-3 70 -67 70q-29 0 -48.5 -20t-21.5 -50zM214 199q18 -60 99 -60q37 0 65.5 14t40.5 37q0 3 26.5 -1t53.5 -25t27 -60q0 -57 -57.5 -88t-164.5 -31q-134 0 -210 68.5t-76 190.5q0 116 76.5 192t195.5 76q117 0 193 -71t76 -178v-10q-2 -54 -42 -54h-303z
" />
    <glyph glyph-name="Imacron" horiz-adv-x="327" 
d="M144 -5q-103 0 -103 113v431q0 113 103 113h35q107 0 107 -113v-431q0 -113 -107 -113h-35zM42 679q-42 0 -66.5 21t-24.5 57v9q0 35 25 56t66 21h242q42 0 66.5 -21t24.5 -56v-9q0 -36 -24 -57t-67 -21h-242z" />
    <glyph glyph-name="ibreve" horiz-adv-x="312" 
d="M146 -5q-51 0 -79 25.5t-28 87.5v287q0 113 105 113h24q51 0 78 -25.5t27 -87.5v-287q0 -113 -103 -113h-24zM156 538q-77 0 -137 40.5t-60 96.5q0 29 21.5 50.5t55.5 21.5q33 0 67 -25t53 -67q19 42 53 67t67 25q34 0 55.5 -21.5t21.5 -50.5q0 -56 -60 -96.5t-137 -40.5
z" />
    <glyph glyph-name="aacute.alt" horiz-adv-x="649" 
d="M379 228v69q-21 35 -63 35q-36 0 -57 -22t-21 -62q0 -37 20.5 -60t54.5 -23q66 0 66 63zM394 424q32 84 128 84q22 0 44 -5t34.5 -11.5t12.5 -10.5v-378q0 -62 -28 -87.5t-79 -25.5h-24q-89 0 -101 85q-17 -41 -53.5 -65.5t-83.5 -24.5q-103 0 -164.5 73.5t-61.5 191.5
q0 121 61 191.5t166 70.5q51 0 91.5 -24t57.5 -64zM229 572q-10 19 23.5 83t79.5 89q30 15 56 15q44 0 74.5 -25.5t30.5 -63.5q0 -31 -17.5 -61.5t-46.5 -45.5q-42 -22 -89 -23t-76 9.5t-35 22.5z" />
    <glyph glyph-name="abreve.alt" horiz-adv-x="649" 
d="M379 228v69q-21 35 -63 35q-36 0 -57 -22t-21 -62q0 -37 20.5 -60t54.5 -23q66 0 66 63zM394 424q32 84 128 84q22 0 44 -5t34.5 -11.5t12.5 -10.5v-378q0 -62 -28 -87.5t-79 -25.5h-24q-89 0 -101 85q-17 -41 -53.5 -65.5t-83.5 -24.5q-103 0 -164.5 73.5t-61.5 191.5
q0 121 61 191.5t166 70.5q51 0 91.5 -24t57.5 -64zM330 538q-77 0 -137 40.5t-60 96.5q0 29 21.5 50.5t55.5 21.5q33 0 67 -25t53 -67q19 42 53 67t67 25q34 0 55.5 -21.5t21.5 -50.5q0 -56 -60 -96.5t-137 -40.5z" />
    <glyph glyph-name="acircumflex.alt" horiz-adv-x="649" 
d="M394 424q32 84 128 84q22 0 44 -5t34.5 -11.5t12.5 -10.5v-378q0 -62 -28 -87.5t-79 -25.5h-24q-89 0 -101 85q-17 -41 -53.5 -65.5t-83.5 -24.5q-103 0 -164.5 73.5t-61.5 191.5q0 121 61 191.5t166 70.5q51 0 91.5 -24t57.5 -64zM224 538q-33 0 -54 20t-21 50
q0 53 54 96t123 62q69 -19 123 -62t54 -96q0 -30 -21 -50t-54 -20q-34 0 -62 23t-40 60q-12 -37 -40.5 -60t-61.5 -23zM379 228v69q-21 35 -63 35q-36 0 -57 -22t-21 -62q0 -37 20.5 -60t54.5 -23q66 0 66 63z" />
    <glyph glyph-name="adieresis.alt" horiz-adv-x="649" 
d="M379 228v69q-21 35 -63 35q-36 0 -57 -22t-21 -62q0 -37 20.5 -60t54.5 -23q66 0 66 63zM394 424q32 84 128 84q22 0 44 -5t34.5 -11.5t12.5 -10.5v-378q0 -62 -28 -87.5t-79 -25.5h-24q-89 0 -101 85q-17 -41 -53.5 -65.5t-83.5 -24.5q-103 0 -164.5 73.5t-61.5 191.5
q0 121 61 191.5t166 70.5q51 0 91.5 -24t57.5 -64zM464 539q-49 0 -76.5 26.5t-27.5 74.5q0 47 27 74t73 27q48 0 75.5 -26.5t27.5 -74.5q0 -47 -27 -74t-72 -27zM218 539q-48 0 -75.5 26.5t-27.5 74.5q0 47 27 74t72 27q49 0 76.5 -26.5t27.5 -74.5q0 -47 -27 -74t-73 -27z
" />
    <glyph glyph-name="agrave.alt" horiz-adv-x="649" 
d="M379 228v69q-21 35 -63 35q-36 0 -57 -22t-21 -62q0 -37 20.5 -60t54.5 -23q66 0 66 63zM394 424q32 84 128 84q22 0 44 -5t34.5 -11.5t12.5 -10.5v-378q0 -62 -28 -87.5t-79 -25.5h-24q-89 0 -101 85q-17 -41 -53.5 -65.5t-83.5 -24.5q-103 0 -164.5 73.5t-61.5 191.5
q0 121 61 191.5t166 70.5q51 0 91.5 -24t57.5 -64zM265 563q-29 15 -46.5 45.5t-17.5 61.5q0 38 30.5 63.5t74.5 25.5q29 0 56 -15q46 -25 79.5 -89t23.5 -83q-6 -12 -35 -22.5t-76 -9.5t-89 23z" />
    <glyph glyph-name="amacron.alt" horiz-adv-x="649" 
d="M379 228v69q-21 35 -63 35q-36 0 -57 -22t-21 -62q0 -37 20.5 -60t54.5 -23q66 0 66 63zM394 424q32 84 128 84q22 0 44 -5t34.5 -11.5t12.5 -10.5v-378q0 -62 -28 -87.5t-79 -25.5h-24q-89 0 -101 85q-17 -41 -53.5 -65.5t-83.5 -24.5q-103 0 -164.5 73.5t-61.5 191.5
q0 121 61 191.5t166 70.5q51 0 91.5 -24t57.5 -64zM211 538q-42 0 -66.5 21t-24.5 57v9q0 35 25 56t66 21h242q42 0 66.5 -21t24.5 -56v-9q0 -36 -24 -57t-67 -21h-242z" />
    <glyph glyph-name="aogonek.alt" horiz-adv-x="649" 
d="M394 424q32 84 128 84q22 0 44 -5t34.5 -11.5t12.5 -10.5v-378q0 -62 -30 -89q-40 -39 -54.5 -58t-14.5 -34q0 -26 26 -26q20 0 30 17q17 -3 27.5 -18.5t10.5 -35.5q0 -35 -26 -57t-78 -22q-61 0 -95 25.5t-34 72.5q0 35 27.5 66t69.5 46q-80 5 -91 85
q-17 -41 -53.5 -65.5t-83.5 -24.5q-103 0 -164.5 73.5t-61.5 191.5q0 121 61 191.5t166 70.5q51 0 91.5 -24t57.5 -64zM379 228v69q-21 35 -63 35q-36 0 -57 -22t-21 -62q0 -37 20.5 -60t54.5 -23q66 0 66 63z" />
    <glyph glyph-name="aring.alt" horiz-adv-x="649" 
d="M379 228v69q-21 35 -63 35q-36 0 -57 -22t-21 -62q0 -37 20.5 -60t54.5 -23q66 0 66 63zM394 424q32 84 128 84q22 0 44 -5t34.5 -11.5t12.5 -10.5v-378q0 -62 -28 -87.5t-79 -25.5h-24q-89 0 -101 85q-17 -41 -53.5 -65.5t-83.5 -24.5q-103 0 -164.5 73.5t-61.5 191.5
q0 121 61 191.5t166 70.5q51 0 91.5 -24t57.5 -64zM339 538q-61 0 -98 36.5t-37 92.5t38 92.5t99 36.5t98 -36.5t37 -92.5t-38 -92.5t-99 -36.5zM340 627q16 0 27.5 11.5t11.5 28.5t-11.5 29t-27.5 12t-27.5 -12t-11.5 -29t11 -28.5t28 -11.5z" />
    <glyph glyph-name="aringacute.alt" horiz-adv-x="649" 
d="M211 855q-10 19 23.5 83t79.5 89q30 15 56 15q44 0 74.5 -25.5t30.5 -63.5q0 -31 -17.5 -61.5t-46.5 -45.5q-42 -22 -89 -23t-76 9.5t-35 22.5zM379 228v69q-21 35 -63 35q-36 0 -57 -22t-21 -62q0 -37 20.5 -60t54.5 -23q66 0 66 63zM394 424q32 84 128 84q22 0 44 -5
t34.5 -11.5t12.5 -10.5v-378q0 -62 -28 -87.5t-79 -25.5h-24q-89 0 -101 85q-17 -41 -53.5 -65.5t-83.5 -24.5q-103 0 -164.5 73.5t-61.5 191.5q0 121 61 191.5t166 70.5q51 0 91.5 -24t57.5 -64zM339 538q-61 0 -98 36.5t-37 92.5t38 92.5t99 36.5t98 -36.5t37 -92.5
t-38 -92.5t-99 -36.5zM340 627q16 0 27.5 11.5t11.5 28.5t-11.5 29t-27.5 12t-27.5 -12t-11.5 -29t11 -28.5t28 -11.5z" />
    <glyph glyph-name="atilde.alt" horiz-adv-x="649" 
d="M379 228v69q-21 35 -63 35q-36 0 -57 -22t-21 -62q0 -37 20.5 -60t54.5 -23q66 0 66 63zM394 424q32 84 128 84q22 0 44 -5t34.5 -11.5t12.5 -10.5v-378q0 -62 -28 -87.5t-79 -25.5h-24q-89 0 -101 85q-17 -41 -53.5 -65.5t-83.5 -24.5q-103 0 -164.5 73.5t-61.5 191.5
q0 121 61 191.5t166 70.5q51 0 91.5 -24t57.5 -64zM221 538q-32 0 -53 22t-21 53q0 55 33.5 86.5t80.5 31.5q77 0 129 -55q20 55 71 55q32 0 53 -22.5t21 -53.5q0 -55 -33.5 -86t-80.5 -31q-78 0 -129 55q-20 -55 -71 -55z" />
    <glyph glyph-name="Yacute.alt" horiz-adv-x="672" 
d="M215 219q-190 50 -190 284v41q0 56 28.5 84.5t79.5 28.5h30q107 0 107 -113v-49q0 -90 67 -90q34 0 49.5 21.5t15.5 68.5v49q0 56 28.5 84.5t79.5 28.5h30q107 0 107 -113v-41q0 -232 -187 -283v-117q0 -55 -28 -84t-81 -29h-35q-101 0 -101 113v116zM248 722
q-10 19 23.5 83t79.5 89q30 15 56 15q44 0 74.5 -25.5t30.5 -63.5q0 -31 -17.5 -61.5t-46.5 -45.5q-42 -22 -89 -23t-76 9.5t-35 22.5z" />
    <glyph glyph-name="Ycircumflex.alt" horiz-adv-x="672" 
d="M215 219q-190 50 -190 284v41q0 56 28.5 84.5t79.5 28.5h30q107 0 107 -113v-49q0 -90 67 -90q34 0 49.5 21.5t15.5 68.5v49q0 56 28.5 84.5t79.5 28.5h30q107 0 107 -113v-41q0 -232 -187 -283v-117q0 -55 -28 -84t-81 -29h-35q-101 0 -101 113v116zM233 679
q-33 0 -54 20t-21 50q0 53 54 96t123 62q69 -19 123 -62t54 -96q0 -30 -21 -50t-54 -20q-34 0 -62 23t-40 60q-12 -37 -40.5 -60t-61.5 -23z" />
    <glyph glyph-name="Ydieresis.alt" horiz-adv-x="672" 
d="M215 219q-190 50 -190 284v41q0 56 28.5 84.5t79.5 28.5h30q107 0 107 -113v-49q0 -90 67 -90q34 0 49.5 21.5t15.5 68.5v49q0 56 28.5 84.5t79.5 28.5h30q107 0 107 -113v-41q0 -232 -187 -283v-117q0 -55 -28 -84t-81 -29h-35q-101 0 -101 113v116zM460 688
q-49 0 -76.5 26.5t-27.5 74.5q0 47 27 74t73 27q48 0 75.5 -26.5t27.5 -74.5q0 -47 -27 -74t-72 -27zM214 688q-48 0 -75.5 26.5t-27.5 74.5q0 47 27 74t72 27q49 0 76.5 -26.5t27.5 -74.5q0 -47 -27 -74t-73 -27z" />
    <glyph glyph-name="jcircumflex.alt" horiz-adv-x="312" 
d="M54 538q-33 0 -54 20t-21 50q0 53 54 96t123 62q69 -19 123 -62t54 -96q0 -30 -21 -50t-54 -20q-34 0 -62 23t-40 60q-12 -37 -40.5 -60t-61.5 -23zM146 -192q-51 0 -79 25.5t-28 87.5v474q0 113 105 113h24q51 0 78 -25.5t27 -87.5v-474q0 -113 -103 -113h-24z" />
    <glyph glyph-name="Gbreve.alt" horiz-adv-x="735" 
d="M470 209q-59 0 -85.5 17.5t-26.5 65.5v10q0 50 26 66t87 16h171q48 0 61.5 -20.5t14.5 -75.5v-4q0 -131 -91 -215t-236 -84q-169 0 -269 94t-100 245q0 148 100.5 243t263.5 95q123 0 189.5 -40.5t66.5 -116.5q0 -38 -27.5 -66t-55 -37.5t-32.5 -4.5q-51 56 -124 56
q-59 0 -97 -37t-38 -105q0 -67 35 -101t90 -34q61 0 77 33zM367 679q-77 0 -137 40.5t-60 96.5q0 29 21.5 50.5t55.5 21.5q33 0 67 -25t53 -67q19 42 53 67t67 25q34 0 55.5 -21.5t21.5 -50.5q0 -56 -60 -96.5t-137 -40.5z" />
    <glyph glyph-name="Gcircumflex.alt" horiz-adv-x="735" 
d="M470 209q-59 0 -85.5 17.5t-26.5 65.5v10q0 50 26 66t87 16h171q48 0 61.5 -20.5t14.5 -75.5v-4q0 -131 -91 -215t-236 -84q-169 0 -269 94t-100 245q0 148 100.5 243t263.5 95q123 0 189.5 -40.5t66.5 -116.5q0 -38 -27.5 -66t-55 -37.5t-32.5 -4.5q-51 56 -124 56
q-59 0 -97 -37t-38 -105q0 -67 35 -101t90 -34q61 0 77 33zM269 679q-33 0 -54 20t-21 50q0 53 54 96t123 62q69 -19 123 -62t54 -96q0 -30 -21 -50t-54 -20q-34 0 -62 23t-40 60q-12 -37 -40.5 -60t-61.5 -23z" />
    <glyph glyph-name="Gcommaaccent.alt" horiz-adv-x="735" 
d="M470 209q-59 0 -85.5 17.5t-26.5 65.5v10q0 50 26 66t87 16h171q48 0 61.5 -20.5t14.5 -75.5v-4q0 -131 -91 -215t-236 -84q-169 0 -269 94t-100 245q0 148 100.5 243t263.5 95q123 0 189.5 -40.5t66.5 -116.5q0 -38 -27.5 -66t-55 -37.5t-32.5 -4.5q-51 56 -124 56
q-59 0 -97 -37t-38 -105q0 -67 35 -101t90 -34q61 0 77 33zM361 -220q-25 -13 -53.5 -13t-49.5 13.5t-15 32.5l26 87q10 33 30 46.5t72 13.5h26q89 0 89 -60v-6q0 -35 -52 -68z" />
    <glyph glyph-name="Gdotaccent.alt" horiz-adv-x="735" 
d="M470 209q-59 0 -85.5 17.5t-26.5 65.5v10q0 50 26 66t87 16h171q48 0 61.5 -20.5t14.5 -75.5v-4q0 -131 -91 -215t-236 -84q-169 0 -269 94t-100 245q0 148 100.5 243t263.5 95q123 0 189.5 -40.5t66.5 -116.5q0 -38 -27.5 -66t-55 -37.5t-32.5 -4.5q-51 56 -124 56
q-59 0 -97 -37t-38 -105q0 -67 35 -101t90 -34q61 0 77 33zM370 679q-50 0 -79.5 29t-29.5 75q0 45 30.5 74.5t80.5 29.5q49 0 79 -29.5t30 -74.5q0 -46 -30.5 -75t-80.5 -29z" />
    <glyph glyph-name="Uacute.alt" horiz-adv-x="690" 
d="M565 -5q-108 0 -135 105q-25 -52 -70.5 -81t-104.5 -29q-115 0 -168 62t-53 196v296q0 55 28 84t80 29h30q107 0 107 -113v-285q0 -75 67 -75q38 0 65 19v341q0 113 103 113h35q107 0 107 -113v-522q0 -4 -12.5 -10.5t-34.5 -11.5t-44 -5zM258 722q-10 19 23.5 83
t79.5 89q30 15 56 15q44 0 74.5 -25.5t30.5 -63.5q0 -31 -17.5 -61.5t-46.5 -45.5q-42 -22 -89 -23t-76 9.5t-35 22.5z" />
    <glyph glyph-name="Ubreve.alt" horiz-adv-x="690" 
d="M565 -5q-108 0 -135 105q-25 -52 -70.5 -81t-104.5 -29q-115 0 -168 62t-53 196v296q0 55 28 84t80 29h30q107 0 107 -113v-285q0 -75 67 -75q38 0 65 19v341q0 113 103 113h35q107 0 107 -113v-522q0 -4 -12.5 -10.5t-34.5 -11.5t-44 -5zM345 679q-77 0 -137 40.5
t-60 96.5q0 29 21.5 50.5t55.5 21.5q33 0 67 -25t53 -67q19 42 53 67t67 25q34 0 55.5 -21.5t21.5 -50.5q0 -56 -60 -96.5t-137 -40.5z" />
    <glyph glyph-name="Ucircumflex.alt" horiz-adv-x="690" 
d="M565 -5q-108 0 -135 105q-25 -52 -70.5 -81t-104.5 -29q-115 0 -168 62t-53 196v296q0 55 28 84t80 29h30q107 0 107 -113v-285q0 -75 67 -75q38 0 65 19v341q0 113 103 113h35q107 0 107 -113v-522q0 -4 -12.5 -10.5t-34.5 -11.5t-44 -5zM243 688q-33 0 -54 20t-21 50
q0 53 54 96t123 62q69 -19 123 -62t54 -96q0 -30 -21 -50t-54 -20q-34 0 -62 23t-40 60q-12 -37 -40.5 -60t-61.5 -23z" />
    <glyph glyph-name="Udieresis.alt" horiz-adv-x="690" 
d="M565 -5q-108 0 -135 105q-25 -52 -70.5 -81t-104.5 -29q-115 0 -168 62t-53 196v296q0 55 28 84t80 29h30q107 0 107 -113v-285q0 -75 67 -75q38 0 65 19v341q0 113 103 113h35q107 0 107 -113v-522q0 -4 -12.5 -10.5t-34.5 -11.5t-44 -5zM470 688q-49 0 -76.5 26.5
t-27.5 74.5q0 47 27 74t73 27q48 0 75.5 -26.5t27.5 -74.5q0 -47 -27 -74t-72 -27zM224 688q-48 0 -75.5 26.5t-27.5 74.5q0 47 27 74t72 27q49 0 76.5 -26.5t27.5 -74.5q0 -47 -27 -74t-73 -27z" />
    <glyph glyph-name="Ugrave.alt" horiz-adv-x="690" 
d="M565 -5q-108 0 -135 105q-25 -52 -70.5 -81t-104.5 -29q-115 0 -168 62t-53 196v296q0 55 28 84t80 29h30q107 0 107 -113v-285q0 -75 67 -75q38 0 65 19v341q0 113 103 113h35q107 0 107 -113v-522q0 -4 -12.5 -10.5t-34.5 -11.5t-44 -5zM230 713q-29 15 -46.5 45.5
t-17.5 61.5q0 38 30.5 63.5t74.5 25.5q29 0 56 -15q46 -25 79.5 -89t23.5 -83q-6 -12 -35 -22.5t-76 -9.5t-89 23z" />
    <glyph glyph-name="Uhungarumlaut.alt" horiz-adv-x="690" 
d="M565 -5q-108 0 -135 105q-25 -52 -70.5 -81t-104.5 -29q-115 0 -168 62t-53 196v296q0 55 28 84t80 29h30q107 0 107 -113v-285q0 -75 67 -75q38 0 65 19v341q0 113 103 113h35q107 0 107 -113v-522q0 -4 -12.5 -10.5t-34.5 -11.5t-44 -5zM108 713q-10 19 23.5 83
t79.5 89q30 15 56 15q44 0 74.5 -25.5t30.5 -63.5q0 -31 -17.5 -61.5t-46.5 -45.5q-42 -22 -89 -23t-76 9.5t-35 22.5zM378 713q-10 19 23.5 83t79.5 89q30 15 56 15q44 0 74.5 -25.5t30.5 -63.5q0 -31 -17.5 -61.5t-46.5 -45.5q-42 -22 -89 -23t-76 9.5t-35 22.5z" />
    <glyph glyph-name="Umacron.alt" horiz-adv-x="690" 
d="M565 -5q-108 0 -135 105q-25 -52 -70.5 -81t-104.5 -29q-115 0 -168 62t-53 196v296q0 55 28 84t80 29h30q107 0 107 -113v-285q0 -75 67 -75q38 0 65 19v341q0 113 103 113h35q107 0 107 -113v-522q0 -4 -12.5 -10.5t-34.5 -11.5t-44 -5zM224 679q-42 0 -66.5 21
t-24.5 57v9q0 35 25 56t66 21h242q42 0 66.5 -21t24.5 -56v-9q0 -36 -24 -57t-67 -21h-242z" />
    <glyph glyph-name="Uogonek.alt" horiz-adv-x="690" 
d="M549 -4q-94 8 -119 104q-25 -52 -70.5 -81t-104.5 -29q-115 0 -168 62t-53 196v296q0 55 28 84t80 29h30q107 0 107 -113v-285q0 -75 67 -75q38 0 65 19v341q0 113 103 113h35q107 0 107 -113v-522q0 -3 -5 -6q-39 -38 -53.5 -57t-14.5 -34q0 -26 26 -26q20 0 30 17
q17 -3 27.5 -18.5t10.5 -35.5q0 -35 -26 -57t-78 -22q-61 0 -95 25.5t-34 72.5q0 37 30 69t75 46z" />
    <glyph glyph-name="Uring.alt" horiz-adv-x="690" 
d="M565 -5q-108 0 -135 105q-25 -52 -70.5 -81t-104.5 -29q-115 0 -168 62t-53 196v296q0 55 28 84t80 29h30q107 0 107 -113v-285q0 -75 67 -75q38 0 65 19v341q0 113 103 113h35q107 0 107 -113v-522q0 -4 -12.5 -10.5t-34.5 -11.5t-44 -5zM344 679q-61 0 -98 36.5
t-37 92.5t38 92.5t99 36.5t98 -36.5t37 -92.5t-38 -92.5t-99 -36.5zM345 768q16 0 27.5 11.5t11.5 28.5t-11.5 29t-27.5 12t-27.5 -12t-11.5 -29t11 -28.5t28 -11.5z" />
    <glyph glyph-name="eacute.alt" horiz-adv-x="574" 
d="M217 298h137q-3 70 -67 70q-29 0 -48.5 -20t-21.5 -50zM214 199q18 -60 99 -60q37 0 65.5 14t40.5 37q0 3 26.5 -1t53.5 -25t27 -60q0 -57 -57.5 -88t-164.5 -31q-134 0 -210 68.5t-76 190.5q0 116 76.5 192t195.5 76q117 0 193 -71t76 -178v-10q-2 -54 -42 -54h-303z
M192 572q-10 19 23.5 83t79.5 89q30 15 56 15q44 0 74.5 -25.5t30.5 -63.5q0 -31 -17.5 -61.5t-46.5 -45.5q-42 -22 -89 -23t-76 9.5t-35 22.5z" />
    <glyph glyph-name="ebreve.alt" horiz-adv-x="574" 
d="M217 298h137q-3 70 -67 70q-29 0 -48.5 -20t-21.5 -50zM214 199q18 -60 99 -60q37 0 65.5 14t40.5 37q0 3 26.5 -1t53.5 -25t27 -60q0 -57 -57.5 -88t-164.5 -31q-134 0 -210 68.5t-76 190.5q0 116 76.5 192t195.5 76q117 0 193 -71t76 -178v-10q-2 -54 -42 -54h-303z
M293 538q-77 0 -137 40.5t-60 96.5q0 29 21.5 50.5t55.5 21.5q33 0 67 -25t53 -67q19 42 53 67t67 25q34 0 55.5 -21.5t21.5 -50.5q0 -56 -60 -96.5t-137 -40.5z" />
    <glyph glyph-name="ecaron.alt" horiz-adv-x="574" 
d="M214 199q18 -60 99 -60q37 0 65.5 14t40.5 37q0 3 26.5 -1t53.5 -25t27 -60q0 -57 -57.5 -88t-164.5 -31q-134 0 -210 68.5t-76 190.5q0 116 76.5 192t195.5 76q117 0 193 -71t76 -178v-10q-2 -54 -42 -54h-303zM398 756q33 0 54 -20t21 -50q0 -53 -54 -96t-123 -63
q-69 20 -123 63t-54 96q0 30 21 50t54 20t61.5 -23.5t40.5 -59.5q12 36 40.5 59.5t61.5 23.5zM217 298h137q-3 70 -67 70q-29 0 -48.5 -20t-21.5 -50z" />
    <glyph glyph-name="ecircumflex.alt" horiz-adv-x="574" 
d="M214 199q18 -60 99 -60q37 0 65.5 14t40.5 37q0 3 26.5 -1t53.5 -25t27 -60q0 -57 -57.5 -88t-164.5 -31q-134 0 -210 68.5t-76 190.5q0 116 76.5 192t195.5 76q117 0 193 -71t76 -178v-10q-2 -54 -42 -54h-303zM187 538q-33 0 -54 20t-21 50q0 53 54 96t123 62
q69 -19 123 -62t54 -96q0 -30 -21 -50t-54 -20q-34 0 -62 23t-40 60q-12 -37 -40.5 -60t-61.5 -23zM217 298h137q-3 70 -67 70q-29 0 -48.5 -20t-21.5 -50z" />
    <glyph glyph-name="edieresis.alt" horiz-adv-x="574" 
d="M217 298h137q-3 70 -67 70q-29 0 -48.5 -20t-21.5 -50zM214 199q18 -60 99 -60q37 0 65.5 14t40.5 37q0 3 26.5 -1t53.5 -25t27 -60q0 -57 -57.5 -88t-164.5 -31q-134 0 -210 68.5t-76 190.5q0 116 76.5 192t195.5 76q117 0 193 -71t76 -178v-10q-2 -54 -42 -54h-303z
M414 538q-49 0 -76.5 26.5t-27.5 74.5q0 47 27 74t73 27q48 0 75.5 -26.5t27.5 -74.5q0 -47 -27 -74t-72 -27zM168 538q-48 0 -75.5 26.5t-27.5 74.5q0 47 27 74t72 27q49 0 76.5 -26.5t27.5 -74.5q0 -47 -27 -74t-73 -27z" />
    <glyph glyph-name="edotaccent.alt" horiz-adv-x="574" 
d="M217 298h137q-3 70 -67 70q-29 0 -48.5 -20t-21.5 -50zM214 199q18 -60 99 -60q37 0 65.5 14t40.5 37q0 3 26.5 -1t53.5 -25t27 -60q0 -57 -57.5 -88t-164.5 -31q-134 0 -210 68.5t-76 190.5q0 116 76.5 192t195.5 76q117 0 193 -71t76 -178v-10q-2 -54 -42 -54h-303z
M288 538q-50 0 -79.5 29t-29.5 75q0 45 30.5 74.5t80.5 29.5q49 0 79 -29.5t30 -74.5q0 -46 -30.5 -75t-80.5 -29z" />
    <glyph glyph-name="egrave.alt" horiz-adv-x="574" 
d="M217 298h137q-3 70 -67 70q-29 0 -48.5 -20t-21.5 -50zM214 199q18 -60 99 -60q37 0 65.5 14t40.5 37q0 3 26.5 -1t53.5 -25t27 -60q0 -57 -57.5 -88t-164.5 -31q-134 0 -210 68.5t-76 190.5q0 116 76.5 192t195.5 76q117 0 193 -71t76 -178v-10q-2 -54 -42 -54h-303z
M174 563q-29 15 -46.5 45.5t-17.5 61.5q0 38 30.5 63.5t74.5 25.5q29 0 56 -15q46 -25 79.5 -89t23.5 -83q-6 -12 -35 -22.5t-76 -9.5t-89 23z" />
    <glyph glyph-name="emacron.alt" horiz-adv-x="574" 
d="M217 298h137q-3 70 -67 70q-29 0 -48.5 -20t-21.5 -50zM214 199q18 -60 99 -60q37 0 65.5 14t40.5 37q0 3 26.5 -1t53.5 -25t27 -60q0 -57 -57.5 -88t-164.5 -31q-134 0 -210 68.5t-76 190.5q0 116 76.5 192t195.5 76q117 0 193 -71t76 -178v-10q-2 -54 -42 -54h-303z
M173 538q-42 0 -66.5 21t-24.5 57v9q0 35 25 56t66 21h242q42 0 66.5 -21t24.5 -56v-9q0 -36 -24 -57t-67 -21h-242z" />
    <glyph glyph-name="eogonek.alt" horiz-adv-x="574" 
d="M214 199q18 -60 99 -60q37 0 65.5 14t40.5 37q0 3 26.5 -1t53.5 -25t27 -60q0 -54 -50 -84q-37 -37 -51 -55.5t-14 -32.5q0 -26 26 -26q20 0 30 17q17 -3 27.5 -18.5t10.5 -35.5q0 -35 -26 -57t-78 -22q-61 0 -95 25.5t-34 72.5q0 59 66 98q-5 0 -16.5 -0.5t-17.5 -0.5
q-134 0 -210 68.5t-76 190.5q0 116 76.5 192t195.5 76q117 0 193 -71t76 -178v-10q-2 -54 -42 -54h-303zM217 298h137q-3 70 -67 70q-29 0 -48.5 -20t-21.5 -50z" />
    <glyph glyph-name="Iacute.alt" horiz-adv-x="551" 
d="M155 436h-17q-113 0 -113 107v3q0 101 113 101h275q113 0 113 -101v-3q0 -107 -113 -107h-13v-225h13q113 0 113 -107v-3q0 -101 -113 -101h-275q-113 0 -113 101v3q0 107 113 107h17v225zM164 722q-10 19 23.5 83t79.5 89q30 15 56 15q44 0 74.5 -25.5t30.5 -63.5
q0 -31 -17.5 -61.5t-46.5 -45.5q-42 -22 -89 -23t-76 9.5t-35 22.5z" />
    <glyph glyph-name="Ibreve.alt" horiz-adv-x="551" 
d="M155 436h-17q-113 0 -113 107v3q0 101 113 101h275q113 0 113 -101v-3q0 -107 -113 -107h-13v-225h13q113 0 113 -107v-3q0 -101 -113 -101h-275q-113 0 -113 101v3q0 107 113 107h17v225zM275 679q-77 0 -137 40.5t-60 96.5q0 29 21.5 50.5t55.5 21.5q33 0 67 -25
t53 -67q19 42 53 67t67 25q34 0 55.5 -21.5t21.5 -50.5q0 -56 -60 -96.5t-137 -40.5z" />
    <glyph glyph-name="Icircumflex.alt" horiz-adv-x="551" 
d="M155 436h-17q-113 0 -113 107v3q0 101 113 101h275q113 0 113 -101v-3q0 -107 -113 -107h-13v-225h13q113 0 113 -107v-3q0 -101 -113 -101h-275q-113 0 -113 101v3q0 107 113 107h17v225zM169 688q-33 0 -54 20t-21 50q0 53 54 96t123 62q69 -19 123 -62t54 -96
q0 -30 -21 -50t-54 -20q-34 0 -62 23t-40 60q-12 -37 -40.5 -60t-61.5 -23z" />
    <glyph glyph-name="Idieresis.alt" horiz-adv-x="551" 
d="M155 436h-17q-113 0 -113 107v3q0 101 113 101h275q113 0 113 -101v-3q0 -107 -113 -107h-13v-225h13q113 0 113 -107v-3q0 -101 -113 -101h-275q-113 0 -113 101v3q0 107 113 107h17v225zM396 688q-49 0 -76.5 26.5t-27.5 74.5q0 47 27 74t73 27q48 0 75.5 -26.5
t27.5 -74.5q0 -47 -27 -74t-72 -27zM150 688q-48 0 -75.5 26.5t-27.5 74.5q0 47 27 74t72 27q49 0 76.5 -26.5t27.5 -74.5q0 -47 -27 -74t-73 -27z" />
    <glyph glyph-name="Idotaccent.alt" horiz-adv-x="551" 
d="M155 436h-17q-113 0 -113 107v3q0 101 113 101h275q113 0 113 -101v-3q0 -107 -113 -107h-13v-225h13q113 0 113 -107v-3q0 -101 -113 -101h-275q-113 0 -113 101v3q0 107 113 107h17v225zM274 679q-50 0 -79.5 29t-29.5 75q0 45 30.5 74.5t80.5 29.5q49 0 79 -29.5
t30 -74.5q0 -46 -30.5 -75t-80.5 -29z" />
    <glyph glyph-name="Igrave.alt" horiz-adv-x="551" 
d="M155 436h-17q-113 0 -113 107v3q0 101 113 101h275q113 0 113 -101v-3q0 -107 -113 -107h-13v-225h13q113 0 113 -107v-3q0 -101 -113 -101h-275q-113 0 -113 101v3q0 107 113 107h17v225zM176 713q-29 15 -46.5 45.5t-17.5 61.5q0 38 30.5 63.5t74.5 25.5q29 0 56 -15
q46 -25 79.5 -89t23.5 -83q-6 -12 -35 -22.5t-76 -9.5t-89 23z" />
    <glyph glyph-name="Imacron.alt" horiz-adv-x="551" 
d="M155 436h-17q-113 0 -113 107v3q0 101 113 101h275q113 0 113 -101v-3q0 -107 -113 -107h-13v-225h13q113 0 113 -107v-3q0 -101 -113 -101h-275q-113 0 -113 101v3q0 107 113 107h17v225zM154 679q-42 0 -66.5 21t-24.5 57v9q0 35 25 56t66 21h242q42 0 66.5 -21
t24.5 -56v-9q0 -36 -24 -57t-67 -21h-242z" />
    <glyph glyph-name="Iogonek.alt" horiz-adv-x="551" 
d="M155 436h-17q-113 0 -113 107v3q0 101 113 101h275q113 0 113 -101v-3q0 -107 -113 -107h-13v-225h13q113 0 113 -107v-3q0 -52 -31 -78q-39 -39 -53 -57t-14 -33q0 -26 26 -26q20 0 30 17q17 -3 27.5 -18.5t10.5 -35.5q0 -35 -26 -57t-78 -22q-61 0 -95 25.5t-34 72.5
q0 35 26 65.5t67 45.5h-244q-113 0 -113 101v3q0 107 113 107h17v225z" />
    <glyph glyph-name="gbreve.alt" horiz-adv-x="649" 
d="M379 266v51q-25 32 -66 32q-34 0 -54.5 -21t-20.5 -55q0 -33 20 -53.5t53 -20.5q32 0 50 17.5t18 49.5zM400 439q36 69 122 69q22 0 44 -5t34.5 -11.5t12.5 -10.5v-401q0 -142 -75.5 -207.5t-239.5 -65.5q-118 0 -181 37t-63 101q0 28 19 52.5t38 35.5t23 7
q59 -57 150 -57q95 0 95 77v43q-53 -66 -140 -66q-103 0 -162 63t-59 176q0 106 61.5 171t163.5 65q52 0 93.5 -19.5t63.5 -53.5zM344 538q-77 0 -137 40.5t-60 96.5q0 29 21.5 50.5t55.5 21.5q33 0 67 -25t53 -67q19 42 53 67t67 25q34 0 55.5 -21.5t21.5 -50.5
q0 -56 -60 -96.5t-137 -40.5z" />
    <glyph glyph-name="gcircumflex.alt" horiz-adv-x="649" 
d="M400 439q36 69 122 69q22 0 44 -5t34.5 -11.5t12.5 -10.5v-401q0 -142 -75.5 -207.5t-239.5 -65.5q-118 0 -181 37t-63 101q0 28 19 52.5t38 35.5t23 7q59 -57 150 -57q95 0 95 77v43q-53 -66 -140 -66q-103 0 -162 63t-59 176q0 106 61.5 171t163.5 65q52 0 93.5 -19.5
t63.5 -53.5zM234 538q-33 0 -54 20t-21 50q0 53 54 96t123 62q69 -19 123 -62t54 -96q0 -30 -21 -50t-54 -20q-34 0 -62 23t-40 60q-12 -37 -40.5 -60t-61.5 -23zM379 266v51q-25 32 -66 32q-34 0 -54.5 -21t-20.5 -55q0 -33 20 -53.5t53 -20.5q32 0 50 17.5t18 49.5z" />
    <glyph glyph-name="gcommaaccent.alt" horiz-adv-x="649" 
d="M379 266v51q-25 32 -66 32q-34 0 -54.5 -21t-20.5 -55q0 -33 20 -53.5t53 -20.5q32 0 50 17.5t18 49.5zM400 439q36 69 122 69q22 0 44 -5t34.5 -11.5t12.5 -10.5v-401q0 -142 -75.5 -207.5t-239.5 -65.5q-118 0 -181 37t-63 101q0 28 19 52.5t38 35.5t23 7
q59 -57 150 -57q95 0 95 77v43q-53 -66 -140 -66q-103 0 -162 63t-59 176q0 106 61.5 171t163.5 65q52 0 93.5 -19.5t63.5 -53.5zM342 732q25 13 53.5 13t49.5 -13.5t15 -32.5l-26 -87q-10 -33 -30 -46.5t-72 -13.5h-26q-89 0 -89 60v6q0 35 52 68z" />
    <glyph glyph-name="gdotaccent.alt" horiz-adv-x="649" 
d="M379 266v51q-25 32 -66 32q-34 0 -54.5 -21t-20.5 -55q0 -33 20 -53.5t53 -20.5q32 0 50 17.5t18 49.5zM400 439q36 69 122 69q22 0 44 -5t34.5 -11.5t12.5 -10.5v-401q0 -142 -75.5 -207.5t-239.5 -65.5q-118 0 -181 37t-63 101q0 28 19 52.5t38 35.5t23 7
q59 -57 150 -57q95 0 95 77v43q-53 -66 -140 -66q-103 0 -162 63t-59 176q0 106 61.5 171t163.5 65q52 0 93.5 -19.5t63.5 -53.5zM323 538q-50 0 -79.5 29t-29.5 75q0 45 30.5 74.5t80.5 29.5q49 0 79 -29.5t30 -74.5q0 -46 -30.5 -75t-80.5 -29z" />
    <glyph glyph-name="yacute.alt" horiz-adv-x="626" 
d="M356 112q-58 -75 -153 -75q-90 0 -131 52t-41 129v177q0 113 103 113h24q51 0 79 -25.5t28 -87.5v-136q0 -20 11.5 -32t31.5 -12q27 0 48 17v102q0 50 12.5 85.5t34.5 54t45.5 26.5t50.5 8q22 0 44 -5t34.5 -11.5t12.5 -10.5v-402q0 -138 -73 -205t-222 -67
q-109 0 -181.5 36.5t-72.5 91.5q0 28 16 54t32.5 38t21.5 9q90 -59 155 -59q48 0 69 16.5t21 53.5v65zM229 572q-10 19 23.5 83t79.5 89q30 15 56 15q44 0 74.5 -25.5t30.5 -63.5q0 -31 -17.5 -61.5t-46.5 -45.5q-42 -22 -89 -23t-76 9.5t-35 22.5z" />
    <glyph glyph-name="ycircumflex.alt" horiz-adv-x="626" 
d="M356 112q-58 -75 -153 -75q-90 0 -131 52t-41 129v177q0 113 103 113h24q51 0 79 -25.5t28 -87.5v-136q0 -20 11.5 -32t31.5 -12q27 0 48 17v102q0 50 12.5 85.5t34.5 54t45.5 26.5t50.5 8q22 0 44 -5t34.5 -11.5t12.5 -10.5v-402q0 -138 -73 -205t-222 -67
q-109 0 -181.5 36.5t-72.5 91.5q0 28 16 54t32.5 38t21.5 9q90 -59 155 -59q48 0 69 16.5t21 53.5v65zM212 538q-33 0 -54 20t-21 50q0 53 54 96t123 62q69 -19 123 -62t54 -96q0 -30 -21 -50t-54 -20q-34 0 -62 23t-40 60q-12 -37 -40.5 -60t-61.5 -23z" />
    <glyph glyph-name="ydieresis.alt" horiz-adv-x="626" 
d="M356 112q-58 -75 -153 -75q-90 0 -131 52t-41 129v177q0 113 103 113h24q51 0 79 -25.5t28 -87.5v-136q0 -20 11.5 -32t31.5 -12q27 0 48 17v102q0 50 12.5 85.5t34.5 54t45.5 26.5t50.5 8q22 0 44 -5t34.5 -11.5t12.5 -10.5v-402q0 -138 -73 -205t-222 -67
q-109 0 -181.5 36.5t-72.5 91.5q0 28 16 54t32.5 38t21.5 9q90 -59 155 -59q48 0 69 16.5t21 53.5v65zM441 538q-49 0 -76.5 26.5t-27.5 74.5q0 47 27 74t73 27q48 0 75.5 -26.5t27.5 -74.5q0 -47 -27 -74t-72 -27zM195 538q-48 0 -75.5 26.5t-27.5 74.5q0 47 27 74t72 27
q49 0 76.5 -26.5t27.5 -74.5q0 -47 -27 -74t-73 -27z" />
    <glyph glyph-name="solidus" horiz-adv-x="600" 
d="M11 18q1 21 23 48q116 136 197 236l268 338q6 3 20.5 2t29 -16.5t13.5 -37.5q-2 -25 -22 -48q-117 -138 -198 -238l-267 -338q-6 -2 -21 -0.5t-29.5 17t-13.5 37.5z" />
    <glyph glyph-name="exclam.sinf" horiz-adv-x="168" 
d="M76 134q-23 0 -35 42l-37 105q-12 39 9 64.5t63 25.5h14q44 0 65 -25t9 -65l-37 -105q-12 -42 -37 -42h-14zM75 -5q-55 0 -55 55v11q0 54 55 54h16q30 0 43.5 -13t13.5 -41v-11q0 -55 -57 -55h-16z" />
    <glyph glyph-name="quotedbl.sinf" horiz-adv-x="336" 
d="M231 169q-27 0 -33 29l-20 111q-6 28 8 43.5t52 15.5q40 0 55.5 -16t9.5 -43l-25 -111q-8 -29 -33 -29h-14zM90 169q-25 0 -33 29l-25 111q-5 27 10.5 43t53.5 16q39 0 53 -15.5t8 -43.5l-20 -111q-6 -29 -33 -29h-14z" />
    <glyph glyph-name="numbersign.sinf" horiz-adv-x="336" 
d="M282 225h-1l-29 -92q26 -8 26 -34v-16q0 -39 -54 -39l-20 -62q-2 -5 -12 -5q-17 0 -34 15t-17 39q0 8 1 13h-36l-19 -62q-2 -5 -12 -5q-17 0 -34 15t-17 39q0 11 2 18q-27 10 -27 34v16q0 38 55 38h1l29 91q-29 8 -29 36v17q0 37 55 37h2l20 63q2 5 12 5q17 0 34 -15
t17 -39q0 -9 -1 -14h35l20 63q2 5 12 5q17 0 34 -15t17 -39q0 -6 -2 -18q26 -8 26 -33v-17q0 -39 -54 -39zM164 225l-28 -88h35l28 88h-35z" />
    <glyph glyph-name="dollar.sinf" horiz-adv-x="327" 
d="M319 126q0 -92 -93 -113v-5q0 -67 -57 -67h-2q-31 0 -44 16t-13 51v1q-98 9 -98 69q0 16 9 32t18.5 24.5t11.5 6.5q18 -11 48 -20t51 -9q18 0 22.5 1t4.5 7q0 1 -0.5 2t-2 2t-2.5 1.5t-3.5 1l-5 1t-6 1t-6.5 1t-7.5 1t-7.5 1.5q-22 5 -36.5 10t-36 16.5t-33 32
t-11.5 49.5q0 87 91 110v3q0 69 57 69h2q31 0 43.5 -16.5t13.5 -51.5q85 -10 85 -66q0 -17 -10 -34t-20 -25.5t-13 -7.5q-45 32 -89 32q-27 0 -27 -9q0 -2 2 -4t7 -3l10 -2t13.5 -2.5t14.5 -2.5q120 -22 120 -104z" />
    <glyph glyph-name="percent.sinf" horiz-adv-x="336" 
d="M87 208q-41 0 -64.5 21t-23.5 59v4q0 38 23.5 59t63.5 21t63.5 -21t23.5 -59v-4q0 -38 -23.5 -59t-62.5 -21zM53 -3q-3 -3 -16 0.5t-26 14t-13 23.5q0 11 13 27l273 300q3 3 16 0t25.5 -13.5t12.5 -24.5t-13 -28zM251 -8q-40 0 -64 21.5t-24 59.5v3q0 38 24 59.5t64 21.5
t63 -21.5t23 -59.5v-3q0 -38 -23 -59.5t-63 -21.5zM86 262q18 0 18 24v9q0 24 -17 24q-19 0 -19 -24v-9q0 -24 18 -24zM251 46q17 0 17 24v9q0 24 -17 24q-10 0 -14 -5t-4 -19v-9q0 -24 18 -24z" />
    <glyph glyph-name="quotesingle.sinf" horiz-adv-x="168" 
d="M76 169q-26 0 -32 29l-25 111q-6 27 9.5 43t54.5 16q40 0 55.5 -16t9.5 -43l-25 -111q-6 -29 -32 -29h-15z" />
    <glyph glyph-name="asterisk.sinf" horiz-adv-x="336" 
d="M92 141l-2 1q-28 14 -10 47l16 35l-28 16q-17 10 -20.5 19t1.5 24v3q4 16 13 21.5t29 2.5l35 -5l7 33q4 19 12 25.5t24 6.5h2q16 0 24.5 -6.5t11.5 -25.5l6 -33l35 5q20 3 28.5 -3t13.5 -21v-3q5 -14 1.5 -23.5t-21.5 -19.5l-29 -16l18 -35q15 -30 -11 -47l-2 -1
q-25 -16 -47 4l-30 27l-29 -27q-18 -12 -25.5 -11.5t-22.5 7.5z" />
    <glyph glyph-name="plus.sinf" horiz-adv-x="336" 
d="M68 129q-26 0 -40 13t-14 34v5q0 20 14.5 32.5t39.5 12.5h48v52q0 25 13.5 39.5t33.5 14.5h12q20 0 33 -14.5t13 -39.5v-52h48q27 0 41 -12.5t14 -32.5v-5q0 -21 -14 -34t-41 -13h-48v-51q0 -26 -13 -40.5t-33 -14.5h-12q-20 0 -33.5 14.5t-13.5 40.5v51h-48z" />
    <glyph glyph-name="comma.sinf" horiz-adv-x="168" 
d="M80 -45q-20 -21 -48 -9t-23 41l13 73q6 30 18 42.5t42 12.5h16q53 0 53 -55v-5q0 -35 -31 -63z" />
    <glyph glyph-name="hyphen.sinf" horiz-adv-x="336" 
d="M91 113q-26 0 -40 15.5t-14 37.5v23q0 21 14.5 36.5t39.5 15.5h155q26 0 40.5 -15.5t14.5 -36.5v-23q0 -22 -14.5 -37.5t-40.5 -15.5h-155z" />
    <glyph glyph-name="period.sinf" horiz-adv-x="168" 
d="M75 -5q-55 0 -55 55v11q0 54 55 54h16q30 0 43.5 -13t13.5 -41v-11q0 -55 -57 -55h-16z" />
    <glyph glyph-name="slash.sinf" horiz-adv-x="336" 
d="M114 -75q-65 0 -65 46q0 13 5 27l139 422q3 5 31 5q65 0 65 -47q0 -12 -5 -25l-139 -423q0 -5 -31 -5z" />
    <glyph glyph-name="one.alt.sinf" horiz-adv-x="336" 
d="M96 0q-68 0 -68 58v1q0 61 68 61h29v102q-23 -27 -54 -27q-27 0 -47.5 22t-20.5 61l140 90h50q64 0 64 -68v-180h10q68 0 68 -61v-1q0 -58 -68 -58h-171z" />
    <glyph glyph-name="colon.sinf" horiz-adv-x="168" 
d="M76 187q-55 0 -55 55v11q0 55 55 55h16q57 0 57 -55v-11q0 -55 -57 -55h-16zM76 44q-55 0 -55 55v11q0 54 55 54h16q30 0 43.5 -13t13.5 -41v-11q0 -55 -57 -55h-16z" />
    <glyph glyph-name="semicolon.sinf" horiz-adv-x="168" 
d="M75 138q-55 0 -55 55v11q0 55 55 55h16q57 0 57 -55v-11q0 -55 -57 -55h-16zM80 -45q-20 -21 -48 -9t-23 41l13 73q6 30 18 42.5t42 12.5h16q53 0 53 -55v-5q0 -35 -31 -63z" />
    <glyph glyph-name="less.sinf" horiz-adv-x="336" 
d="M188 177l91 -30q48 -16 48 -65q0 -16 -6.5 -32t-14 -25t-10.5 -7l-243 97q-41 17 -41 61q0 45 41 62l243 98q3 2 10.5 -6.5t14 -24.5t6.5 -32q0 -50 -48 -66z" />
    <glyph glyph-name="equal.sinf" horiz-adv-x="336" 
d="M68 202q-26 0 -40.5 13t-14.5 33v6q0 20 14.5 33t40.5 13h202q26 0 40 -13t14 -33v-6q0 -20 -14 -33t-40 -13h-202zM68 54q-26 0 -40.5 13t-14.5 34v5q0 20 14.5 33t40.5 13h202q26 0 40 -13t14 -33v-5q0 -21 -14 -34t-40 -13h-202z" />
    <glyph glyph-name="greater.sinf" horiz-adv-x="336" 
d="M11 82q0 47 48 65l89 30l-89 30q-48 18 -48 66q0 16 7 32t14 24.5t10 6.5l243 -98q41 -17 41 -62q0 -44 -41 -61l-243 -97q-3 -2 -10.5 7t-14 25t-6.5 32z" />
    <glyph glyph-name="at.sinf" horiz-adv-x="336" 
d="M136 92q-30 0 -46.5 22.5t-16.5 61.5q0 37 18.5 61t46.5 24q31 0 45 -28q12 26 42 26t30 -9v-92q0 -14 11 -14q23 0 23 61q0 62 -30.5 95.5t-85.5 33.5q-57 0 -94 -45t-37 -109q0 -72 35 -112.5t96 -40.5q52 0 86 37q8 8 13 8q10 0 17 -6t10 -11.5t1 -5.5
q-19 -26 -54 -42.5t-73 -16.5q-80 0 -125 50t-45 140q0 82 48 136.5t122 54.5q72 0 115.5 -44.5t43.5 -119.5q0 -52 -24.5 -81t-65.5 -29q-44 0 -57 36q0 -16 -15 -28.5t-34 -12.5zM159 151q18 0 18 17v23q-7 9 -17 9q-20 0 -20 -24q0 -25 19 -25z" />
    <glyph glyph-name="bracketleft.sinf" horiz-adv-x="336" 
d="M135 -66q-74 0 -74 80v322q0 82 74 82h84q36 0 52 -12.5t16 -40.5v-3q0 -30 -16 -42.5t-52 -12.5h-29v-264h32q35 0 51 -11.5t16 -39.5v-3q0 -30 -16 -42.5t-51 -12.5h-87z" />
    <glyph glyph-name="backslash.sinf" horiz-adv-x="336" 
d="M224 -75q-31 0 -31 5l-139 423q-5 13 -5 25q0 47 65 47q28 0 31 -5l139 -422q5 -14 5 -27q0 -46 -65 -46z" />
    <glyph glyph-name="bracketright.sinf" horiz-adv-x="336" 
d="M116 -66q-35 0 -51 12.5t-16 42.5v3q0 28 16 39.5t51 11.5h32v264h-29q-36 0 -52 12.5t-16 42.5v3q0 28 16 40.5t52 12.5h84q74 0 74 -82v-322q0 -80 -74 -80h-87z" />
    <glyph glyph-name="underscore.sinf" horiz-adv-x="336" 
d="M73 -97q-26 0 -40 12.5t-14 33.5v5q0 20 14.5 33t39.5 13h189q27 0 40.5 -12.5t13.5 -33.5v-5q0 -46 -54 -46h-189z" />
    <glyph glyph-name="braceleft.sinf" horiz-adv-x="336" 
d="M235 -65q-52 0 -90 30.5t-50 96.5q-46 27 -62 52t-16 63q0 36 17.5 63t60.5 52q12 65 50 95.5t90 30.5q33 0 55 -17t22 -44q0 -14 -5.5 -24.5t-11 -14.5t-8.5 -4q-35 1 -50 -16.5t-19 -54.5l-107 -66l107 -67q4 -37 19 -54t50 -16q3 0 8.5 -4.5t11 -15t5.5 -23.5
q0 -28 -22 -45t-55 -17z" />
    <glyph glyph-name="bar.sinf" horiz-adv-x="168" 
d="M69 -65q-38 0 -38 58v366q0 59 38 59h32q38 0 38 -59v-366q0 -58 -38 -58h-32z" />
    <glyph glyph-name="braceright.sinf" horiz-adv-x="336" 
d="M103 -65q-33 0 -55 17t-22 45q0 13 5.5 23.5t11 15t8.5 4.5q35 -1 50 16t19 54l107 67l-107 66q-4 37 -19 54.5t-50 16.5q-3 0 -8.5 4t-11 14.5t-5.5 24.5q0 27 22 44t55 17q52 0 90 -30.5t50 -96.5v1q43 -25 60.5 -52t17.5 -63q0 -38 -16 -63t-62 -52q-12 -66 -50 -96.5
t-90 -30.5z" />
    <glyph glyph-name="asciitilde.sinf" horiz-adv-x="336" 
d="M94 114q-21 0 -35 15t-14 35q0 36 21.5 55.5t52.5 19.5q47 0 79 -33q12 34 45 34q21 0 35 -15t14 -36q0 -35 -21.5 -54.5t-52.5 -19.5q-49 0 -79 33q-12 -34 -45 -34z" />
    <glyph glyph-name="cent.sinf" horiz-adv-x="285" 
d="M288 79q0 -54 -70 -68v-2q0 -68 -57 -68h-2q-31 0 -44 16t-13 52v5q-50 14 -78 51.5t-28 93.5q0 53 27.5 90.5t76.5 52.5v6q0 68 57 68h2q31 0 44 -16.5t13 -51.5v-1q73 -12 73 -70q0 -23 -17.5 -38t-35 -18.5t-20.5 -0.5q-18 24 -45 24q-19 0 -31 -13t-12 -32
q0 -20 12 -33t31 -13q27 0 45 23q2 3 19.5 -1t35 -19t17.5 -37z" />
    <glyph glyph-name="sterling.sinf" horiz-adv-x="336" 
d="M65 0q-34 0 -48.5 12t-14.5 40v6q0 46 50 49l4 21q-16 2 -26 14t-10 28v11q0 18 12.5 30t31.5 12h9l5 25q10 58 45.5 90.5t88.5 32.5q56 0 89.5 -20.5t33.5 -60.5q0 -32 -18.5 -47.5t-37.5 -17t-19 0.5q-6 35 -35 35q-28 0 -34 -33l-1 -5h40q19 0 31.5 -12t12.5 -30v-11
q0 -19 -12.5 -30.5t-31.5 -11.5h-57l-4 -20h101q33 0 47.5 -12t14.5 -38v-6q0 -28 -14 -40t-48 -12h-205z" />
    <glyph glyph-name="currency.sinf" horiz-adv-x="336" 
d="M203 -8q-66 0 -111.5 37.5t-52.5 103.5q-31 8 -31 41v11q0 32 31 40q7 68 52 106.5t112 38.5q80 0 117 -37q15 -17 14 -41q0 -21 -15 -38t-30 -24t-18 -4q-29 26 -61 26q-26 0 -30 -25h38q19 0 31.5 -12t12.5 -30v-11q0 -19 -12.5 -30.5t-31.5 -11.5h-37q5 -22 28 -22
q34 0 61 26q3 2 18.5 -5t30.5 -24t15 -38q1 -23 -14 -40q-35 -37 -117 -37z" />
    <glyph glyph-name="yen.sinf" horiz-adv-x="336" 
d="M66 114q-19 0 -31.5 12t-12.5 30v11q0 18 12.5 30t31.5 12h9l-64 97q-3 5 2 18.5t26 27.5t53 14q50 0 70 -51l7 -30l9 30q23 53 72 53q27 0 46.5 -14.5t26 -29t3.5 -18.5l-64 -97h10q19 0 31.5 -12t12.5 -30v-11q0 -19 -12.5 -30.5t-31.5 -11.5h-36v-52q0 -35 -13 -51.5
t-44 -16.5h-22q-56 0 -56 68v52h-35z" />
    <glyph glyph-name="section.sinf" horiz-adv-x="336" 
d="M153 -119q-142 0 -142 71q0 13 8.5 26t17 20t11.5 5q17 -11 52.5 -19.5t55.5 -8.5q15 0 19.5 2t4.5 9t-47 17q-37 8 -60.5 16t-47.5 31t-24 56q0 52 60 77q-44 24 -44 72q0 53 39.5 84t114.5 31q135 0 135 -68q0 -15 -9.5 -29.5t-19 -21t-11.5 -5.5q-44 32 -85 32
q-16 0 -21 -2t-5 -9q0 -2 3 -4t10 -4t13.5 -4t18.5 -4.5t20 -4.5q32 -8 54 -17t41.5 -30.5t19.5 -51.5q0 -52 -59 -76q43 -24 43 -73q0 -53 -43.5 -85t-122.5 -32zM218 121q0 15 -16 21.5t-48 13.5q-2 0 -3.5 0.5t-3.5 0.5q-29 -6 -29 -28q0 -15 18.5 -21.5t55.5 -13.5
q5 -1 8 -1q18 7 18 28z" />
    <glyph glyph-name="degree.sinf" horiz-adv-x="336" 
d="M169 168q-50 0 -79.5 26t-29.5 74v3q0 47 29.5 73.5t79.5 26.5q48 0 77.5 -26.5t29.5 -73.5v-3q0 -48 -29 -74t-78 -26zM169 235q28 0 28 28v13q0 29 -28 29q-29 0 -29 -30v-12q0 -28 29 -28z" />
    <glyph glyph-name="plusminus.sinf" horiz-adv-x="336" 
d="M115 167v33h-43q-25 0 -39.5 13.5t-14.5 33.5v6q0 20 14.5 32.5t39.5 12.5h43v34q0 26 13.5 40t33.5 14h12q20 0 33 -14t13 -40v-34h43q27 0 41 -12.5t14 -32.5v-6q0 -21 -14 -34t-41 -13h-43v-33q0 -26 -13 -40t-33 -14h-12q-21 0 -34 13.5t-13 40.5zM67 -7
q-26 0 -40.5 13t-14.5 34v5q0 20 14.5 33t40.5 13h202q26 0 40 -13t14 -33v-5q0 -21 -14 -34t-40 -13h-202z" />
    <glyph glyph-name="paragraph.sinf" horiz-adv-x="336" 
d="M286 -6q-29 0 -29 33v308q0 33 29 33h11q31 0 31 -33v-308q0 -33 -31 -33h-11zM185 -6q-32 0 -32 33v121h-10q-61 0 -96 28t-35 80q0 55 34 83.5t97 28.5h40q42 0 42 -39v-302q0 -33 -31 -33h-9z" />
    <glyph glyph-name="periodcentered.sinf" horiz-adv-x="168" 
d="M76 117q-55 0 -55 55v11q0 55 55 55h16q57 0 57 -55v-11q0 -55 -57 -55h-16z" />
    <glyph glyph-name="multiply.sinf" horiz-adv-x="336" 
d="M51 50l-9 9q-34 34 6 71l54 46l-54 47q-19 17 -19.5 37.5t13.5 33.5l8 9q13 15 33.5 14t37.5 -20l47 -55l47 55q18 19 38.5 20t33.5 -14l8 -9q14 -13 13.5 -33.5t-19.5 -37.5l-54 -47l54 -46q39 -37 5 -71l-8 -9q-12 -14 -32.5 -13.5t-38.5 19.5l-47 54l-47 -54
q-17 -19 -37.5 -19.5t-32.5 13.5z" />
    <glyph glyph-name="divide.sinf" horiz-adv-x="336" 
d="M161 249q-44 0 -44 44v8q0 45 44 45h14q45 0 45 -45v-8q0 -44 -45 -44h-14zM161 8q-44 0 -44 44v8q0 45 44 45h14q45 0 45 -45v-8q0 -44 -45 -44h-14zM68 125q-55 0 -55 49v5q0 22 14.5 34.5t40.5 12.5h202q54 0 54 -47v-5q0 -49 -54 -49h-202z" />
    <glyph glyph-name="florin.sinf" horiz-adv-x="336" 
d="M111 -15q-17 0 -32 4.5t-22 9.5t-6 7l22 126q-48 3 -48 50v7q0 47 55 47h11l4 23q9 52 42.5 81t80.5 29q52 0 75.5 -20t23.5 -47q0 -17 -9 -32t-18 -22t-10 -5q-12 16 -27 16q-22 0 -25 -15l-1 -5v-3h4q56 0 56 -50v-7q0 -47 -56 -47h-18l-8 -51q-17 -96 -94 -96z" />
    <glyph glyph-name="endash.sinf" horiz-adv-x="336" 
d="M68 119q-26 0 -40 15.5t-14 37.5v11q0 21 14 36.5t40 15.5h195q25 0 39.5 -15.5t14.5 -36.5v-11q0 -22 -14 -37.5t-40 -15.5h-195z" />
    <glyph glyph-name="emdash.sinf" horiz-adv-x="336" 
d="M51 119q-25 0 -39.5 15.5t-14.5 37.5v11q0 21 14.5 36.5t39.5 15.5h236q25 0 39.5 -15.5t14.5 -36.5v-11q0 -22 -14.5 -37.5t-39.5 -15.5h-236z" />
    <glyph glyph-name="dagger.sinf" horiz-adv-x="336" 
d="M155 -85q-13 0 -19 1t-13 8t-8 22l-7 155q-3 55 24 82l-65 -23q-22 -7 -34.5 12t-12.5 51q0 78 47 63l63 -23l-20 62q-7 24 7 35.5t51 11.5t51.5 -11.5t7.5 -35.5l-20 -62l62 23q21 7 34 -12.5t13 -50.5q0 -32 -12.5 -51t-34.5 -12l-63 22q25 -25 22 -81l-7 -155
q-1 -15 -7.5 -22t-12.5 -8t-19 -1h-27z" />
    <glyph glyph-name="daggerdbl.sinf" horiz-adv-x="336" 
d="M155 -85q-13 0 -19 1t-13 8t-8 22l-2 61l-46 -16q-25 -8 -36 9t-11 54q0 32 12.5 51t34.5 12l41 -16v12q-3 56 23 82l-64 -23q-22 -7 -34.5 12t-12.5 51q0 37 11 54t36 9l62 -22l-19 49q-7 24 7 35.5t51 11.5t51.5 -11.5t7.5 -35.5l-20 -49l62 22q21 7 34 -12.5t13 -50.5
q0 -32 -12.5 -51t-34.5 -12l-63 22q25 -25 22 -81v-11l41 15q22 7 34.5 -12t12.5 -51q0 -31 -13 -50.5t-34 -12.5l-45 16l-3 -61q-1 -15 -7.5 -22t-12.5 -8t-19 -1h-27z" />
    <glyph glyph-name="bullet.sinf" horiz-adv-x="336" 
d="M169 84q-40 0 -66 26t-26 66t26.5 67t65.5 27t65.5 -27t26.5 -67q0 -38 -27 -65t-65 -27z" />
    <glyph glyph-name="minus.sinf" horiz-adv-x="336" 
d="M68 123q-26 0 -40.5 14.5t-14.5 37.5v5q0 22 14.5 36.5t40.5 14.5h202q26 0 40 -14.5t14 -36.5v-5q0 -23 -14 -37.5t-40 -14.5h-202z" />
    <glyph glyph-name="notequal.sinf" horiz-adv-x="336" 
d="M68 204q-26 0 -40.5 13t-14.5 33v6q0 20 14.5 33t40.5 13h89l18 60q10 35 23.5 47.5t25.5 8.5l19 -5q30 -8 9 -74l-11 -37h29q26 0 40 -13t14 -33v-6q0 -20 -14 -33t-40 -13h-63l-15 -50h78q26 0 40 -13t14 -33v-5q0 -21 -14 -34t-40 -13h-101l-18 -63
q-11 -36 -23.5 -48.5t-25.5 -8.5l-18 6q-30 8 -10 74l11 40h-17q-26 0 -40.5 13t-14.5 34v5q0 20 14.5 33t40.5 13h52l15 50h-67z" />
    <glyph glyph-name="exclam.sups" horiz-adv-x="168" 
d="M76 419q-23 0 -35 42l-37 105q-12 39 9 64.5t63 25.5h14q44 0 65 -25t9 -65l-37 -105q-12 -42 -37 -42h-14zM75 280q-55 0 -55 55v11q0 54 55 54h16q30 0 43.5 -13t13.5 -41v-11q0 -55 -57 -55h-16z" />
    <glyph glyph-name="quotedbl.sups" horiz-adv-x="336" 
d="M231 454q-27 0 -33 29l-20 111q-6 28 8 43.5t52 15.5q40 0 55.5 -16t9.5 -43l-25 -111q-8 -29 -33 -29h-14zM90 454q-25 0 -33 29l-25 111q-5 27 10.5 43t53.5 16q39 0 53 -15.5t8 -43.5l-20 -111q-6 -29 -33 -29h-14z" />
    <glyph glyph-name="numbersign.sups" horiz-adv-x="336" 
d="M282 510h-1l-29 -92q26 -8 26 -34v-16q0 -39 -54 -39l-20 -62q-2 -5 -12 -5q-17 0 -34 15t-17 39q0 8 1 13h-36l-19 -62q-2 -5 -12 -5q-17 0 -34 15t-17 39q0 11 2 18q-27 10 -27 34v16q0 38 55 38h1l29 91q-29 8 -29 36v17q0 37 55 37h2l20 63q2 5 12 5q17 0 34 -15
t17 -39q0 -9 -1 -14h35l20 63q2 5 12 5q17 0 34 -15t17 -39q0 -6 -2 -18q26 -8 26 -33v-17q0 -39 -54 -39zM164 510l-28 -88h35l28 88h-35z" />
    <glyph glyph-name="dollar.sups" horiz-adv-x="327" 
d="M319 411q0 -92 -93 -113v-5q0 -67 -57 -67h-2q-31 0 -44 16t-13 51v1q-98 9 -98 69q0 16 9 32t18.5 24.5t11.5 6.5q18 -11 48 -20t51 -9q18 0 22.5 1t4.5 7q0 1 -0.5 2t-2 2t-2.5 1.5t-3.5 1l-5 1t-6 1t-6.5 1t-7.5 1t-7.5 1.5q-22 5 -36.5 10t-36 16.5t-33 32
t-11.5 49.5q0 87 91 110v3q0 69 57 69h2q31 0 43.5 -16.5t13.5 -51.5q85 -10 85 -66q0 -17 -10 -34t-20 -25.5t-13 -7.5q-45 32 -89 32q-27 0 -27 -9q0 -2 2 -4t7 -3l10 -2t13.5 -2.5t14.5 -2.5q120 -22 120 -104z" />
    <glyph glyph-name="percent.sups" horiz-adv-x="336" 
d="M87 493q-41 0 -64.5 21t-23.5 59v4q0 38 23.5 59t63.5 21t63.5 -21t23.5 -59v-4q0 -38 -23.5 -59t-62.5 -21zM53 282q-3 -3 -16 0.5t-26 14t-13 23.5q0 11 13 27l273 300q3 3 16 0t25.5 -13.5t12.5 -24.5t-13 -28zM251 277q-40 0 -64 21.5t-24 59.5v3q0 38 24 59.5
t64 21.5t63 -21.5t23 -59.5v-3q0 -38 -23 -59.5t-63 -21.5zM86 547q18 0 18 24v9q0 24 -17 24q-19 0 -19 -24v-9q0 -24 18 -24zM251 331q17 0 17 24v9q0 24 -17 24q-10 0 -14 -5t-4 -19v-9q0 -24 18 -24z" />
    <glyph glyph-name="quotesingle.sups" horiz-adv-x="168" 
d="M76 454q-26 0 -32 29l-25 111q-6 27 9.5 43t54.5 16q40 0 55.5 -16t9.5 -43l-25 -111q-6 -29 -32 -29h-15z" />
    <glyph glyph-name="asterisk.sups" horiz-adv-x="336" 
d="M92 426l-2 1q-28 14 -10 47l16 35l-28 16q-17 10 -20.5 19t1.5 24v3q4 16 13 21.5t29 2.5l35 -5l7 33q4 19 12 25.5t24 6.5h2q16 0 24.5 -6.5t11.5 -25.5l6 -33l35 5q20 3 28.5 -3t13.5 -21v-3q5 -14 1.5 -23.5t-21.5 -19.5l-29 -16l18 -35q15 -30 -11 -47l-2 -1
q-25 -16 -47 4l-30 27l-29 -27q-18 -12 -25.5 -12t-22.5 8z" />
    <glyph glyph-name="comma.sups" horiz-adv-x="168" 
d="M80 240q-20 -21 -48 -9t-23 41l13 73q6 30 18 42.5t42 12.5h16q53 0 53 -55v-5q0 -35 -31 -63z" />
    <glyph glyph-name="hyphen.sups" horiz-adv-x="336" 
d="M91 398q-26 0 -40 15.5t-14 37.5v23q0 21 14.5 36.5t39.5 15.5h155q26 0 40.5 -15.5t14.5 -36.5v-23q0 -22 -14.5 -37.5t-40.5 -15.5h-155z" />
    <glyph glyph-name="period.sups" horiz-adv-x="168" 
d="M75 280q-55 0 -55 55v11q0 54 55 54h16q30 0 43.5 -13t13.5 -41v-11q0 -55 -57 -55h-16z" />
    <glyph glyph-name="slash.sups" horiz-adv-x="336" 
d="M114 210q-65 0 -65 46q0 13 5 27l139 422q3 5 31 5q65 0 65 -47q0 -12 -5 -25l-139 -423q0 -5 -31 -5z" />
    <glyph glyph-name="one.sups" horiz-adv-x="336" 
d="M87 285q-68 0 -68 58v1q0 61 68 61h30v91q-18 -8 -35 -8q-27 0 -46.5 19t-19.5 48q0 22 9.5 39.5t19 24t12.5 5.5q22 -10 33 -10q39 0 51 39h44q65 0 65 -68v-180h10q68 0 68 -61v-1q0 -58 -68 -58h-173z" />
    <glyph glyph-name="one.alt.sups" horiz-adv-x="336" 
d="M96 285q-68 0 -68 58v1q0 61 68 61h29v102q-23 -27 -54 -27q-27 0 -47.5 22t-20.5 61l140 90h50q64 0 64 -68v-180h10q68 0 68 -61v-1q0 -58 -68 -58h-171z" />
    <glyph glyph-name="two.sups" horiz-adv-x="336" 
d="M232 426q-13 -5 -45 -13t-44 -15h114q69 0 69 -54v-1q0 -30 -16.5 -43.5t-52.5 -13.5h-155q-53 0 -70 13t-17 55v27q0 45 24 65.5t85 46.5q14 6 35 13t27.5 11t6.5 10q0 10 -7.5 17.5t-21.5 7.5q-21 0 -35.5 -17t-17.5 -39q0 -3 -23.5 -1t-47 18t-23.5 47q0 47 40.5 71.5
t114.5 24.5q72 0 113 -33t41 -90q0 -49 -24.5 -71t-69.5 -36z" />
    <glyph glyph-name="three.sups" horiz-adv-x="336" 
d="M328 391q0 -114 -168 -114q-70 0 -112 23t-42 63q0 20 9 35t21.5 21t25.5 8.5t22 2t10 -1.5q10 -46 61 -46q18 0 28.5 6.5t10.5 16.5q0 13 -16 13h-2q-35 0 -50 11t-15 35v8q0 47 64 47h10q9 0 9 10q0 9 -11 15.5t-30 6.5q-52 0 -58 -48q0 -2 -8.5 -2.5t-21 2t-25 8.5
t-21 21t-8.5 36q0 42 39.5 65t108.5 23q166 0 166 -104q0 -55 -63 -73q66 -23 66 -88z" />
    <glyph glyph-name="colon.sups" horiz-adv-x="168" 
d="M76 472q-55 0 -55 55v11q0 55 55 55h16q57 0 57 -55v-11q0 -55 -57 -55h-16zM76 329q-55 0 -55 55v11q0 54 55 54h16q30 0 43.5 -13t13.5 -41v-11q0 -55 -57 -55h-16z" />
    <glyph glyph-name="semicolon.sups" horiz-adv-x="168" 
d="M75 423q-55 0 -55 55v11q0 55 55 55h16q57 0 57 -55v-11q0 -55 -57 -55h-16zM80 240q-20 -21 -48 -9t-23 41l13 73q6 30 18 42.5t42 12.5h16q53 0 53 -55v-5q0 -35 -31 -63z" />
    <glyph glyph-name="less.sups" horiz-adv-x="336" 
d="M188 462l91 -30q48 -16 48 -65q0 -16 -6.5 -32t-14 -25t-10.5 -7l-243 97q-41 17 -41 61q0 45 41 62l243 98q3 2 10.5 -6.5t14 -24.5t6.5 -32q0 -50 -48 -66z" />
    <glyph glyph-name="greater.sups" horiz-adv-x="336" 
d="M11 367q0 47 48 65l89 30l-89 30q-48 18 -48 66q0 16 7 32t14 24.5t10 6.5l243 -98q41 -17 41 -62q0 -44 -41 -61l-243 -97q-3 -2 -10.5 7t-14 25t-6.5 32z" />
    <glyph glyph-name="at.sups" horiz-adv-x="336" 
d="M136 377q-30 0 -46.5 22.5t-16.5 61.5q0 37 18.5 61t46.5 24q31 0 45 -28q12 26 42 26t30 -9v-92q0 -14 11 -14q23 0 23 61q0 62 -30.5 95.5t-85.5 33.5q-57 0 -94 -45t-37 -109q0 -72 35 -112.5t96 -40.5q52 0 86 37q8 8 13 8q10 0 17 -6t10 -11.5t1 -5.5
q-19 -26 -54 -42.5t-73 -16.5q-80 0 -125 50t-45 140q0 82 48 136.5t122 54.5q72 0 115.5 -44.5t43.5 -119.5q0 -52 -24.5 -81t-65.5 -29q-44 0 -57 36q0 -16 -15 -28.5t-34 -12.5zM159 436q18 0 18 17v23q-7 9 -17 9q-20 0 -20 -24q0 -25 19 -25z" />
    <glyph glyph-name="bracketleft.sups" horiz-adv-x="336" 
d="M135 219q-74 0 -74 80v322q0 82 74 82h84q36 0 52 -12.5t16 -40.5v-3q0 -30 -16 -42.5t-52 -12.5h-29v-264h32q35 0 51 -11.5t16 -39.5v-3q0 -30 -16 -42.5t-51 -12.5h-87z" />
    <glyph glyph-name="backslash.sups" horiz-adv-x="336" 
d="M224 210q-31 0 -31 5l-139 423q-5 13 -5 25q0 47 65 47q28 0 31 -5l139 -422q5 -14 5 -27q0 -46 -65 -46z" />
    <glyph glyph-name="bracketright.sups" horiz-adv-x="336" 
d="M116 219q-35 0 -51 12.5t-16 42.5v3q0 28 16 39.5t51 11.5h32v264h-29q-36 0 -52 12.5t-16 42.5v3q0 28 16 40.5t52 12.5h84q74 0 74 -82v-322q0 -80 -74 -80h-87z" />
    <glyph glyph-name="underscore.sups" horiz-adv-x="336" 
d="M73 188q-26 0 -40 12.5t-14 33.5v5q0 20 14.5 33t39.5 13h189q27 0 40.5 -12.5t13.5 -33.5v-5q0 -46 -54 -46h-189z" />
    <glyph glyph-name="braceleft.sups" horiz-adv-x="336" 
d="M235 220q-52 0 -90 30.5t-50 96.5q-46 27 -62 52t-16 63q0 36 17.5 63t60.5 52q12 65 50 95.5t90 30.5q33 0 55 -17t22 -44q0 -14 -5.5 -24.5t-11 -14.5t-8.5 -4q-35 1 -50 -16.5t-19 -54.5l-107 -66l107 -67q4 -37 19 -54t50 -16q3 0 8.5 -4.5t11 -15t5.5 -23.5
q0 -28 -22 -45t-55 -17z" />
    <glyph glyph-name="bar.sups" horiz-adv-x="168" 
d="M69 220q-38 0 -38 58v366q0 59 38 59h32q38 0 38 -59v-366q0 -58 -38 -58h-32z" />
    <glyph glyph-name="braceright.sups" horiz-adv-x="336" 
d="M103 220q-33 0 -55 17t-22 45q0 13 5.5 23.5t11 15t8.5 4.5q35 -1 50 16t19 54l107 67l-107 66q-4 37 -19 54.5t-50 16.5q-3 0 -8.5 4t-11 14.5t-5.5 24.5q0 27 22 44t55 17q52 0 90 -30.5t50 -96.5v1q43 -25 60.5 -52t17.5 -63q0 -38 -16 -63t-62 -52q-12 -66 -50 -96.5
t-90 -30.5z" />
    <glyph glyph-name="asciitilde.sups" horiz-adv-x="336" 
d="M94 399q-21 0 -35 15t-14 35q0 36 21.5 55.5t52.5 19.5q47 0 79 -33q12 34 45 34q21 0 35 -15t14 -36q0 -35 -21.5 -54.5t-52.5 -19.5q-49 0 -79 33q-12 -34 -45 -34z" />
    <glyph glyph-name="cent.sups" horiz-adv-x="285" 
d="M288 364q0 -54 -70 -68v-2q0 -68 -57 -68h-2q-31 0 -44 16t-13 52v5q-50 14 -78 51.5t-28 93.5q0 53 27.5 90.5t76.5 52.5v6q0 68 57 68h2q31 0 44 -16.5t13 -51.5v-1q73 -12 73 -70q0 -23 -17.5 -38t-35 -18.5t-20.5 -0.5q-18 24 -45 24q-19 0 -31 -13t-12 -32
q0 -20 12 -33t31 -13q27 0 45 23q2 3 19.5 -1t35 -19t17.5 -37z" />
    <glyph glyph-name="sterling.sups" horiz-adv-x="336" 
d="M65 285q-34 0 -48.5 12t-14.5 40v6q0 46 50 49l4 21q-16 2 -26 14t-10 28v11q0 18 12.5 30t31.5 12h9l5 25q10 58 45.5 90.5t88.5 32.5q56 0 89.5 -20.5t33.5 -60.5q0 -32 -18.5 -47.5t-37.5 -17t-19 0.5q-6 35 -35 35q-28 0 -34 -33l-1 -5h40q19 0 31.5 -12t12.5 -30
v-11q0 -19 -12.5 -30.5t-31.5 -11.5h-57l-4 -20h101q33 0 47.5 -12t14.5 -38v-6q0 -28 -14 -40t-48 -12h-205z" />
    <glyph glyph-name="currency.sups" horiz-adv-x="336" 
d="M203 277q-66 0 -111.5 37.5t-52.5 103.5q-31 8 -31 41v11q0 32 31 40q7 68 52 106.5t112 38.5q80 0 117 -37q15 -17 14 -41q0 -21 -15 -38t-30 -24t-18 -4q-29 26 -61 26q-26 0 -30 -25h38q19 0 31.5 -12t12.5 -30v-11q0 -19 -12.5 -30.5t-31.5 -11.5h-37q5 -22 28 -22
q34 0 61 26q3 2 18.5 -5t30.5 -24t15 -38q1 -23 -14 -40q-35 -37 -117 -37z" />
    <glyph glyph-name="yen.sups" horiz-adv-x="336" 
d="M66 399q-19 0 -31.5 12t-12.5 30v11q0 18 12.5 30t31.5 12h9l-64 97q-3 5 2 18.5t26 27.5t53 14q50 0 70 -51l7 -30l9 30q23 53 72 53q27 0 46.5 -14.5t26 -29t3.5 -18.5l-64 -97h10q19 0 31.5 -12t12.5 -30v-11q0 -19 -12.5 -30.5t-31.5 -11.5h-36v-52q0 -35 -13 -51.5
t-44 -16.5h-22q-56 0 -56 68v52h-35z" />
    <glyph glyph-name="section.sups" horiz-adv-x="336" 
d="M153 166q-142 0 -142 71q0 13 8.5 26t17 20t11.5 5q17 -11 52.5 -19.5t55.5 -8.5q15 0 19.5 2t4.5 9t-47 17q-37 8 -60.5 16t-47.5 31t-24 56q0 52 60 77q-44 24 -44 72q0 53 39.5 84t114.5 31q135 0 135 -68q0 -15 -9.5 -29.5t-19 -21t-11.5 -5.5q-44 32 -85 32
q-16 0 -21 -2t-5 -9q0 -2 3 -4t10 -4t13.5 -4t18.5 -4.5t20 -4.5q32 -8 54 -17t41.5 -30.5t19.5 -51.5q0 -52 -59 -76q43 -24 43 -73q0 -53 -43.5 -85t-122.5 -32zM218 406q0 15 -16 21.5t-48 13.5q-2 0 -3.5 0.5t-3.5 0.5q-29 -6 -29 -28q0 -15 18.5 -21.5t55.5 -13.5
q5 -1 8 -1q18 7 18 28z" />
    <glyph glyph-name="degree.sups" horiz-adv-x="336" 
d="M169 453q-50 0 -79.5 26t-29.5 74v3q0 47 29.5 73.5t79.5 26.5q48 0 77.5 -26.5t29.5 -73.5v-3q0 -48 -29 -74t-78 -26zM169 520q28 0 28 28v13q0 29 -28 29q-29 0 -29 -30v-12q0 -28 29 -28z" />
    <glyph glyph-name="plusminus.sups" horiz-adv-x="336" 
d="M115 452v33h-43q-25 0 -39.5 13.5t-14.5 33.5v6q0 20 14.5 32.5t39.5 12.5h43v34q0 26 13.5 40t33.5 14h12q20 0 33 -14t13 -40v-34h43q27 0 41 -12.5t14 -32.5v-6q0 -21 -14 -34t-41 -13h-43v-33q0 -26 -13 -40t-33 -14h-12q-21 0 -34 13.5t-13 40.5zM67 278
q-26 0 -40.5 13t-14.5 34v5q0 20 14.5 33t40.5 13h202q26 0 40 -13t14 -33v-5q0 -21 -14 -34t-40 -13h-202z" />
    </font>
</defs>
</svg>
