<svg xmlns="http://www.w3.org/2000/svg" xmlns:xlink="http://www.w3.org/1999/xlink" width="12" height="12" viewBox="0 0 12 12"><defs><path id="2fa3a" d="M553.34 194h-10.68c-.36 0-.66.3-.66.66v10.68c0 .36.3.66.66.66h5.75v-4.65h-1.57v-1.81h1.57v-1.34c0-1.54.95-2.39 2.33-2.39.66 0 1.23.05 1.4.07v1.62h-.96c-.76 0-.9.36-.9.88v1.16h1.79l-.23 1.81h-1.56V206h3.06c.36 0 .66-.3.66-.66v-10.68c0-.36-.3-.66-.66-.66z"/></defs><g><g transform="translate(-542 -194)"><use fill="#fff" xlink:href="#2fa3a"/></g></g></svg>