<svg xmlns="http://www.w3.org/2000/svg" xmlns:xlink="http://www.w3.org/1999/xlink" width="100" height="100" viewBox="0 0 100 100"><defs><path id="bo9ba" d="M745.1 181.69a49.38 49.38 0 0 1 18.21 18.21A49.12 49.12 0 0 1 770 225c0 9.05-2.23 17.42-6.69 25.1a49.38 49.38 0 0 1-18.21 18.21A49.12 49.12 0 0 1 720 275a49.12 49.12 0 0 1-25.1-6.69 49.38 49.38 0 0 1-18.21-18.21A49.12 49.12 0 0 1 670 225c0-9.05 2.23-17.42 6.69-25.1a49.38 49.38 0 0 1 18.21-18.21A49.12 49.12 0 0 1 720 175c9.05 0 17.42 2.23 25.1 6.69zm-5.08 58.45L724.98 225l15.04-15.14a3.42 3.42 0 0 0 .05-4.93 3.39 3.39 0 0 0-2.5-1.02c-.97 0-1.81.32-2.53.97L720 220.02l-15.04-15.14a3.65 3.65 0 0 0-2.54-.97c-.97 0-1.8.34-2.49 1.02a3.39 3.39 0 0 0-1.02 2.5c0 .97.35 1.78 1.07 2.43L715.02 225l-15.04 15.14a3.16 3.16 0 0 0-1.07 2.44c0 .97.34 1.8 1.02 2.49a3.39 3.39 0 0 0 2.5 1.02c.97 0 1.81-.32 2.53-.97L720 229.98l15.04 15.14c.72.65 1.56.97 2.54.97.97 0 1.8-.34 2.49-1.02a3.39 3.39 0 0 0 1.02-2.5c0-.97-.35-1.78-1.07-2.43z"/><linearGradient id="bo9bb" x1="670" x2="770" y1="175" y2="275" gradientUnits="userSpaceOnUse"><stop offset="0" stop-color="#f56fb8"/><stop offset="1" stop-color="#fa3723"/></linearGradient></defs><g><g transform="translate(-670 -175)"><use fill="url(#bo9bb)" xlink:href="#bo9ba"/></g></g></svg>