<svg xmlns="http://www.w3.org/2000/svg" xmlns:xlink="http://www.w3.org/1999/xlink" width="16" height="16" viewBox="0 0 16 16"><defs><path id="owx8a" d="M852 374c2.21 0 4.1.78 5.66 2.34A7.71 7.71 0 0 1 860 382c0 2.21-.78 4.1-2.34 5.66A7.71 7.71 0 0 1 852 390c-2.21 0-4.1-.78-5.66-2.34A7.71 7.71 0 0 1 844 382c0-2.21.78-4.1 2.34-5.66A7.71 7.71 0 0 1 852 374zm4.1 5.32c.03-.02.04-.06.04-.1 0-.08 0-.12-.03-.15l-1.11-.86c-.02-.02-.07-.03-.14-.03-.05 0-.09.01-.11.03l-3.96 5.11-1.61-1.53c-.07-.08-.14-.11-.22-.11-.02 0-.07.03-.14.1l-.93.93c-.02.03-.03.08-.03.15 0 .04 0 .08.03.1l.07.04 2.83 2.71c.07.08.13.11.17.11.05 0 .11-.03.18-.1z"/></defs><g><g transform="translate(-844 -374)"><use fill="#92d400" xlink:href="#owx8a"/></g></g></svg>