<svg xmlns="http://www.w3.org/2000/svg" xmlns:xlink="http://www.w3.org/1999/xlink" width="100" height="100" viewBox="0 0 100 100"><defs><path id="nlsna" d="M745.1 181.69a49.38 49.38 0 0 1 18.21 18.21A49.12 49.12 0 0 1 770 225c0 9.05-2.23 17.42-6.69 25.1a49.38 49.38 0 0 1-18.21 18.21A49.12 49.12 0 0 1 720 275a49.12 49.12 0 0 1-25.1-6.69 49.38 49.38 0 0 1-18.21-18.21A49.12 49.12 0 0 1 670 225c0-9.05 2.23-17.42 6.69-25.1a49.38 49.38 0 0 1 18.21-18.21A49.12 49.12 0 0 1 720 175c9.05 0 17.42 2.23 25.1 6.69zm.3 28.08a3.16 3.16 0 0 0 1.06-2.45c0-.97-.34-1.8-1.02-2.49a3.39 3.39 0 0 0-2.5-1.02c-.97 0-1.81.36-2.53 1.07l-31.93 32.03-8.4-14.55a3.28 3.28 0 0 0-2.1-1.66 3.38 3.38 0 0 0-2.69.34 3.44 3.44 0 0 0-1.66 2.1c-.26.92-.13 1.8.4 2.64l10.64 18.65a3.23 3.23 0 0 0 3.03 1.76c.65 0 1.23-.16 1.75-.49.33-.2.59-.39.78-.58l.1-.1z"/><linearGradient id="nlsnb" x1="670" x2="770" y1="175" y2="275" gradientUnits="userSpaceOnUse"><stop offset="0" stop-color="#05d7f0"/><stop offset="1" stop-color="#00faa5"/></linearGradient></defs><g><g transform="translate(-670 -175)"><use fill="url(#nlsnb)" xlink:href="#nlsna"/></g></g></svg>